G75*
%MOIN*%
%OFA0B0*%
%FSLAX25Y25*%
%IPPOS*%
%LPD*%
%AMOC8*
5,1,8,0,0,1.08239X$1,22.5*
%
%ADD10C,0.14567*%
%ADD11R,0.14567X0.14567*%
%ADD12C,0.07400*%
%ADD13C,0.06600*%
%ADD14C,0.07800*%
%ADD15OC8,0.05600*%
%ADD16C,0.00600*%
%ADD17C,0.04762*%
%ADD18C,0.01000*%
%ADD19C,0.04369*%
D10*
X0022819Y0013053D03*
X0022819Y0055053D03*
X0022819Y0097053D03*
X0022819Y0139053D03*
X0022819Y0181053D03*
X0022819Y0223053D03*
X0140819Y0223053D03*
X0140819Y0181053D03*
X0140819Y0139053D03*
X0140819Y0097053D03*
X0140819Y0055053D03*
X0140819Y0013053D03*
D11*
X0140819Y0033053D03*
X0140819Y0075053D03*
X0140819Y0117053D03*
X0140819Y0159053D03*
X0140819Y0201053D03*
X0140819Y0243053D03*
X0022819Y0243053D03*
X0022819Y0201053D03*
X0022819Y0159053D03*
X0022819Y0117053D03*
X0022819Y0075053D03*
X0022819Y0033053D03*
D12*
X0036819Y0029053D03*
X0050819Y0027053D03*
X0050819Y0017053D03*
X0050819Y0037053D03*
X0050819Y0047053D03*
X0050819Y0057053D03*
X0050819Y0067053D03*
X0050819Y0077053D03*
X0050819Y0087053D03*
X0050819Y0097053D03*
X0050819Y0107053D03*
X0050819Y0117053D03*
X0050819Y0127053D03*
X0062819Y0131053D03*
X0080819Y0131053D03*
X0080819Y0119053D03*
X0062819Y0101053D03*
X0062819Y0086053D03*
X0080819Y0089053D03*
X0080819Y0079053D03*
X0097819Y0078053D03*
X0110819Y0077053D03*
X0110819Y0067053D03*
X0110819Y0057053D03*
X0110819Y0047053D03*
X0110819Y0037053D03*
X0110819Y0027053D03*
X0110819Y0017053D03*
X0098819Y0016053D03*
X0088819Y0016053D03*
X0094819Y0033053D03*
X0097819Y0048053D03*
X0080819Y0049053D03*
X0064819Y0033053D03*
X0065819Y0016053D03*
X0075819Y0016053D03*
X0062819Y0056053D03*
X0036819Y0059053D03*
X0036819Y0071053D03*
X0036819Y0101053D03*
X0036819Y0113053D03*
X0036819Y0143053D03*
X0036819Y0155053D03*
X0036819Y0185053D03*
X0036819Y0198053D03*
X0036819Y0228053D03*
X0050819Y0239053D03*
X0060819Y0239053D03*
X0070819Y0239053D03*
X0081819Y0243053D03*
X0081819Y0213053D03*
X0081819Y0203053D03*
X0081819Y0173053D03*
X0080819Y0161053D03*
X0110819Y0127053D03*
X0110819Y0117053D03*
X0110819Y0107053D03*
X0110819Y0097053D03*
X0110819Y0087053D03*
X0123512Y0087996D03*
X0126126Y0099110D03*
X0123512Y0128996D03*
X0125126Y0142110D03*
X0122512Y0171996D03*
X0125126Y0185110D03*
X0122512Y0214996D03*
X0126126Y0058110D03*
X0123512Y0044996D03*
X0126126Y0015110D03*
D13*
X0110693Y0239053D03*
X0094945Y0239053D03*
D14*
X0096819Y0132053D03*
X0096819Y0092053D03*
D15*
X0103819Y0143553D03*
X0098819Y0151053D03*
X0108819Y0151053D03*
X0103819Y0175553D03*
X0098819Y0183053D03*
X0108819Y0183053D03*
X0103819Y0204553D03*
X0098819Y0212053D03*
X0108819Y0212053D03*
X0065819Y0212053D03*
X0060819Y0204553D03*
X0055819Y0212053D03*
X0055819Y0184053D03*
X0060819Y0176553D03*
X0065819Y0184053D03*
X0064819Y0152053D03*
X0059819Y0144553D03*
X0054819Y0152053D03*
D16*
X0028819Y0024553D02*
X0013819Y0024553D01*
X0013819Y0167053D01*
X0021319Y0174553D01*
X0021319Y0179553D01*
X0022819Y0181053D01*
X0036819Y0185053D02*
X0038819Y0187053D01*
X0051819Y0187053D01*
X0066319Y0201553D01*
X0066319Y0212053D01*
X0065819Y0212053D01*
X0058819Y0229553D02*
X0051319Y0237053D01*
X0050819Y0239053D01*
X0058819Y0229553D02*
X0073819Y0229553D01*
X0073819Y0164553D01*
X0078819Y0159553D01*
X0080819Y0161053D01*
X0078819Y0152053D02*
X0083819Y0152053D01*
X0092819Y0160053D01*
X0096319Y0167053D02*
X0096319Y0170553D01*
X0096819Y0171053D01*
X0113819Y0171053D01*
X0118819Y0167053D01*
X0126319Y0167053D01*
X0131319Y0172053D01*
X0131319Y0192053D01*
X0138819Y0199553D01*
X0140819Y0201053D01*
X0131319Y0212053D02*
X0131319Y0234553D01*
X0138819Y0242053D01*
X0140819Y0243053D01*
X0120319Y0232553D02*
X0123819Y0217053D01*
X0122512Y0214996D01*
X0121319Y0207053D02*
X0103819Y0189553D01*
X0103819Y0175553D01*
X0101319Y0167053D02*
X0115319Y0167053D01*
X0118819Y0164553D01*
X0128819Y0164553D01*
X0133819Y0169553D01*
X0146319Y0170553D01*
X0151319Y0165553D01*
X0151319Y0129553D01*
X0138819Y0117053D01*
X0140819Y0117053D01*
X0131319Y0109553D02*
X0138819Y0102053D01*
X0138819Y0097053D01*
X0140819Y0097053D01*
X0138819Y0097053D02*
X0128819Y0087053D01*
X0128819Y0067053D01*
X0123819Y0072053D01*
X0108819Y0072053D01*
X0103819Y0077053D01*
X0098819Y0077053D01*
X0097819Y0078053D01*
X0091319Y0077053D02*
X0091319Y0082053D01*
X0096319Y0087053D01*
X0096319Y0092053D01*
X0096819Y0092053D01*
X0103819Y0103553D02*
X0086319Y0122053D01*
X0086319Y0127053D01*
X0081319Y0132053D01*
X0080819Y0131053D01*
X0088819Y0134553D02*
X0088819Y0122053D01*
X0098819Y0112053D01*
X0113819Y0112053D01*
X0116319Y0109553D01*
X0116319Y0107053D01*
X0123819Y0099553D01*
X0126126Y0099110D01*
X0131319Y0094553D02*
X0131319Y0107053D01*
X0116319Y0122053D01*
X0098819Y0122053D01*
X0091319Y0129553D01*
X0091319Y0134553D01*
X0061319Y0164553D01*
X0061319Y0174553D01*
X0060819Y0176553D01*
X0055819Y0169053D02*
X0054819Y0152053D01*
X0059819Y0144553D02*
X0061319Y0144553D01*
X0061319Y0132053D01*
X0062819Y0131053D01*
X0053819Y0117053D02*
X0050819Y0117053D01*
X0053819Y0117053D02*
X0056319Y0114553D01*
X0056319Y0099553D01*
X0061319Y0094553D01*
X0063819Y0094553D01*
X0066319Y0097053D01*
X0083819Y0097053D01*
X0088819Y0092053D01*
X0088819Y0077053D01*
X0091319Y0074553D01*
X0091319Y0070053D01*
X0076319Y0058053D01*
X0078819Y0054553D01*
X0078819Y0049553D01*
X0080819Y0049053D01*
X0081319Y0057053D02*
X0086319Y0057053D01*
X0096319Y0047053D01*
X0097819Y0048053D01*
X0101319Y0044553D02*
X0103819Y0047053D01*
X0103819Y0064553D01*
X0091319Y0077053D01*
X0086319Y0072053D02*
X0056319Y0042053D01*
X0048819Y0042053D01*
X0046319Y0044553D01*
X0033819Y0044553D01*
X0023819Y0054553D01*
X0022819Y0055053D01*
X0036319Y0059553D02*
X0036819Y0059053D01*
X0036319Y0059553D02*
X0048819Y0072053D01*
X0053819Y0072053D01*
X0056319Y0074553D01*
X0056319Y0079553D01*
X0053819Y0082053D01*
X0048819Y0082053D01*
X0043819Y0087053D01*
X0043819Y0127053D01*
X0048819Y0132053D01*
X0048819Y0137053D01*
X0078819Y0107053D01*
X0091319Y0107053D01*
X0108819Y0099553D02*
X0111319Y0097053D01*
X0110819Y0097053D01*
X0108819Y0099553D02*
X0063819Y0099553D01*
X0062819Y0101053D01*
X0050819Y0077053D02*
X0048819Y0077053D01*
X0031319Y0094553D01*
X0031319Y0124553D01*
X0046319Y0139553D01*
X0046319Y0179553D01*
X0048819Y0170553D02*
X0048819Y0137053D01*
X0064819Y0152053D02*
X0071319Y0152053D01*
X0088819Y0134553D01*
X0101319Y0162053D02*
X0096319Y0167053D01*
X0091319Y0169553D02*
X0091319Y0207053D01*
X0083819Y0214553D01*
X0081819Y0213053D01*
X0073819Y0229553D02*
X0081319Y0237053D01*
X0093819Y0237053D01*
X0094945Y0239053D01*
X0111319Y0234553D02*
X0096319Y0219553D01*
X0098819Y0212053D02*
X0108819Y0222053D01*
X0113819Y0223053D01*
X0120319Y0232553D02*
X0111319Y0234553D01*
X0111319Y0237053D01*
X0110693Y0239053D01*
X0131319Y0212053D02*
X0116319Y0197053D01*
X0116319Y0182053D01*
X0121319Y0177053D01*
X0121319Y0172053D01*
X0122512Y0171996D01*
X0133819Y0159553D02*
X0138819Y0159553D01*
X0140819Y0159053D01*
X0133819Y0159553D02*
X0116319Y0142053D01*
X0116319Y0134553D01*
X0121319Y0129553D01*
X0123512Y0128996D01*
X0120319Y0136053D02*
X0131319Y0137053D01*
X0131319Y0109553D01*
X0131319Y0094553D02*
X0123819Y0087053D01*
X0123512Y0087996D01*
X0128819Y0067053D02*
X0140819Y0055053D01*
X0136319Y0045553D02*
X0143819Y0044553D01*
X0151319Y0052053D01*
X0151319Y0067053D01*
X0141319Y0077053D01*
X0140819Y0075053D01*
X0126126Y0058110D02*
X0123819Y0057053D01*
X0121319Y0057053D01*
X0111319Y0067053D01*
X0110819Y0067053D01*
X0101319Y0044553D02*
X0101319Y0032053D01*
X0098819Y0029553D01*
X0098819Y0016053D01*
X0108819Y0007053D02*
X0131319Y0029553D01*
X0131319Y0040553D01*
X0136319Y0045553D01*
X0108819Y0007053D02*
X0046319Y0007053D01*
X0028819Y0024553D01*
X0108819Y0151053D02*
X0108819Y0152053D01*
X0091319Y0169553D01*
X0101319Y0162053D02*
X0103819Y0162053D01*
X0113819Y0152053D01*
X0113819Y0149553D01*
X0111319Y0147053D01*
X0111319Y0134553D01*
X0131319Y0137053D02*
X0138819Y0137053D01*
X0140819Y0139053D01*
X0065819Y0184053D02*
X0063819Y0185553D01*
X0048819Y0170553D01*
D17*
X0046319Y0179553D03*
X0055819Y0169053D03*
X0078819Y0152053D03*
X0092819Y0160053D03*
X0101319Y0167053D03*
X0120319Y0136053D03*
X0111319Y0134553D03*
X0103819Y0103553D03*
X0091319Y0107053D03*
X0086319Y0072053D03*
X0081319Y0057053D03*
X0121319Y0207053D03*
X0096319Y0219553D03*
D18*
X0093390Y0216711D02*
X0085798Y0216711D01*
X0086397Y0216112D02*
X0084878Y0217631D01*
X0082893Y0218453D01*
X0080745Y0218453D01*
X0078760Y0217631D01*
X0077241Y0216112D01*
X0076419Y0214127D01*
X0076419Y0211979D01*
X0077241Y0209995D01*
X0078760Y0208475D01*
X0079779Y0208053D01*
X0078760Y0207631D01*
X0077241Y0206112D01*
X0076419Y0204127D01*
X0076419Y0201979D01*
X0077241Y0199995D01*
X0078760Y0198475D01*
X0080745Y0197653D01*
X0082893Y0197653D01*
X0084878Y0198475D01*
X0086397Y0199995D01*
X0087219Y0201979D01*
X0087219Y0204127D01*
X0086397Y0206112D01*
X0084878Y0207631D01*
X0083859Y0208053D01*
X0084878Y0208475D01*
X0085973Y0209571D01*
X0089319Y0206225D01*
X0089319Y0168725D01*
X0090491Y0167553D01*
X0094107Y0163937D01*
X0093631Y0164134D01*
X0092007Y0164134D01*
X0090507Y0163513D01*
X0089359Y0162365D01*
X0088738Y0160865D01*
X0088738Y0159242D01*
X0088780Y0159139D01*
X0083059Y0154053D01*
X0082408Y0154053D01*
X0082279Y0154365D01*
X0081131Y0155513D01*
X0080792Y0155653D01*
X0081893Y0155653D01*
X0083878Y0156475D01*
X0085397Y0157995D01*
X0086219Y0159979D01*
X0086219Y0162127D01*
X0085397Y0164112D01*
X0083878Y0165631D01*
X0081893Y0166453D01*
X0079745Y0166453D01*
X0077760Y0165631D01*
X0076665Y0164536D01*
X0075819Y0165382D01*
X0075819Y0228725D01*
X0082148Y0235053D01*
X0091874Y0235053D01*
X0092113Y0234815D01*
X0093951Y0234053D01*
X0095940Y0234053D01*
X0097777Y0234815D01*
X0099184Y0236221D01*
X0099945Y0238059D01*
X0099945Y0240048D01*
X0099184Y0241886D01*
X0097777Y0243292D01*
X0095940Y0244053D01*
X0093951Y0244053D01*
X0092113Y0243292D01*
X0090706Y0241886D01*
X0089945Y0240048D01*
X0089945Y0239053D01*
X0085456Y0239053D01*
X0086397Y0239995D01*
X0087219Y0241979D01*
X0087219Y0244127D01*
X0086397Y0246112D01*
X0084878Y0247631D01*
X0082893Y0248453D01*
X0080745Y0248453D01*
X0078760Y0247631D01*
X0077241Y0246112D01*
X0076419Y0244127D01*
X0076419Y0241979D01*
X0077241Y0239995D01*
X0078760Y0238475D01*
X0079575Y0238138D01*
X0072991Y0231553D01*
X0059648Y0231553D01*
X0055302Y0235899D01*
X0055397Y0235995D01*
X0055819Y0237014D01*
X0056241Y0235995D01*
X0057760Y0234475D01*
X0059745Y0233653D01*
X0061893Y0233653D01*
X0063878Y0234475D01*
X0065397Y0235995D01*
X0065928Y0237278D01*
X0066000Y0237057D01*
X0066372Y0236328D01*
X0066853Y0235666D01*
X0067432Y0235087D01*
X0068094Y0234606D01*
X0068823Y0234234D01*
X0069601Y0233981D01*
X0070410Y0233853D01*
X0070519Y0233853D01*
X0070519Y0238753D01*
X0071119Y0238753D01*
X0071119Y0233853D01*
X0071228Y0233853D01*
X0072037Y0233981D01*
X0072815Y0234234D01*
X0073545Y0234606D01*
X0074207Y0235087D01*
X0074785Y0235666D01*
X0075267Y0236328D01*
X0075638Y0237057D01*
X0075891Y0237836D01*
X0076019Y0238644D01*
X0076019Y0238753D01*
X0071119Y0238753D01*
X0071119Y0239353D01*
X0076019Y0239353D01*
X0076019Y0239463D01*
X0075891Y0240271D01*
X0075638Y0241049D01*
X0075267Y0241779D01*
X0074785Y0242441D01*
X0074207Y0243020D01*
X0073545Y0243501D01*
X0072815Y0243872D01*
X0072037Y0244125D01*
X0071228Y0244253D01*
X0071119Y0244253D01*
X0071119Y0239353D01*
X0070519Y0239353D01*
X0070519Y0244253D01*
X0070410Y0244253D01*
X0069601Y0244125D01*
X0068823Y0243872D01*
X0068094Y0243501D01*
X0067432Y0243020D01*
X0066853Y0242441D01*
X0066372Y0241779D01*
X0066000Y0241049D01*
X0065928Y0240829D01*
X0065397Y0242112D01*
X0063878Y0243631D01*
X0061893Y0244453D01*
X0059745Y0244453D01*
X0057760Y0243631D01*
X0056241Y0242112D01*
X0055819Y0241093D01*
X0055397Y0242112D01*
X0053878Y0243631D01*
X0051893Y0244453D01*
X0049745Y0244453D01*
X0047760Y0243631D01*
X0046241Y0242112D01*
X0045419Y0240127D01*
X0045419Y0237979D01*
X0046241Y0235995D01*
X0047760Y0234475D01*
X0049745Y0233653D01*
X0051891Y0233653D01*
X0057991Y0227553D01*
X0071819Y0227553D01*
X0071819Y0163725D01*
X0075419Y0160125D01*
X0075419Y0159979D01*
X0076241Y0157995D01*
X0077760Y0156475D01*
X0078584Y0156134D01*
X0078007Y0156134D01*
X0076507Y0155513D01*
X0075359Y0154365D01*
X0075060Y0153641D01*
X0063319Y0165382D01*
X0063319Y0172689D01*
X0065319Y0174689D01*
X0065319Y0178417D01*
X0064183Y0179553D01*
X0067683Y0179553D01*
X0070319Y0182189D01*
X0070319Y0185917D01*
X0067683Y0188553D01*
X0063955Y0188553D01*
X0062835Y0187433D01*
X0062716Y0187416D01*
X0062411Y0187009D01*
X0061319Y0185917D01*
X0061319Y0185882D01*
X0060119Y0184682D01*
X0060119Y0185834D01*
X0057600Y0188353D01*
X0056119Y0188353D01*
X0056119Y0184353D01*
X0055519Y0184353D01*
X0055519Y0183753D01*
X0051519Y0183753D01*
X0051519Y0182272D01*
X0054038Y0179753D01*
X0055191Y0179753D01*
X0048319Y0172882D01*
X0048319Y0175964D01*
X0048631Y0176094D01*
X0049779Y0177242D01*
X0050400Y0178742D01*
X0050400Y0180365D01*
X0049779Y0181865D01*
X0048631Y0183013D01*
X0047131Y0183634D01*
X0045507Y0183634D01*
X0044007Y0183013D01*
X0042859Y0181865D01*
X0042238Y0180365D01*
X0042238Y0178742D01*
X0042859Y0177242D01*
X0044007Y0176094D01*
X0044319Y0175964D01*
X0044319Y0140382D01*
X0029974Y0126037D01*
X0015819Y0126037D01*
X0015819Y0133349D01*
X0017730Y0131438D01*
X0021032Y0130070D01*
X0024606Y0130070D01*
X0027908Y0131438D01*
X0030435Y0133965D01*
X0031803Y0137266D01*
X0031803Y0140840D01*
X0030435Y0144142D01*
X0027908Y0146669D01*
X0024606Y0148037D01*
X0021032Y0148037D01*
X0017730Y0146669D01*
X0015819Y0144758D01*
X0015819Y0150070D01*
X0030807Y0150070D01*
X0031803Y0151066D01*
X0031803Y0153054D01*
X0032241Y0151995D01*
X0033760Y0150475D01*
X0035745Y0149653D01*
X0037893Y0149653D01*
X0039878Y0150475D01*
X0041397Y0151995D01*
X0042219Y0153979D01*
X0042219Y0156127D01*
X0041397Y0158112D01*
X0039878Y0159631D01*
X0037893Y0160453D01*
X0035745Y0160453D01*
X0033760Y0159631D01*
X0032241Y0158112D01*
X0031803Y0157053D01*
X0031803Y0167041D01*
X0030807Y0168037D01*
X0017631Y0168037D01*
X0021664Y0172070D01*
X0024606Y0172070D01*
X0027908Y0173438D01*
X0030435Y0175965D01*
X0031803Y0179266D01*
X0031803Y0182840D01*
X0030435Y0186142D01*
X0027908Y0188669D01*
X0024606Y0190037D01*
X0021032Y0190037D01*
X0017730Y0188669D01*
X0015203Y0186142D01*
X0013836Y0182840D01*
X0013836Y0179266D01*
X0015203Y0175965D01*
X0017553Y0173615D01*
X0012991Y0169053D01*
X0012819Y0168882D01*
X0012819Y0250014D01*
X0013836Y0250014D01*
X0013836Y0235066D01*
X0014831Y0234070D01*
X0030807Y0234070D01*
X0031803Y0235066D01*
X0031803Y0250014D01*
X0131836Y0250014D01*
X0131836Y0237898D01*
X0129319Y0235382D01*
X0129319Y0212882D01*
X0125079Y0208641D01*
X0124779Y0209365D01*
X0124266Y0209878D01*
X0125571Y0210418D01*
X0127090Y0211937D01*
X0127912Y0213922D01*
X0127912Y0216070D01*
X0127090Y0218055D01*
X0125571Y0219574D01*
X0125272Y0219698D01*
X0122369Y0232557D01*
X0122451Y0232928D01*
X0122193Y0233333D01*
X0122088Y0233802D01*
X0121766Y0234005D01*
X0121562Y0234326D01*
X0121093Y0234430D01*
X0120687Y0234687D01*
X0120316Y0234603D01*
X0114587Y0235876D01*
X0114932Y0236221D01*
X0115693Y0238059D01*
X0115693Y0240048D01*
X0114932Y0241886D01*
X0113525Y0243292D01*
X0111688Y0244053D01*
X0109699Y0244053D01*
X0107861Y0243292D01*
X0106454Y0241886D01*
X0105693Y0240048D01*
X0105693Y0238059D01*
X0106454Y0236221D01*
X0107861Y0234815D01*
X0108491Y0234554D01*
X0097443Y0223505D01*
X0097131Y0223634D01*
X0095507Y0223634D01*
X0094007Y0223013D01*
X0092859Y0221865D01*
X0092238Y0220365D01*
X0092238Y0218742D01*
X0092859Y0217242D01*
X0094007Y0216094D01*
X0095507Y0215472D01*
X0096157Y0215472D01*
X0094519Y0213834D01*
X0094519Y0212353D01*
X0098519Y0212353D01*
X0098519Y0211753D01*
X0099119Y0211753D01*
X0099119Y0207753D01*
X0100600Y0207753D01*
X0103119Y0210272D01*
X0103119Y0211753D01*
X0099119Y0211753D01*
X0099119Y0212353D01*
X0103119Y0212353D01*
X0103119Y0213834D01*
X0100600Y0216353D01*
X0099119Y0216353D01*
X0099119Y0212353D01*
X0098519Y0212353D01*
X0098519Y0216047D01*
X0098631Y0216094D01*
X0099779Y0217242D01*
X0100400Y0218742D01*
X0100400Y0220365D01*
X0100271Y0220677D01*
X0111957Y0232363D01*
X0118648Y0230876D01*
X0121050Y0220236D01*
X0119453Y0219574D01*
X0117934Y0218055D01*
X0117112Y0216070D01*
X0117112Y0213922D01*
X0117934Y0211937D01*
X0119255Y0210616D01*
X0119007Y0210513D01*
X0117859Y0209365D01*
X0117238Y0207865D01*
X0117238Y0206242D01*
X0117367Y0205930D01*
X0101819Y0190382D01*
X0101819Y0186134D01*
X0100600Y0187353D01*
X0099119Y0187353D01*
X0099119Y0183353D01*
X0098519Y0183353D01*
X0098519Y0182753D01*
X0099119Y0182753D01*
X0099119Y0178753D01*
X0100600Y0178753D01*
X0101819Y0179972D01*
X0101819Y0179917D01*
X0099319Y0177417D01*
X0099319Y0173689D01*
X0099955Y0173053D01*
X0095991Y0173053D01*
X0094319Y0171382D01*
X0094319Y0169382D01*
X0093319Y0170382D01*
X0093319Y0207882D01*
X0087219Y0213982D01*
X0087219Y0214127D01*
X0086397Y0216112D01*
X0086563Y0215712D02*
X0094927Y0215712D01*
X0095399Y0214714D02*
X0086976Y0214714D01*
X0087485Y0213715D02*
X0094519Y0213715D01*
X0094519Y0212717D02*
X0088484Y0212717D01*
X0089482Y0211718D02*
X0094519Y0211718D01*
X0094519Y0211753D02*
X0094519Y0210272D01*
X0097038Y0207753D01*
X0098519Y0207753D01*
X0098519Y0211753D01*
X0094519Y0211753D01*
X0094519Y0210720D02*
X0090481Y0210720D01*
X0091479Y0209721D02*
X0095070Y0209721D01*
X0096068Y0208723D02*
X0092478Y0208723D01*
X0093319Y0207724D02*
X0100626Y0207724D01*
X0101570Y0208723D02*
X0101625Y0208723D01*
X0101955Y0209053D02*
X0099319Y0206417D01*
X0099319Y0202689D01*
X0101955Y0200053D01*
X0105683Y0200053D01*
X0108319Y0202689D01*
X0108319Y0206417D01*
X0107183Y0207553D01*
X0110683Y0207553D01*
X0113319Y0210189D01*
X0113319Y0213917D01*
X0110683Y0216553D01*
X0106955Y0216553D01*
X0104319Y0213917D01*
X0104319Y0210189D01*
X0105455Y0209053D01*
X0101955Y0209053D01*
X0102568Y0209721D02*
X0104787Y0209721D01*
X0104319Y0210720D02*
X0103119Y0210720D01*
X0103119Y0211718D02*
X0104319Y0211718D01*
X0104319Y0212717D02*
X0103119Y0212717D01*
X0103119Y0213715D02*
X0104319Y0213715D01*
X0105116Y0214714D02*
X0102240Y0214714D01*
X0101241Y0215712D02*
X0106114Y0215712D01*
X0099973Y0217709D02*
X0117791Y0217709D01*
X0117377Y0216711D02*
X0099248Y0216711D01*
X0099119Y0215712D02*
X0098519Y0215712D01*
X0098519Y0214714D02*
X0099119Y0214714D01*
X0099119Y0213715D02*
X0098519Y0213715D01*
X0098519Y0212717D02*
X0099119Y0212717D01*
X0099119Y0211718D02*
X0098519Y0211718D01*
X0098519Y0210720D02*
X0099119Y0210720D01*
X0099119Y0209721D02*
X0098519Y0209721D01*
X0098519Y0208723D02*
X0099119Y0208723D01*
X0099628Y0206726D02*
X0093319Y0206726D01*
X0093319Y0205727D02*
X0099319Y0205727D01*
X0099319Y0204729D02*
X0093319Y0204729D01*
X0093319Y0203730D02*
X0099319Y0203730D01*
X0099319Y0202732D02*
X0093319Y0202732D01*
X0093319Y0201733D02*
X0100275Y0201733D01*
X0101274Y0200735D02*
X0093319Y0200735D01*
X0093319Y0199736D02*
X0111174Y0199736D01*
X0112172Y0200735D02*
X0106364Y0200735D01*
X0107363Y0201733D02*
X0113171Y0201733D01*
X0114169Y0202732D02*
X0108319Y0202732D01*
X0108319Y0203730D02*
X0115168Y0203730D01*
X0116166Y0204729D02*
X0108319Y0204729D01*
X0108319Y0205727D02*
X0117165Y0205727D01*
X0117238Y0206726D02*
X0108011Y0206726D01*
X0110854Y0207724D02*
X0117238Y0207724D01*
X0117593Y0208723D02*
X0111853Y0208723D01*
X0112851Y0209721D02*
X0118216Y0209721D01*
X0119151Y0210720D02*
X0113319Y0210720D01*
X0113319Y0211718D02*
X0118153Y0211718D01*
X0117611Y0212717D02*
X0113319Y0212717D01*
X0113319Y0213715D02*
X0117197Y0213715D01*
X0117112Y0214714D02*
X0112522Y0214714D01*
X0111524Y0215712D02*
X0117112Y0215712D01*
X0118587Y0218708D02*
X0100386Y0218708D01*
X0100400Y0219706D02*
X0119772Y0219706D01*
X0120944Y0220705D02*
X0100299Y0220705D01*
X0101298Y0221704D02*
X0120719Y0221704D01*
X0120493Y0222702D02*
X0102296Y0222702D01*
X0103295Y0223701D02*
X0120268Y0223701D01*
X0120042Y0224699D02*
X0104293Y0224699D01*
X0105292Y0225698D02*
X0119817Y0225698D01*
X0119591Y0226696D02*
X0106290Y0226696D01*
X0107289Y0227695D02*
X0119366Y0227695D01*
X0119140Y0228693D02*
X0108287Y0228693D01*
X0109286Y0229692D02*
X0118915Y0229692D01*
X0118689Y0230690D02*
X0110284Y0230690D01*
X0111283Y0231689D02*
X0114991Y0231689D01*
X0115457Y0235683D02*
X0129620Y0235683D01*
X0129319Y0234684D02*
X0120691Y0234684D01*
X0120675Y0234684D02*
X0119950Y0234684D01*
X0122114Y0233686D02*
X0129319Y0233686D01*
X0129319Y0232687D02*
X0122398Y0232687D01*
X0122565Y0231689D02*
X0129319Y0231689D01*
X0129319Y0230690D02*
X0122790Y0230690D01*
X0123016Y0229692D02*
X0129319Y0229692D01*
X0129319Y0228693D02*
X0123241Y0228693D01*
X0123467Y0227695D02*
X0129319Y0227695D01*
X0129319Y0226696D02*
X0123692Y0226696D01*
X0123918Y0225698D02*
X0129319Y0225698D01*
X0129319Y0224699D02*
X0124143Y0224699D01*
X0124368Y0223701D02*
X0129319Y0223701D01*
X0129319Y0222702D02*
X0124594Y0222702D01*
X0124819Y0221704D02*
X0129319Y0221704D01*
X0129319Y0220705D02*
X0125045Y0220705D01*
X0125270Y0219706D02*
X0129319Y0219706D01*
X0129319Y0218708D02*
X0126437Y0218708D01*
X0127233Y0217709D02*
X0129319Y0217709D01*
X0129319Y0216711D02*
X0127646Y0216711D01*
X0127912Y0215712D02*
X0129319Y0215712D01*
X0129319Y0214714D02*
X0127912Y0214714D01*
X0127826Y0213715D02*
X0129319Y0213715D01*
X0129154Y0212717D02*
X0127413Y0212717D01*
X0126871Y0211718D02*
X0128156Y0211718D01*
X0127157Y0210720D02*
X0125872Y0210720D01*
X0126159Y0209721D02*
X0124423Y0209721D01*
X0125045Y0208723D02*
X0125160Y0208723D01*
X0126823Y0204729D02*
X0131836Y0204729D01*
X0131836Y0205727D02*
X0127822Y0205727D01*
X0128820Y0206726D02*
X0131836Y0206726D01*
X0131836Y0207724D02*
X0129819Y0207724D01*
X0130817Y0208723D02*
X0131836Y0208723D01*
X0131836Y0209041D02*
X0131836Y0195398D01*
X0129319Y0192882D01*
X0129319Y0188186D01*
X0129093Y0188498D01*
X0128514Y0189077D01*
X0127852Y0189558D01*
X0127123Y0189929D01*
X0126344Y0190182D01*
X0125536Y0190310D01*
X0125059Y0190310D01*
X0125477Y0185528D01*
X0124708Y0185461D01*
X0124776Y0184692D01*
X0125544Y0184760D01*
X0125963Y0179978D01*
X0126344Y0180038D01*
X0127123Y0180291D01*
X0127852Y0180663D01*
X0128514Y0181144D01*
X0129093Y0181723D01*
X0129319Y0182034D01*
X0129319Y0172882D01*
X0127912Y0171474D01*
X0127912Y0173070D01*
X0127090Y0175055D01*
X0125571Y0176574D01*
X0123586Y0177396D01*
X0123319Y0177396D01*
X0123319Y0177882D01*
X0118319Y0182882D01*
X0118319Y0196225D01*
X0132148Y0210053D01*
X0133319Y0211225D01*
X0133319Y0217849D01*
X0135730Y0215438D01*
X0139032Y0214070D01*
X0142606Y0214070D01*
X0145908Y0215438D01*
X0148435Y0217965D01*
X0149803Y0221266D01*
X0149803Y0224840D01*
X0148435Y0228142D01*
X0145908Y0230669D01*
X0142606Y0232037D01*
X0139032Y0232037D01*
X0135730Y0230669D01*
X0133319Y0228258D01*
X0133319Y0233725D01*
X0133664Y0234070D01*
X0148807Y0234070D01*
X0149803Y0235066D01*
X0149803Y0250014D01*
X0151520Y0250014D01*
X0151520Y0168181D01*
X0148254Y0171447D01*
X0148247Y0171539D01*
X0147677Y0172024D01*
X0147148Y0172553D01*
X0147055Y0172553D01*
X0146985Y0172613D01*
X0146239Y0172553D01*
X0145491Y0172553D01*
X0145426Y0172488D01*
X0143183Y0172309D01*
X0145908Y0173438D01*
X0148435Y0175965D01*
X0149803Y0179266D01*
X0149803Y0182840D01*
X0148435Y0186142D01*
X0145908Y0188669D01*
X0142606Y0190037D01*
X0139032Y0190037D01*
X0135730Y0188669D01*
X0133319Y0186258D01*
X0133319Y0191225D01*
X0134164Y0192070D01*
X0148807Y0192070D01*
X0149803Y0193066D01*
X0149803Y0209041D01*
X0148807Y0210037D01*
X0132831Y0210037D01*
X0131836Y0209041D01*
X0131816Y0209721D02*
X0132516Y0209721D01*
X0132814Y0210720D02*
X0151520Y0210720D01*
X0151520Y0211718D02*
X0133319Y0211718D01*
X0133319Y0212717D02*
X0151520Y0212717D01*
X0151520Y0213715D02*
X0133319Y0213715D01*
X0133319Y0214714D02*
X0137477Y0214714D01*
X0135455Y0215712D02*
X0133319Y0215712D01*
X0133319Y0216711D02*
X0134457Y0216711D01*
X0133458Y0217709D02*
X0133319Y0217709D01*
X0133319Y0228693D02*
X0133754Y0228693D01*
X0133319Y0229692D02*
X0134753Y0229692D01*
X0135781Y0230690D02*
X0133319Y0230690D01*
X0133319Y0231689D02*
X0138192Y0231689D01*
X0133319Y0232687D02*
X0151520Y0232687D01*
X0151520Y0231689D02*
X0143447Y0231689D01*
X0145857Y0230690D02*
X0151520Y0230690D01*
X0151520Y0229692D02*
X0146885Y0229692D01*
X0147884Y0228693D02*
X0151520Y0228693D01*
X0151520Y0227695D02*
X0148620Y0227695D01*
X0149034Y0226696D02*
X0151520Y0226696D01*
X0151520Y0225698D02*
X0149447Y0225698D01*
X0149803Y0224699D02*
X0151520Y0224699D01*
X0151520Y0223701D02*
X0149803Y0223701D01*
X0149803Y0222702D02*
X0151520Y0222702D01*
X0151520Y0221704D02*
X0149803Y0221704D01*
X0149570Y0220705D02*
X0151520Y0220705D01*
X0151520Y0219706D02*
X0149156Y0219706D01*
X0148743Y0218708D02*
X0151520Y0218708D01*
X0151520Y0217709D02*
X0148180Y0217709D01*
X0147181Y0216711D02*
X0151520Y0216711D01*
X0151520Y0215712D02*
X0146183Y0215712D01*
X0144161Y0214714D02*
X0151520Y0214714D01*
X0151520Y0209721D02*
X0149122Y0209721D01*
X0149803Y0208723D02*
X0151520Y0208723D01*
X0151520Y0207724D02*
X0149803Y0207724D01*
X0149803Y0206726D02*
X0151520Y0206726D01*
X0151520Y0205727D02*
X0149803Y0205727D01*
X0149803Y0204729D02*
X0151520Y0204729D01*
X0151520Y0203730D02*
X0149803Y0203730D01*
X0149803Y0202732D02*
X0151520Y0202732D01*
X0151520Y0201733D02*
X0149803Y0201733D01*
X0149803Y0200735D02*
X0151520Y0200735D01*
X0151520Y0199736D02*
X0149803Y0199736D01*
X0149803Y0198738D02*
X0151520Y0198738D01*
X0151520Y0197739D02*
X0149803Y0197739D01*
X0149803Y0196741D02*
X0151520Y0196741D01*
X0151520Y0195742D02*
X0149803Y0195742D01*
X0149803Y0194744D02*
X0151520Y0194744D01*
X0151520Y0193745D02*
X0149803Y0193745D01*
X0149484Y0192747D02*
X0151520Y0192747D01*
X0151520Y0191748D02*
X0133842Y0191748D01*
X0133319Y0190750D02*
X0151520Y0190750D01*
X0151520Y0189751D02*
X0143296Y0189751D01*
X0145706Y0188753D02*
X0151520Y0188753D01*
X0151520Y0187754D02*
X0146823Y0187754D01*
X0147821Y0186756D02*
X0151520Y0186756D01*
X0151520Y0185757D02*
X0148594Y0185757D01*
X0149008Y0184759D02*
X0151520Y0184759D01*
X0151520Y0183760D02*
X0149422Y0183760D01*
X0149803Y0182762D02*
X0151520Y0182762D01*
X0151520Y0181763D02*
X0149803Y0181763D01*
X0149803Y0180765D02*
X0151520Y0180765D01*
X0151520Y0179766D02*
X0149803Y0179766D01*
X0149596Y0178768D02*
X0151520Y0178768D01*
X0151520Y0177769D02*
X0149182Y0177769D01*
X0148769Y0176771D02*
X0151520Y0176771D01*
X0151520Y0175772D02*
X0148242Y0175772D01*
X0147244Y0174773D02*
X0151520Y0174773D01*
X0151520Y0173775D02*
X0146245Y0173775D01*
X0144312Y0172776D02*
X0151520Y0172776D01*
X0151520Y0171778D02*
X0147966Y0171778D01*
X0148921Y0170779D02*
X0151520Y0170779D01*
X0151520Y0169781D02*
X0149920Y0169781D01*
X0150918Y0168782D02*
X0151520Y0168782D01*
X0138343Y0189751D02*
X0133319Y0189751D01*
X0133319Y0188753D02*
X0135932Y0188753D01*
X0134815Y0187754D02*
X0133319Y0187754D01*
X0133319Y0186756D02*
X0133817Y0186756D01*
X0129319Y0188753D02*
X0128838Y0188753D01*
X0129319Y0189751D02*
X0127472Y0189751D01*
X0125108Y0189751D02*
X0124333Y0189751D01*
X0124290Y0190243D02*
X0123909Y0190182D01*
X0123130Y0189929D01*
X0122401Y0189558D01*
X0121739Y0189077D01*
X0121160Y0188498D01*
X0120679Y0187836D01*
X0120307Y0187107D01*
X0120054Y0186328D01*
X0119926Y0185520D01*
X0119926Y0185043D01*
X0124708Y0185461D01*
X0124290Y0190243D01*
X0124420Y0188753D02*
X0125195Y0188753D01*
X0125282Y0187754D02*
X0124508Y0187754D01*
X0124595Y0186756D02*
X0125370Y0186756D01*
X0125457Y0185757D02*
X0124683Y0185757D01*
X0124770Y0184759D02*
X0118319Y0184759D01*
X0118319Y0185757D02*
X0119964Y0185757D01*
X0120193Y0186756D02*
X0118319Y0186756D01*
X0118319Y0187754D02*
X0120637Y0187754D01*
X0121415Y0188753D02*
X0118319Y0188753D01*
X0118319Y0189751D02*
X0122780Y0189751D01*
X0124776Y0184692D02*
X0119994Y0184274D01*
X0120054Y0183893D01*
X0120307Y0183114D01*
X0120679Y0182385D01*
X0121160Y0181723D01*
X0121739Y0181144D01*
X0122401Y0180663D01*
X0123130Y0180291D01*
X0123909Y0180038D01*
X0124717Y0179910D01*
X0125194Y0179910D01*
X0124776Y0184692D01*
X0125533Y0184759D02*
X0125545Y0184759D01*
X0125632Y0183760D02*
X0124857Y0183760D01*
X0124945Y0182762D02*
X0125719Y0182762D01*
X0125807Y0181763D02*
X0125032Y0181763D01*
X0125119Y0180765D02*
X0125894Y0180765D01*
X0123319Y0177769D02*
X0129319Y0177769D01*
X0129319Y0176771D02*
X0125097Y0176771D01*
X0126373Y0175772D02*
X0129319Y0175772D01*
X0129319Y0174773D02*
X0127206Y0174773D01*
X0127620Y0173775D02*
X0129319Y0173775D01*
X0129214Y0172776D02*
X0127912Y0172776D01*
X0127912Y0171778D02*
X0128215Y0171778D01*
X0129319Y0178768D02*
X0122433Y0178768D01*
X0121435Y0179766D02*
X0129319Y0179766D01*
X0129319Y0180765D02*
X0127992Y0180765D01*
X0129122Y0181763D02*
X0129319Y0181763D01*
X0129319Y0190750D02*
X0118319Y0190750D01*
X0118319Y0191748D02*
X0129319Y0191748D01*
X0129319Y0192747D02*
X0118319Y0192747D01*
X0118319Y0193745D02*
X0130183Y0193745D01*
X0131181Y0194744D02*
X0118319Y0194744D01*
X0118319Y0195742D02*
X0131836Y0195742D01*
X0131836Y0196741D02*
X0118835Y0196741D01*
X0119833Y0197739D02*
X0131836Y0197739D01*
X0131836Y0198738D02*
X0120832Y0198738D01*
X0121830Y0199736D02*
X0131836Y0199736D01*
X0131836Y0200735D02*
X0122829Y0200735D01*
X0123827Y0201733D02*
X0131836Y0201733D01*
X0131836Y0202732D02*
X0124826Y0202732D01*
X0125824Y0203730D02*
X0131836Y0203730D01*
X0120098Y0183760D02*
X0118319Y0183760D01*
X0118439Y0182762D02*
X0120487Y0182762D01*
X0121131Y0181763D02*
X0119438Y0181763D01*
X0120436Y0180765D02*
X0122261Y0180765D01*
X0110175Y0198738D02*
X0093319Y0198738D01*
X0093319Y0197739D02*
X0109177Y0197739D01*
X0108178Y0196741D02*
X0093319Y0196741D01*
X0093319Y0195742D02*
X0107180Y0195742D01*
X0106181Y0194744D02*
X0093319Y0194744D01*
X0093319Y0193745D02*
X0105183Y0193745D01*
X0104184Y0192747D02*
X0093319Y0192747D01*
X0093319Y0191748D02*
X0103186Y0191748D01*
X0102187Y0190750D02*
X0093319Y0190750D01*
X0093319Y0189751D02*
X0101819Y0189751D01*
X0101819Y0188753D02*
X0093319Y0188753D01*
X0093319Y0187754D02*
X0101819Y0187754D01*
X0101819Y0186756D02*
X0101198Y0186756D01*
X0099119Y0186756D02*
X0098519Y0186756D01*
X0098519Y0187353D02*
X0097038Y0187353D01*
X0094519Y0184834D01*
X0094519Y0183353D01*
X0098519Y0183353D01*
X0098519Y0187353D01*
X0098519Y0185757D02*
X0099119Y0185757D01*
X0099119Y0184759D02*
X0098519Y0184759D01*
X0098519Y0183760D02*
X0099119Y0183760D01*
X0098519Y0182762D02*
X0093319Y0182762D01*
X0093319Y0183760D02*
X0094519Y0183760D01*
X0094519Y0184759D02*
X0093319Y0184759D01*
X0093319Y0185757D02*
X0095442Y0185757D01*
X0096440Y0186756D02*
X0093319Y0186756D01*
X0094519Y0182753D02*
X0094519Y0181272D01*
X0097038Y0178753D01*
X0098519Y0178753D01*
X0098519Y0182753D01*
X0094519Y0182753D01*
X0094519Y0181763D02*
X0093319Y0181763D01*
X0093319Y0180765D02*
X0095027Y0180765D01*
X0096025Y0179766D02*
X0093319Y0179766D01*
X0093319Y0178768D02*
X0097024Y0178768D01*
X0098519Y0178768D02*
X0099119Y0178768D01*
X0099119Y0179766D02*
X0098519Y0179766D01*
X0098519Y0180765D02*
X0099119Y0180765D01*
X0099119Y0181763D02*
X0098519Y0181763D01*
X0100614Y0178768D02*
X0100669Y0178768D01*
X0101613Y0179766D02*
X0101668Y0179766D01*
X0099671Y0177769D02*
X0093319Y0177769D01*
X0093319Y0176771D02*
X0099319Y0176771D01*
X0099319Y0175772D02*
X0093319Y0175772D01*
X0093319Y0174773D02*
X0099319Y0174773D01*
X0099319Y0173775D02*
X0093319Y0173775D01*
X0093319Y0172776D02*
X0095714Y0172776D01*
X0094715Y0171778D02*
X0093319Y0171778D01*
X0093319Y0170779D02*
X0094319Y0170779D01*
X0094319Y0169781D02*
X0093920Y0169781D01*
X0091259Y0166785D02*
X0075819Y0166785D01*
X0075819Y0165787D02*
X0078136Y0165787D01*
X0076917Y0164788D02*
X0076413Y0164788D01*
X0075819Y0167784D02*
X0080430Y0167784D01*
X0080745Y0167653D02*
X0082893Y0167653D01*
X0084878Y0168475D01*
X0086397Y0169995D01*
X0087219Y0171979D01*
X0087219Y0174127D01*
X0086397Y0176112D01*
X0084878Y0177631D01*
X0082893Y0178453D01*
X0080745Y0178453D01*
X0078760Y0177631D01*
X0077241Y0176112D01*
X0076419Y0174127D01*
X0076419Y0171979D01*
X0077241Y0169995D01*
X0078760Y0168475D01*
X0080745Y0167653D01*
X0083208Y0167784D02*
X0090260Y0167784D01*
X0089319Y0168782D02*
X0085185Y0168782D01*
X0086183Y0169781D02*
X0089319Y0169781D01*
X0089319Y0170779D02*
X0086722Y0170779D01*
X0087136Y0171778D02*
X0089319Y0171778D01*
X0089319Y0172776D02*
X0087219Y0172776D01*
X0087219Y0173775D02*
X0089319Y0173775D01*
X0089319Y0174773D02*
X0086952Y0174773D01*
X0086538Y0175772D02*
X0089319Y0175772D01*
X0089319Y0176771D02*
X0085739Y0176771D01*
X0084545Y0177769D02*
X0089319Y0177769D01*
X0089319Y0178768D02*
X0075819Y0178768D01*
X0075819Y0179766D02*
X0089319Y0179766D01*
X0089319Y0180765D02*
X0075819Y0180765D01*
X0075819Y0181763D02*
X0089319Y0181763D01*
X0089319Y0182762D02*
X0075819Y0182762D01*
X0075819Y0183760D02*
X0089319Y0183760D01*
X0089319Y0184759D02*
X0075819Y0184759D01*
X0075819Y0185757D02*
X0089319Y0185757D01*
X0089319Y0186756D02*
X0075819Y0186756D01*
X0075819Y0187754D02*
X0089319Y0187754D01*
X0089319Y0188753D02*
X0075819Y0188753D01*
X0075819Y0189751D02*
X0089319Y0189751D01*
X0089319Y0190750D02*
X0075819Y0190750D01*
X0075819Y0191748D02*
X0089319Y0191748D01*
X0089319Y0192747D02*
X0075819Y0192747D01*
X0075819Y0193745D02*
X0089319Y0193745D01*
X0089319Y0194744D02*
X0075819Y0194744D01*
X0075819Y0195742D02*
X0089319Y0195742D01*
X0089319Y0196741D02*
X0075819Y0196741D01*
X0075819Y0197739D02*
X0080538Y0197739D01*
X0083101Y0197739D02*
X0089319Y0197739D01*
X0089319Y0198738D02*
X0085140Y0198738D01*
X0086139Y0199736D02*
X0089319Y0199736D01*
X0089319Y0200735D02*
X0086704Y0200735D01*
X0087117Y0201733D02*
X0089319Y0201733D01*
X0089319Y0202732D02*
X0087219Y0202732D01*
X0087219Y0203730D02*
X0089319Y0203730D01*
X0089319Y0204729D02*
X0086970Y0204729D01*
X0086556Y0205727D02*
X0089319Y0205727D01*
X0088818Y0206726D02*
X0085783Y0206726D01*
X0084653Y0207724D02*
X0087820Y0207724D01*
X0086821Y0208723D02*
X0085125Y0208723D01*
X0078985Y0207724D02*
X0075819Y0207724D01*
X0075819Y0206726D02*
X0077855Y0206726D01*
X0077082Y0205727D02*
X0075819Y0205727D01*
X0075819Y0204729D02*
X0076668Y0204729D01*
X0076419Y0203730D02*
X0075819Y0203730D01*
X0075819Y0202732D02*
X0076419Y0202732D01*
X0076521Y0201733D02*
X0075819Y0201733D01*
X0075819Y0200735D02*
X0076935Y0200735D01*
X0077499Y0199736D02*
X0075819Y0199736D01*
X0075819Y0198738D02*
X0078498Y0198738D01*
X0071819Y0198738D02*
X0066332Y0198738D01*
X0067330Y0199736D02*
X0071819Y0199736D01*
X0071819Y0200735D02*
X0068319Y0200735D01*
X0068319Y0200725D02*
X0068319Y0208189D01*
X0070319Y0210189D01*
X0070319Y0213917D01*
X0067683Y0216553D01*
X0063955Y0216553D01*
X0061319Y0213917D01*
X0061319Y0210189D01*
X0062455Y0209053D01*
X0058955Y0209053D01*
X0056319Y0206417D01*
X0056319Y0202689D01*
X0058955Y0200053D01*
X0061991Y0200053D01*
X0050991Y0189053D01*
X0040456Y0189053D01*
X0039878Y0189631D01*
X0037893Y0190453D01*
X0035745Y0190453D01*
X0033760Y0189631D01*
X0032241Y0188112D01*
X0031419Y0186127D01*
X0031419Y0183979D01*
X0032241Y0181995D01*
X0033760Y0180475D01*
X0035745Y0179653D01*
X0037893Y0179653D01*
X0039878Y0180475D01*
X0041397Y0181995D01*
X0042219Y0183979D01*
X0042219Y0185053D01*
X0051519Y0185053D01*
X0051519Y0184353D01*
X0055519Y0184353D01*
X0055519Y0187925D01*
X0068319Y0200725D01*
X0068319Y0201733D02*
X0071819Y0201733D01*
X0071819Y0202732D02*
X0068319Y0202732D01*
X0068319Y0203730D02*
X0071819Y0203730D01*
X0071819Y0204729D02*
X0068319Y0204729D01*
X0068319Y0205727D02*
X0071819Y0205727D01*
X0071819Y0206726D02*
X0068319Y0206726D01*
X0068319Y0207724D02*
X0071819Y0207724D01*
X0071819Y0208723D02*
X0068853Y0208723D01*
X0069851Y0209721D02*
X0071819Y0209721D01*
X0071819Y0210720D02*
X0070319Y0210720D01*
X0070319Y0211718D02*
X0071819Y0211718D01*
X0071819Y0212717D02*
X0070319Y0212717D01*
X0070319Y0213715D02*
X0071819Y0213715D01*
X0071819Y0214714D02*
X0069522Y0214714D01*
X0068524Y0215712D02*
X0071819Y0215712D01*
X0071819Y0216711D02*
X0029181Y0216711D01*
X0028183Y0215712D02*
X0053397Y0215712D01*
X0054038Y0216353D02*
X0051519Y0213834D01*
X0051519Y0212353D01*
X0055519Y0212353D01*
X0055519Y0211753D01*
X0056119Y0211753D01*
X0056119Y0207753D01*
X0057600Y0207753D01*
X0060119Y0210272D01*
X0060119Y0211753D01*
X0056119Y0211753D01*
X0056119Y0212353D01*
X0060119Y0212353D01*
X0060119Y0213834D01*
X0057600Y0216353D01*
X0056119Y0216353D01*
X0056119Y0212353D01*
X0055519Y0212353D01*
X0055519Y0216353D01*
X0054038Y0216353D01*
X0055519Y0215712D02*
X0056119Y0215712D01*
X0056119Y0214714D02*
X0055519Y0214714D01*
X0055519Y0213715D02*
X0056119Y0213715D01*
X0056119Y0212717D02*
X0055519Y0212717D01*
X0055519Y0211753D02*
X0051519Y0211753D01*
X0051519Y0210272D01*
X0054038Y0207753D01*
X0055519Y0207753D01*
X0055519Y0211753D01*
X0055519Y0211718D02*
X0056119Y0211718D01*
X0056119Y0210720D02*
X0055519Y0210720D01*
X0055519Y0209721D02*
X0056119Y0209721D01*
X0056119Y0208723D02*
X0055519Y0208723D01*
X0056628Y0206726D02*
X0031803Y0206726D01*
X0031803Y0207724D02*
X0057626Y0207724D01*
X0058570Y0208723D02*
X0058625Y0208723D01*
X0059568Y0209721D02*
X0061787Y0209721D01*
X0061319Y0210720D02*
X0060119Y0210720D01*
X0060119Y0211718D02*
X0061319Y0211718D01*
X0061319Y0212717D02*
X0060119Y0212717D01*
X0060119Y0213715D02*
X0061319Y0213715D01*
X0062116Y0214714D02*
X0059240Y0214714D01*
X0058241Y0215712D02*
X0063114Y0215712D01*
X0056319Y0205727D02*
X0031803Y0205727D01*
X0031803Y0204729D02*
X0056319Y0204729D01*
X0056319Y0203730D02*
X0031803Y0203730D01*
X0031803Y0202732D02*
X0034003Y0202732D01*
X0033760Y0202631D02*
X0032241Y0201112D01*
X0031803Y0200053D01*
X0031803Y0209041D01*
X0030807Y0210037D01*
X0014831Y0210037D01*
X0013836Y0209041D01*
X0013836Y0193066D01*
X0014831Y0192070D01*
X0030807Y0192070D01*
X0031803Y0193066D01*
X0031803Y0196053D01*
X0032241Y0194995D01*
X0033760Y0193475D01*
X0035745Y0192653D01*
X0037893Y0192653D01*
X0039878Y0193475D01*
X0041397Y0194995D01*
X0042219Y0196979D01*
X0042219Y0199127D01*
X0041397Y0201112D01*
X0039878Y0202631D01*
X0037893Y0203453D01*
X0035745Y0203453D01*
X0033760Y0202631D01*
X0032862Y0201733D02*
X0031803Y0201733D01*
X0031803Y0200735D02*
X0032085Y0200735D01*
X0031931Y0195742D02*
X0031803Y0195742D01*
X0031803Y0194744D02*
X0032492Y0194744D01*
X0031803Y0193745D02*
X0033491Y0193745D01*
X0031484Y0192747D02*
X0035520Y0192747D01*
X0034050Y0189751D02*
X0025296Y0189751D01*
X0027706Y0188753D02*
X0032882Y0188753D01*
X0032093Y0187754D02*
X0028823Y0187754D01*
X0029821Y0186756D02*
X0031679Y0186756D01*
X0031419Y0185757D02*
X0030594Y0185757D01*
X0031008Y0184759D02*
X0031419Y0184759D01*
X0031422Y0183760D02*
X0031510Y0183760D01*
X0031803Y0182762D02*
X0031923Y0182762D01*
X0031803Y0181763D02*
X0032473Y0181763D01*
X0031803Y0180765D02*
X0033471Y0180765D01*
X0031803Y0179766D02*
X0035473Y0179766D01*
X0038165Y0179766D02*
X0042238Y0179766D01*
X0042238Y0178768D02*
X0031596Y0178768D01*
X0031182Y0177769D02*
X0042641Y0177769D01*
X0043330Y0176771D02*
X0030769Y0176771D01*
X0030242Y0175772D02*
X0044319Y0175772D01*
X0044319Y0174773D02*
X0029244Y0174773D01*
X0028245Y0173775D02*
X0044319Y0173775D01*
X0044319Y0172776D02*
X0026312Y0172776D01*
X0031060Y0167784D02*
X0044319Y0167784D01*
X0044319Y0168782D02*
X0018377Y0168782D01*
X0019375Y0169781D02*
X0044319Y0169781D01*
X0044319Y0170779D02*
X0020374Y0170779D01*
X0021372Y0171778D02*
X0044319Y0171778D01*
X0048319Y0173775D02*
X0049212Y0173775D01*
X0048319Y0174773D02*
X0050211Y0174773D01*
X0051209Y0175772D02*
X0048319Y0175772D01*
X0049308Y0176771D02*
X0052208Y0176771D01*
X0053206Y0177769D02*
X0049997Y0177769D01*
X0050400Y0178768D02*
X0054205Y0178768D01*
X0054025Y0179766D02*
X0050400Y0179766D01*
X0050235Y0180765D02*
X0053027Y0180765D01*
X0052028Y0181763D02*
X0049821Y0181763D01*
X0048882Y0182762D02*
X0051519Y0182762D01*
X0051519Y0184759D02*
X0042219Y0184759D01*
X0042128Y0183760D02*
X0055519Y0183760D01*
X0055519Y0184759D02*
X0056119Y0184759D01*
X0056119Y0185757D02*
X0055519Y0185757D01*
X0055519Y0186756D02*
X0056119Y0186756D01*
X0056119Y0187754D02*
X0055519Y0187754D01*
X0056347Y0188753D02*
X0071819Y0188753D01*
X0071819Y0189751D02*
X0057345Y0189751D01*
X0058344Y0190750D02*
X0071819Y0190750D01*
X0071819Y0191748D02*
X0059342Y0191748D01*
X0060341Y0192747D02*
X0071819Y0192747D01*
X0071819Y0193745D02*
X0061339Y0193745D01*
X0062338Y0194744D02*
X0071819Y0194744D01*
X0071819Y0195742D02*
X0063336Y0195742D01*
X0064335Y0196741D02*
X0071819Y0196741D01*
X0071819Y0197739D02*
X0065333Y0197739D01*
X0061674Y0199736D02*
X0041967Y0199736D01*
X0042219Y0198738D02*
X0060675Y0198738D01*
X0059677Y0197739D02*
X0042219Y0197739D01*
X0042120Y0196741D02*
X0058678Y0196741D01*
X0057680Y0195742D02*
X0041707Y0195742D01*
X0041146Y0194744D02*
X0056681Y0194744D01*
X0055683Y0193745D02*
X0040148Y0193745D01*
X0038119Y0192747D02*
X0054684Y0192747D01*
X0053686Y0191748D02*
X0012819Y0191748D01*
X0012819Y0190750D02*
X0052687Y0190750D01*
X0051688Y0189751D02*
X0039588Y0189751D01*
X0041715Y0182762D02*
X0043756Y0182762D01*
X0042817Y0181763D02*
X0041166Y0181763D01*
X0040167Y0180765D02*
X0042403Y0180765D01*
X0044319Y0166785D02*
X0031803Y0166785D01*
X0031803Y0165787D02*
X0044319Y0165787D01*
X0044319Y0164788D02*
X0031803Y0164788D01*
X0031803Y0163790D02*
X0044319Y0163790D01*
X0044319Y0162791D02*
X0031803Y0162791D01*
X0031803Y0161793D02*
X0044319Y0161793D01*
X0044319Y0160794D02*
X0031803Y0160794D01*
X0031803Y0159796D02*
X0034158Y0159796D01*
X0032926Y0158797D02*
X0031803Y0158797D01*
X0031803Y0157799D02*
X0032111Y0157799D01*
X0031905Y0152806D02*
X0031803Y0152806D01*
X0031803Y0151808D02*
X0032428Y0151808D01*
X0031546Y0150809D02*
X0033426Y0150809D01*
X0035365Y0149811D02*
X0015819Y0149811D01*
X0015819Y0148812D02*
X0044319Y0148812D01*
X0044319Y0147814D02*
X0039438Y0147814D01*
X0039878Y0147631D02*
X0037893Y0148453D01*
X0035745Y0148453D01*
X0033760Y0147631D01*
X0032241Y0146112D01*
X0031419Y0144127D01*
X0031419Y0141979D01*
X0032241Y0139995D01*
X0033760Y0138475D01*
X0035745Y0137653D01*
X0037893Y0137653D01*
X0039878Y0138475D01*
X0041397Y0139995D01*
X0042219Y0141979D01*
X0042219Y0144127D01*
X0041397Y0146112D01*
X0039878Y0147631D01*
X0040694Y0146815D02*
X0044319Y0146815D01*
X0044319Y0145817D02*
X0041519Y0145817D01*
X0041933Y0144818D02*
X0044319Y0144818D01*
X0044319Y0143820D02*
X0042219Y0143820D01*
X0042219Y0142821D02*
X0044319Y0142821D01*
X0044319Y0141823D02*
X0042154Y0141823D01*
X0041741Y0140824D02*
X0044319Y0140824D01*
X0043763Y0139826D02*
X0041228Y0139826D01*
X0040230Y0138827D02*
X0042764Y0138827D01*
X0041766Y0137829D02*
X0038316Y0137829D01*
X0039769Y0135832D02*
X0031208Y0135832D01*
X0031622Y0136830D02*
X0040767Y0136830D01*
X0038770Y0134833D02*
X0030795Y0134833D01*
X0030305Y0133835D02*
X0037772Y0133835D01*
X0036773Y0132836D02*
X0029306Y0132836D01*
X0028308Y0131838D02*
X0035775Y0131838D01*
X0034776Y0130839D02*
X0026463Y0130839D01*
X0030782Y0126845D02*
X0015819Y0126845D01*
X0015819Y0127843D02*
X0031781Y0127843D01*
X0032779Y0128842D02*
X0015819Y0128842D01*
X0015819Y0129840D02*
X0033778Y0129840D01*
X0035322Y0137829D02*
X0031803Y0137829D01*
X0031803Y0138827D02*
X0033409Y0138827D01*
X0032410Y0139826D02*
X0031803Y0139826D01*
X0031803Y0140824D02*
X0031898Y0140824D01*
X0031484Y0141823D02*
X0031396Y0141823D01*
X0031419Y0142821D02*
X0030982Y0142821D01*
X0030568Y0143820D02*
X0031419Y0143820D01*
X0031705Y0144818D02*
X0029759Y0144818D01*
X0028760Y0145817D02*
X0032119Y0145817D01*
X0032944Y0146815D02*
X0027555Y0146815D01*
X0025145Y0147814D02*
X0034201Y0147814D01*
X0038273Y0149811D02*
X0044319Y0149811D01*
X0044319Y0150809D02*
X0040212Y0150809D01*
X0041210Y0151808D02*
X0044319Y0151808D01*
X0044319Y0152806D02*
X0041733Y0152806D01*
X0042147Y0153805D02*
X0044319Y0153805D01*
X0044319Y0154803D02*
X0042219Y0154803D01*
X0042219Y0155802D02*
X0044319Y0155802D01*
X0044319Y0156800D02*
X0041940Y0156800D01*
X0041527Y0157799D02*
X0044319Y0157799D01*
X0044319Y0158797D02*
X0040712Y0158797D01*
X0039481Y0159796D02*
X0044319Y0159796D01*
X0050819Y0159796D02*
X0063248Y0159796D01*
X0062250Y0160794D02*
X0050819Y0160794D01*
X0050819Y0161793D02*
X0061251Y0161793D01*
X0060253Y0162791D02*
X0050819Y0162791D01*
X0050819Y0163790D02*
X0059319Y0163790D01*
X0059319Y0163725D02*
X0066491Y0156553D01*
X0062955Y0156553D01*
X0060319Y0153917D01*
X0060319Y0150189D01*
X0061455Y0149053D01*
X0057955Y0149053D01*
X0055319Y0146417D01*
X0055319Y0142689D01*
X0057955Y0140053D01*
X0059319Y0140053D01*
X0059319Y0135190D01*
X0058241Y0134112D01*
X0057419Y0132127D01*
X0057419Y0131282D01*
X0050819Y0137882D01*
X0050819Y0149972D01*
X0053038Y0147753D01*
X0054519Y0147753D01*
X0054519Y0151753D01*
X0055119Y0151753D01*
X0055119Y0147753D01*
X0056600Y0147753D01*
X0059119Y0150272D01*
X0059119Y0151753D01*
X0055119Y0151753D01*
X0055119Y0152353D01*
X0059119Y0152353D01*
X0059119Y0153834D01*
X0056600Y0156353D01*
X0055119Y0156353D01*
X0055119Y0152353D01*
X0054519Y0152353D01*
X0054519Y0156353D01*
X0053038Y0156353D01*
X0050819Y0154134D01*
X0050819Y0169725D01*
X0056319Y0175225D01*
X0056319Y0174689D01*
X0058955Y0172053D01*
X0059319Y0172053D01*
X0059319Y0163725D01*
X0059319Y0164788D02*
X0050819Y0164788D01*
X0050819Y0165787D02*
X0059319Y0165787D01*
X0059319Y0166785D02*
X0050819Y0166785D01*
X0050819Y0167784D02*
X0059319Y0167784D01*
X0059319Y0168782D02*
X0050819Y0168782D01*
X0050875Y0169781D02*
X0059319Y0169781D01*
X0059319Y0170779D02*
X0051874Y0170779D01*
X0052872Y0171778D02*
X0059319Y0171778D01*
X0058232Y0172776D02*
X0053871Y0172776D01*
X0054869Y0173775D02*
X0057234Y0173775D01*
X0056319Y0174773D02*
X0055868Y0174773D01*
X0063406Y0172776D02*
X0071819Y0172776D01*
X0071819Y0171778D02*
X0063319Y0171778D01*
X0063319Y0170779D02*
X0071819Y0170779D01*
X0071819Y0169781D02*
X0063319Y0169781D01*
X0063319Y0168782D02*
X0071819Y0168782D01*
X0071819Y0167784D02*
X0063319Y0167784D01*
X0063319Y0166785D02*
X0071819Y0166785D01*
X0071819Y0165787D02*
X0063319Y0165787D01*
X0063912Y0164788D02*
X0071819Y0164788D01*
X0071819Y0163790D02*
X0064911Y0163790D01*
X0065910Y0162791D02*
X0072753Y0162791D01*
X0073751Y0161793D02*
X0066908Y0161793D01*
X0067907Y0160794D02*
X0074750Y0160794D01*
X0075495Y0159796D02*
X0068905Y0159796D01*
X0069904Y0158797D02*
X0075909Y0158797D01*
X0076437Y0157799D02*
X0070902Y0157799D01*
X0071901Y0156800D02*
X0077435Y0156800D01*
X0077204Y0155802D02*
X0072899Y0155802D01*
X0073898Y0154803D02*
X0075797Y0154803D01*
X0075127Y0153805D02*
X0074896Y0153805D01*
X0080407Y0148294D02*
X0081131Y0148594D01*
X0082279Y0149742D01*
X0082408Y0150053D01*
X0083760Y0150053D01*
X0084529Y0150008D01*
X0084579Y0150053D01*
X0084648Y0150053D01*
X0085192Y0150598D01*
X0091483Y0156190D01*
X0092007Y0155972D01*
X0093631Y0155972D01*
X0095131Y0156594D01*
X0096279Y0157742D01*
X0096900Y0159242D01*
X0096900Y0160865D01*
X0096703Y0161341D01*
X0104723Y0153321D01*
X0104319Y0152917D01*
X0104319Y0149189D01*
X0105455Y0148053D01*
X0101955Y0148053D01*
X0099319Y0145417D01*
X0099319Y0141689D01*
X0101955Y0139053D01*
X0105683Y0139053D01*
X0108319Y0141689D01*
X0108319Y0145417D01*
X0107183Y0146553D01*
X0109319Y0146553D01*
X0109319Y0138142D01*
X0109007Y0138013D01*
X0107859Y0136865D01*
X0107238Y0135365D01*
X0107238Y0133742D01*
X0107859Y0132242D01*
X0108262Y0131839D01*
X0107760Y0131631D01*
X0106241Y0130112D01*
X0105419Y0128127D01*
X0105419Y0125979D01*
X0106217Y0124053D01*
X0099648Y0124053D01*
X0097248Y0126453D01*
X0097933Y0126453D01*
X0099991Y0127306D01*
X0101567Y0128881D01*
X0102419Y0130939D01*
X0102419Y0133167D01*
X0101567Y0135225D01*
X0099991Y0136801D01*
X0097933Y0137653D01*
X0095705Y0137653D01*
X0093647Y0136801D01*
X0092774Y0135927D01*
X0092148Y0136553D01*
X0080407Y0148294D01*
X0080887Y0147814D02*
X0095978Y0147814D01*
X0096976Y0146815D02*
X0081886Y0146815D01*
X0082884Y0145817D02*
X0099718Y0145817D01*
X0099319Y0144818D02*
X0083883Y0144818D01*
X0084881Y0143820D02*
X0099319Y0143820D01*
X0099319Y0142821D02*
X0085880Y0142821D01*
X0086878Y0141823D02*
X0099319Y0141823D01*
X0100184Y0140824D02*
X0087877Y0140824D01*
X0088875Y0139826D02*
X0101183Y0139826D01*
X0099921Y0136830D02*
X0107845Y0136830D01*
X0107431Y0135832D02*
X0100960Y0135832D01*
X0101729Y0134833D02*
X0107238Y0134833D01*
X0107238Y0133835D02*
X0102143Y0133835D01*
X0102419Y0132836D02*
X0107613Y0132836D01*
X0108258Y0131838D02*
X0102419Y0131838D01*
X0102377Y0130839D02*
X0106968Y0130839D01*
X0106129Y0129840D02*
X0101964Y0129840D01*
X0101527Y0128842D02*
X0105715Y0128842D01*
X0105419Y0127843D02*
X0100529Y0127843D01*
X0098878Y0126845D02*
X0105419Y0126845D01*
X0105474Y0125846D02*
X0097854Y0125846D01*
X0098853Y0124848D02*
X0105888Y0124848D01*
X0108823Y0137829D02*
X0090872Y0137829D01*
X0089874Y0138827D02*
X0109319Y0138827D01*
X0109319Y0139826D02*
X0106455Y0139826D01*
X0107454Y0140824D02*
X0109319Y0140824D01*
X0109319Y0141823D02*
X0108319Y0141823D01*
X0108319Y0142821D02*
X0109319Y0142821D01*
X0109319Y0143820D02*
X0108319Y0143820D01*
X0108319Y0144818D02*
X0109319Y0144818D01*
X0109319Y0145817D02*
X0107920Y0145817D01*
X0104696Y0148812D02*
X0102659Y0148812D01*
X0103119Y0149272D02*
X0100600Y0146753D01*
X0099119Y0146753D01*
X0099119Y0150753D01*
X0098519Y0150753D01*
X0098519Y0146753D01*
X0097038Y0146753D01*
X0094519Y0149272D01*
X0094519Y0150753D01*
X0098519Y0150753D01*
X0098519Y0151353D01*
X0094519Y0151353D01*
X0094519Y0152834D01*
X0097038Y0155353D01*
X0098519Y0155353D01*
X0098519Y0151353D01*
X0099119Y0151353D01*
X0103119Y0151353D01*
X0103119Y0152834D01*
X0100600Y0155353D01*
X0099119Y0155353D01*
X0099119Y0151353D01*
X0099119Y0150753D01*
X0103119Y0150753D01*
X0103119Y0149272D01*
X0103119Y0149811D02*
X0104319Y0149811D01*
X0104319Y0150809D02*
X0099119Y0150809D01*
X0098519Y0150809D02*
X0085430Y0150809D01*
X0086553Y0151808D02*
X0094519Y0151808D01*
X0094519Y0152806D02*
X0087676Y0152806D01*
X0088800Y0153805D02*
X0095489Y0153805D01*
X0096488Y0154803D02*
X0089923Y0154803D01*
X0091046Y0155802D02*
X0102242Y0155802D01*
X0101244Y0156800D02*
X0095338Y0156800D01*
X0096303Y0157799D02*
X0100245Y0157799D01*
X0099247Y0158797D02*
X0096716Y0158797D01*
X0096900Y0159796D02*
X0098248Y0159796D01*
X0097250Y0160794D02*
X0096900Y0160794D01*
X0098519Y0154803D02*
X0099119Y0154803D01*
X0099119Y0153805D02*
X0098519Y0153805D01*
X0098519Y0152806D02*
X0099119Y0152806D01*
X0099119Y0151808D02*
X0098519Y0151808D01*
X0098519Y0149811D02*
X0099119Y0149811D01*
X0099119Y0148812D02*
X0098519Y0148812D01*
X0098519Y0147814D02*
X0099119Y0147814D01*
X0099119Y0146815D02*
X0098519Y0146815D01*
X0100662Y0146815D02*
X0100717Y0146815D01*
X0101661Y0147814D02*
X0101715Y0147814D01*
X0103119Y0151808D02*
X0104319Y0151808D01*
X0104319Y0152806D02*
X0103119Y0152806D01*
X0102149Y0153805D02*
X0104239Y0153805D01*
X0103241Y0154803D02*
X0101150Y0154803D01*
X0094979Y0148812D02*
X0081349Y0148812D01*
X0082308Y0149811D02*
X0094519Y0149811D01*
X0087272Y0157799D02*
X0085201Y0157799D01*
X0085730Y0158797D02*
X0088396Y0158797D01*
X0088738Y0159796D02*
X0086143Y0159796D01*
X0086219Y0160794D02*
X0088738Y0160794D01*
X0089122Y0161793D02*
X0086219Y0161793D01*
X0085944Y0162791D02*
X0089786Y0162791D01*
X0091175Y0163790D02*
X0085531Y0163790D01*
X0084721Y0164788D02*
X0093256Y0164788D01*
X0092257Y0165787D02*
X0083502Y0165787D01*
X0084203Y0156800D02*
X0086149Y0156800D01*
X0085026Y0155802D02*
X0082252Y0155802D01*
X0081841Y0154803D02*
X0083902Y0154803D01*
X0078453Y0168782D02*
X0075819Y0168782D01*
X0075819Y0169781D02*
X0077455Y0169781D01*
X0076916Y0170779D02*
X0075819Y0170779D01*
X0075819Y0171778D02*
X0076502Y0171778D01*
X0076419Y0172776D02*
X0075819Y0172776D01*
X0075819Y0173775D02*
X0076419Y0173775D01*
X0076687Y0174773D02*
X0075819Y0174773D01*
X0075819Y0175772D02*
X0077100Y0175772D01*
X0077900Y0176771D02*
X0075819Y0176771D01*
X0075819Y0177769D02*
X0079093Y0177769D01*
X0071819Y0177769D02*
X0065319Y0177769D01*
X0065319Y0176771D02*
X0071819Y0176771D01*
X0071819Y0175772D02*
X0065319Y0175772D01*
X0065319Y0174773D02*
X0071819Y0174773D01*
X0071819Y0173775D02*
X0064405Y0173775D01*
X0064969Y0178768D02*
X0071819Y0178768D01*
X0071819Y0179766D02*
X0067896Y0179766D01*
X0068894Y0180765D02*
X0071819Y0180765D01*
X0071819Y0181763D02*
X0069893Y0181763D01*
X0070319Y0182762D02*
X0071819Y0182762D01*
X0071819Y0183760D02*
X0070319Y0183760D01*
X0070319Y0184759D02*
X0071819Y0184759D01*
X0071819Y0185757D02*
X0070319Y0185757D01*
X0069481Y0186756D02*
X0071819Y0186756D01*
X0071819Y0187754D02*
X0068482Y0187754D01*
X0063156Y0187754D02*
X0058199Y0187754D01*
X0059198Y0186756D02*
X0062157Y0186756D01*
X0061194Y0185757D02*
X0060119Y0185757D01*
X0060119Y0184759D02*
X0060196Y0184759D01*
X0058274Y0200735D02*
X0041553Y0200735D01*
X0040776Y0201733D02*
X0057275Y0201733D01*
X0056319Y0202732D02*
X0039635Y0202732D01*
X0031803Y0208723D02*
X0053068Y0208723D01*
X0052070Y0209721D02*
X0031122Y0209721D01*
X0027908Y0215438D02*
X0030435Y0217965D01*
X0031803Y0221266D01*
X0031803Y0224840D01*
X0030435Y0228142D01*
X0027908Y0230669D01*
X0024606Y0232037D01*
X0021032Y0232037D01*
X0017730Y0230669D01*
X0015203Y0228142D01*
X0013836Y0224840D01*
X0013836Y0221266D01*
X0015203Y0217965D01*
X0017730Y0215438D01*
X0021032Y0214070D01*
X0024606Y0214070D01*
X0027908Y0215438D01*
X0030180Y0217709D02*
X0071819Y0217709D01*
X0071819Y0218708D02*
X0030743Y0218708D01*
X0031156Y0219706D02*
X0071819Y0219706D01*
X0071819Y0220705D02*
X0031570Y0220705D01*
X0031803Y0221704D02*
X0071819Y0221704D01*
X0071819Y0222702D02*
X0038011Y0222702D01*
X0037893Y0222653D02*
X0039878Y0223475D01*
X0041397Y0224995D01*
X0042219Y0226979D01*
X0042219Y0229127D01*
X0041397Y0231112D01*
X0039878Y0232631D01*
X0037893Y0233453D01*
X0035745Y0233453D01*
X0033760Y0232631D01*
X0032241Y0231112D01*
X0031419Y0229127D01*
X0031419Y0226979D01*
X0032241Y0224995D01*
X0033760Y0223475D01*
X0035745Y0222653D01*
X0037893Y0222653D01*
X0040103Y0223701D02*
X0071819Y0223701D01*
X0071819Y0224699D02*
X0041102Y0224699D01*
X0041688Y0225698D02*
X0071819Y0225698D01*
X0071819Y0226696D02*
X0042102Y0226696D01*
X0042219Y0227695D02*
X0057849Y0227695D01*
X0056851Y0228693D02*
X0042219Y0228693D01*
X0041985Y0229692D02*
X0055852Y0229692D01*
X0054854Y0230690D02*
X0041572Y0230690D01*
X0040821Y0231689D02*
X0053855Y0231689D01*
X0052857Y0232687D02*
X0039743Y0232687D01*
X0045543Y0237680D02*
X0031803Y0237680D01*
X0031803Y0238678D02*
X0045419Y0238678D01*
X0045419Y0239677D02*
X0031803Y0239677D01*
X0031803Y0240675D02*
X0045646Y0240675D01*
X0046060Y0241674D02*
X0031803Y0241674D01*
X0031803Y0242672D02*
X0046801Y0242672D01*
X0047856Y0243671D02*
X0031803Y0243671D01*
X0031803Y0244669D02*
X0076644Y0244669D01*
X0076419Y0243671D02*
X0073211Y0243671D01*
X0074554Y0242672D02*
X0076419Y0242672D01*
X0076546Y0241674D02*
X0075320Y0241674D01*
X0075760Y0240675D02*
X0076959Y0240675D01*
X0077559Y0239677D02*
X0075985Y0239677D01*
X0076019Y0238678D02*
X0078557Y0238678D01*
X0079117Y0237680D02*
X0075840Y0237680D01*
X0075447Y0236681D02*
X0078119Y0236681D01*
X0077120Y0235683D02*
X0074798Y0235683D01*
X0073652Y0234684D02*
X0076122Y0234684D01*
X0075123Y0233686D02*
X0061971Y0233686D01*
X0059667Y0233686D02*
X0057515Y0233686D01*
X0057552Y0234684D02*
X0056517Y0234684D01*
X0056553Y0235683D02*
X0055518Y0235683D01*
X0055681Y0236681D02*
X0055957Y0236681D01*
X0058514Y0232687D02*
X0074124Y0232687D01*
X0073126Y0231689D02*
X0059512Y0231689D01*
X0064087Y0234684D02*
X0067986Y0234684D01*
X0066840Y0235683D02*
X0065085Y0235683D01*
X0065681Y0236681D02*
X0066192Y0236681D01*
X0066318Y0241674D02*
X0065579Y0241674D01*
X0064837Y0242672D02*
X0067084Y0242672D01*
X0068427Y0243671D02*
X0063783Y0243671D01*
X0057856Y0243671D02*
X0053783Y0243671D01*
X0054837Y0242672D02*
X0056801Y0242672D01*
X0056060Y0241674D02*
X0055579Y0241674D01*
X0049667Y0233686D02*
X0012819Y0233686D01*
X0012819Y0234684D02*
X0014217Y0234684D01*
X0013836Y0235683D02*
X0012819Y0235683D01*
X0012819Y0236681D02*
X0013836Y0236681D01*
X0013836Y0237680D02*
X0012819Y0237680D01*
X0012819Y0238678D02*
X0013836Y0238678D01*
X0013836Y0239677D02*
X0012819Y0239677D01*
X0012819Y0240675D02*
X0013836Y0240675D01*
X0013836Y0241674D02*
X0012819Y0241674D01*
X0012819Y0242672D02*
X0013836Y0242672D01*
X0013836Y0243671D02*
X0012819Y0243671D01*
X0012819Y0244669D02*
X0013836Y0244669D01*
X0013836Y0245668D02*
X0012819Y0245668D01*
X0012819Y0246666D02*
X0013836Y0246666D01*
X0013836Y0247665D02*
X0012819Y0247665D01*
X0012819Y0248663D02*
X0013836Y0248663D01*
X0013836Y0249662D02*
X0012819Y0249662D01*
X0012819Y0232687D02*
X0033895Y0232687D01*
X0032818Y0231689D02*
X0025447Y0231689D01*
X0027857Y0230690D02*
X0032066Y0230690D01*
X0031653Y0229692D02*
X0028885Y0229692D01*
X0029884Y0228693D02*
X0031419Y0228693D01*
X0031419Y0227695D02*
X0030620Y0227695D01*
X0031034Y0226696D02*
X0031536Y0226696D01*
X0031447Y0225698D02*
X0031950Y0225698D01*
X0031803Y0224699D02*
X0032537Y0224699D01*
X0031803Y0223701D02*
X0033535Y0223701D01*
X0031803Y0222702D02*
X0035627Y0222702D01*
X0031421Y0234684D02*
X0047552Y0234684D01*
X0046553Y0235683D02*
X0031803Y0235683D01*
X0031803Y0236681D02*
X0045957Y0236681D01*
X0052399Y0214714D02*
X0026161Y0214714D01*
X0019477Y0214714D02*
X0012819Y0214714D01*
X0012819Y0215712D02*
X0017455Y0215712D01*
X0016457Y0216711D02*
X0012819Y0216711D01*
X0012819Y0217709D02*
X0015458Y0217709D01*
X0014895Y0218708D02*
X0012819Y0218708D01*
X0012819Y0219706D02*
X0014482Y0219706D01*
X0014068Y0220705D02*
X0012819Y0220705D01*
X0012819Y0221704D02*
X0013836Y0221704D01*
X0013836Y0222702D02*
X0012819Y0222702D01*
X0012819Y0223701D02*
X0013836Y0223701D01*
X0013836Y0224699D02*
X0012819Y0224699D01*
X0012819Y0225698D02*
X0014191Y0225698D01*
X0014604Y0226696D02*
X0012819Y0226696D01*
X0012819Y0227695D02*
X0015018Y0227695D01*
X0015754Y0228693D02*
X0012819Y0228693D01*
X0012819Y0229692D02*
X0016753Y0229692D01*
X0017781Y0230690D02*
X0012819Y0230690D01*
X0012819Y0231689D02*
X0020192Y0231689D01*
X0031803Y0245668D02*
X0077057Y0245668D01*
X0077795Y0246666D02*
X0031803Y0246666D01*
X0031803Y0247665D02*
X0078841Y0247665D01*
X0084797Y0247665D02*
X0131836Y0247665D01*
X0131836Y0248663D02*
X0031803Y0248663D01*
X0031803Y0249662D02*
X0131836Y0249662D01*
X0131836Y0246666D02*
X0085843Y0246666D01*
X0086581Y0245668D02*
X0131836Y0245668D01*
X0131836Y0244669D02*
X0086995Y0244669D01*
X0087219Y0243671D02*
X0093027Y0243671D01*
X0091493Y0242672D02*
X0087219Y0242672D01*
X0087093Y0241674D02*
X0090619Y0241674D01*
X0090205Y0240675D02*
X0086679Y0240675D01*
X0086079Y0239677D02*
X0089945Y0239677D01*
X0092428Y0234684D02*
X0081778Y0234684D01*
X0080780Y0233686D02*
X0107623Y0233686D01*
X0108176Y0234684D02*
X0097463Y0234684D01*
X0098645Y0235683D02*
X0106993Y0235683D01*
X0106264Y0236681D02*
X0099374Y0236681D01*
X0099788Y0237680D02*
X0105850Y0237680D01*
X0105693Y0238678D02*
X0099945Y0238678D01*
X0099945Y0239677D02*
X0105693Y0239677D01*
X0105953Y0240675D02*
X0099685Y0240675D01*
X0099272Y0241674D02*
X0106367Y0241674D01*
X0107241Y0242672D02*
X0098397Y0242672D01*
X0096863Y0243671D02*
X0108775Y0243671D01*
X0112611Y0243671D02*
X0131836Y0243671D01*
X0131836Y0242672D02*
X0114145Y0242672D01*
X0115020Y0241674D02*
X0131836Y0241674D01*
X0131836Y0240675D02*
X0115433Y0240675D01*
X0115693Y0239677D02*
X0131836Y0239677D01*
X0131836Y0238678D02*
X0115693Y0238678D01*
X0115536Y0237680D02*
X0131617Y0237680D01*
X0130619Y0236681D02*
X0115122Y0236681D01*
X0106624Y0232687D02*
X0079781Y0232687D01*
X0078783Y0231689D02*
X0105626Y0231689D01*
X0104627Y0230690D02*
X0077784Y0230690D01*
X0076786Y0229692D02*
X0103629Y0229692D01*
X0102630Y0228693D02*
X0075819Y0228693D01*
X0075819Y0227695D02*
X0101632Y0227695D01*
X0100633Y0226696D02*
X0075819Y0226696D01*
X0075819Y0225698D02*
X0099635Y0225698D01*
X0098636Y0224699D02*
X0075819Y0224699D01*
X0075819Y0223701D02*
X0097638Y0223701D01*
X0093696Y0222702D02*
X0075819Y0222702D01*
X0075819Y0221704D02*
X0092792Y0221704D01*
X0092379Y0220705D02*
X0075819Y0220705D01*
X0075819Y0219706D02*
X0092238Y0219706D01*
X0092252Y0218708D02*
X0075819Y0218708D01*
X0075819Y0217709D02*
X0078949Y0217709D01*
X0077840Y0216711D02*
X0075819Y0216711D01*
X0075819Y0215712D02*
X0077076Y0215712D01*
X0076662Y0214714D02*
X0075819Y0214714D01*
X0075819Y0213715D02*
X0076419Y0213715D01*
X0076419Y0212717D02*
X0075819Y0212717D01*
X0075819Y0211718D02*
X0076527Y0211718D01*
X0076941Y0210720D02*
X0075819Y0210720D01*
X0075819Y0209721D02*
X0077514Y0209721D01*
X0078513Y0208723D02*
X0075819Y0208723D01*
X0084689Y0217709D02*
X0092666Y0217709D01*
X0071119Y0234684D02*
X0070519Y0234684D01*
X0070519Y0235683D02*
X0071119Y0235683D01*
X0071119Y0236681D02*
X0070519Y0236681D01*
X0070519Y0237680D02*
X0071119Y0237680D01*
X0071119Y0238678D02*
X0070519Y0238678D01*
X0070519Y0239677D02*
X0071119Y0239677D01*
X0071119Y0240675D02*
X0070519Y0240675D01*
X0070519Y0241674D02*
X0071119Y0241674D01*
X0071119Y0242672D02*
X0070519Y0242672D01*
X0070519Y0243671D02*
X0071119Y0243671D01*
X0051519Y0213715D02*
X0012819Y0213715D01*
X0012819Y0212717D02*
X0051519Y0212717D01*
X0051519Y0211718D02*
X0012819Y0211718D01*
X0012819Y0210720D02*
X0051519Y0210720D01*
X0020343Y0189751D02*
X0012819Y0189751D01*
X0012819Y0188753D02*
X0017932Y0188753D01*
X0016815Y0187754D02*
X0012819Y0187754D01*
X0012819Y0186756D02*
X0015817Y0186756D01*
X0015044Y0185757D02*
X0012819Y0185757D01*
X0012819Y0184759D02*
X0014630Y0184759D01*
X0014217Y0183760D02*
X0012819Y0183760D01*
X0012819Y0182762D02*
X0013836Y0182762D01*
X0013836Y0181763D02*
X0012819Y0181763D01*
X0012819Y0180765D02*
X0013836Y0180765D01*
X0013836Y0179766D02*
X0012819Y0179766D01*
X0012819Y0178768D02*
X0014042Y0178768D01*
X0014456Y0177769D02*
X0012819Y0177769D01*
X0012819Y0176771D02*
X0014869Y0176771D01*
X0015396Y0175772D02*
X0012819Y0175772D01*
X0012819Y0174773D02*
X0016394Y0174773D01*
X0017393Y0173775D02*
X0012819Y0173775D01*
X0012819Y0172776D02*
X0016714Y0172776D01*
X0015715Y0171778D02*
X0012819Y0171778D01*
X0012819Y0170779D02*
X0014717Y0170779D01*
X0013718Y0169781D02*
X0012819Y0169781D01*
X0015819Y0147814D02*
X0020494Y0147814D01*
X0018083Y0146815D02*
X0015819Y0146815D01*
X0015819Y0145817D02*
X0016878Y0145817D01*
X0015879Y0144818D02*
X0015819Y0144818D01*
X0015819Y0132836D02*
X0016332Y0132836D01*
X0015819Y0131838D02*
X0017330Y0131838D01*
X0015819Y0130839D02*
X0019175Y0130839D01*
X0050872Y0137829D02*
X0059319Y0137829D01*
X0059319Y0138827D02*
X0050819Y0138827D01*
X0050819Y0139826D02*
X0059319Y0139826D01*
X0059319Y0136830D02*
X0051871Y0136830D01*
X0052869Y0135832D02*
X0059319Y0135832D01*
X0058962Y0134833D02*
X0053868Y0134833D01*
X0054866Y0133835D02*
X0058126Y0133835D01*
X0057713Y0132836D02*
X0055865Y0132836D01*
X0056863Y0131838D02*
X0057419Y0131838D01*
X0057184Y0140824D02*
X0050819Y0140824D01*
X0050819Y0141823D02*
X0056186Y0141823D01*
X0055319Y0142821D02*
X0050819Y0142821D01*
X0050819Y0143820D02*
X0055319Y0143820D01*
X0055319Y0144818D02*
X0050819Y0144818D01*
X0050819Y0145817D02*
X0055319Y0145817D01*
X0055717Y0146815D02*
X0050819Y0146815D01*
X0050819Y0147814D02*
X0052978Y0147814D01*
X0051979Y0148812D02*
X0050819Y0148812D01*
X0050819Y0149811D02*
X0050981Y0149811D01*
X0054519Y0149811D02*
X0055119Y0149811D01*
X0055119Y0150809D02*
X0054519Y0150809D01*
X0055119Y0151808D02*
X0060319Y0151808D01*
X0060319Y0152806D02*
X0059119Y0152806D01*
X0059119Y0153805D02*
X0060319Y0153805D01*
X0061205Y0154803D02*
X0058150Y0154803D01*
X0057152Y0155802D02*
X0062204Y0155802D01*
X0065245Y0157799D02*
X0050819Y0157799D01*
X0050819Y0158797D02*
X0064247Y0158797D01*
X0066244Y0156800D02*
X0050819Y0156800D01*
X0050819Y0155802D02*
X0052486Y0155802D01*
X0051488Y0154803D02*
X0050819Y0154803D01*
X0054519Y0154803D02*
X0055119Y0154803D01*
X0055119Y0153805D02*
X0054519Y0153805D01*
X0054519Y0152806D02*
X0055119Y0152806D01*
X0055119Y0155802D02*
X0054519Y0155802D01*
X0054519Y0148812D02*
X0055119Y0148812D01*
X0055119Y0147814D02*
X0054519Y0147814D01*
X0056661Y0147814D02*
X0056715Y0147814D01*
X0057659Y0148812D02*
X0057714Y0148812D01*
X0058658Y0149811D02*
X0060698Y0149811D01*
X0060319Y0150809D02*
X0059119Y0150809D01*
X0091871Y0136830D02*
X0093718Y0136830D01*
X0074375Y0057281D02*
X0074723Y0056846D01*
X0076819Y0053912D01*
X0076819Y0052690D01*
X0076241Y0052112D01*
X0075419Y0050127D01*
X0075419Y0047979D01*
X0076241Y0045995D01*
X0077760Y0044475D01*
X0079745Y0043653D01*
X0081893Y0043653D01*
X0083878Y0044475D01*
X0085397Y0045995D01*
X0086219Y0047979D01*
X0086219Y0050127D01*
X0085397Y0052112D01*
X0083878Y0053631D01*
X0083730Y0053693D01*
X0084779Y0054742D01*
X0084908Y0055053D01*
X0085491Y0055053D01*
X0092419Y0048125D01*
X0092419Y0046979D01*
X0093241Y0044995D01*
X0094760Y0043475D01*
X0096745Y0042653D01*
X0098893Y0042653D01*
X0099319Y0042830D01*
X0099319Y0036190D01*
X0097878Y0037631D01*
X0095893Y0038453D01*
X0093745Y0038453D01*
X0091760Y0037631D01*
X0090241Y0036112D01*
X0089419Y0034127D01*
X0089419Y0031979D01*
X0090241Y0029995D01*
X0091760Y0028475D01*
X0093745Y0027653D01*
X0095893Y0027653D01*
X0096819Y0028037D01*
X0096819Y0021070D01*
X0095760Y0020631D01*
X0094241Y0019112D01*
X0093710Y0017829D01*
X0093638Y0018049D01*
X0093267Y0018779D01*
X0092785Y0019441D01*
X0092207Y0020020D01*
X0091545Y0020501D01*
X0090815Y0020872D01*
X0090037Y0021125D01*
X0089319Y0021239D01*
X0089319Y0016553D01*
X0088319Y0016553D01*
X0088319Y0015553D01*
X0089319Y0015553D01*
X0089319Y0010868D01*
X0090037Y0010981D01*
X0090815Y0011234D01*
X0091545Y0011606D01*
X0092207Y0012087D01*
X0092785Y0012666D01*
X0093267Y0013328D01*
X0093638Y0014057D01*
X0093710Y0014278D01*
X0094241Y0012995D01*
X0095760Y0011475D01*
X0097745Y0010653D01*
X0099893Y0010653D01*
X0101878Y0011475D01*
X0103397Y0012995D01*
X0104219Y0014979D01*
X0104219Y0017127D01*
X0103397Y0019112D01*
X0101878Y0020631D01*
X0100819Y0021070D01*
X0100819Y0028725D01*
X0102148Y0030053D01*
X0103319Y0031225D01*
X0103319Y0043725D01*
X0104648Y0045053D01*
X0105464Y0045870D01*
X0106241Y0043995D01*
X0107760Y0042475D01*
X0108779Y0042053D01*
X0107760Y0041631D01*
X0106241Y0040112D01*
X0105419Y0038127D01*
X0105419Y0035979D01*
X0106241Y0033995D01*
X0107760Y0032475D01*
X0108779Y0032053D01*
X0107760Y0031631D01*
X0106241Y0030112D01*
X0105419Y0028127D01*
X0105419Y0025979D01*
X0106241Y0023995D01*
X0107760Y0022475D01*
X0108779Y0022053D01*
X0107760Y0021631D01*
X0106241Y0020112D01*
X0105419Y0018127D01*
X0105419Y0015979D01*
X0106241Y0013995D01*
X0107760Y0012475D01*
X0109745Y0011653D01*
X0110591Y0011653D01*
X0107991Y0009053D01*
X0047148Y0009053D01*
X0031469Y0024732D01*
X0031803Y0025066D01*
X0031803Y0027054D01*
X0032241Y0025995D01*
X0031803Y0025995D01*
X0032241Y0025995D02*
X0033760Y0024475D01*
X0035745Y0023653D01*
X0037893Y0023653D01*
X0039878Y0024475D01*
X0041397Y0025995D01*
X0045722Y0025995D01*
X0045747Y0025836D02*
X0046000Y0025057D01*
X0046372Y0024328D01*
X0046853Y0023666D01*
X0047432Y0023087D01*
X0048094Y0022606D01*
X0048823Y0022234D01*
X0049043Y0022163D01*
X0047760Y0021631D01*
X0046241Y0020112D01*
X0045419Y0018127D01*
X0045419Y0015979D01*
X0046241Y0013995D01*
X0047760Y0012475D01*
X0049745Y0011653D01*
X0051893Y0011653D01*
X0053878Y0012475D01*
X0055397Y0013995D01*
X0056219Y0015979D01*
X0056219Y0018127D01*
X0055397Y0020112D01*
X0053878Y0021631D01*
X0052595Y0022163D01*
X0052815Y0022234D01*
X0053545Y0022606D01*
X0054207Y0023087D01*
X0054785Y0023666D01*
X0055267Y0024328D01*
X0055638Y0025057D01*
X0055891Y0025836D01*
X0056005Y0026553D01*
X0051319Y0026553D01*
X0051319Y0027553D01*
X0056005Y0027553D01*
X0055891Y0028271D01*
X0055638Y0029049D01*
X0055267Y0029779D01*
X0054785Y0030441D01*
X0054207Y0031020D01*
X0053545Y0031501D01*
X0052815Y0031872D01*
X0052595Y0031944D01*
X0053878Y0032475D01*
X0055397Y0033995D01*
X0056219Y0035979D01*
X0056219Y0038127D01*
X0055421Y0040053D01*
X0057148Y0040053D01*
X0074375Y0057281D01*
X0074641Y0056949D02*
X0074043Y0056949D01*
X0073045Y0055951D02*
X0075363Y0055951D01*
X0076076Y0054952D02*
X0072046Y0054952D01*
X0071048Y0053954D02*
X0076790Y0053954D01*
X0076819Y0052955D02*
X0070049Y0052955D01*
X0069051Y0051957D02*
X0076177Y0051957D01*
X0075763Y0050958D02*
X0068052Y0050958D01*
X0067054Y0049960D02*
X0075419Y0049960D01*
X0075419Y0048961D02*
X0066055Y0048961D01*
X0065057Y0047963D02*
X0075426Y0047963D01*
X0075840Y0046964D02*
X0064058Y0046964D01*
X0063060Y0045966D02*
X0076270Y0045966D01*
X0077269Y0044967D02*
X0062061Y0044967D01*
X0061063Y0043969D02*
X0078984Y0043969D01*
X0082654Y0043969D02*
X0094267Y0043969D01*
X0093269Y0044967D02*
X0084370Y0044967D01*
X0085368Y0045966D02*
X0092839Y0045966D01*
X0092425Y0046964D02*
X0085799Y0046964D01*
X0086212Y0047963D02*
X0092419Y0047963D01*
X0091583Y0048961D02*
X0086219Y0048961D01*
X0086219Y0049960D02*
X0090584Y0049960D01*
X0089586Y0050958D02*
X0085875Y0050958D01*
X0085461Y0051957D02*
X0088587Y0051957D01*
X0087589Y0052955D02*
X0084554Y0052955D01*
X0083991Y0053954D02*
X0086590Y0053954D01*
X0085592Y0054952D02*
X0084866Y0054952D01*
X0095981Y0042970D02*
X0060064Y0042970D01*
X0059066Y0041971D02*
X0099319Y0041971D01*
X0099319Y0040973D02*
X0058067Y0040973D01*
X0055868Y0038976D02*
X0099319Y0038976D01*
X0099319Y0039974D02*
X0055454Y0039974D01*
X0056219Y0037977D02*
X0063146Y0037977D01*
X0062823Y0037872D02*
X0062094Y0037501D01*
X0061432Y0037020D01*
X0060853Y0036441D01*
X0060372Y0035779D01*
X0060000Y0035049D01*
X0059747Y0034271D01*
X0059619Y0033463D01*
X0059619Y0033439D01*
X0064433Y0033439D01*
X0064433Y0032668D01*
X0059619Y0032668D01*
X0059619Y0032644D01*
X0059747Y0031836D01*
X0060000Y0031057D01*
X0060372Y0030328D01*
X0060853Y0029666D01*
X0061432Y0029087D01*
X0062094Y0028606D01*
X0062823Y0028234D01*
X0063601Y0027981D01*
X0064410Y0027853D01*
X0064433Y0027853D01*
X0064433Y0032667D01*
X0065205Y0032667D01*
X0065205Y0027853D01*
X0065228Y0027853D01*
X0066037Y0027981D01*
X0066815Y0028234D01*
X0067545Y0028606D01*
X0068207Y0029087D01*
X0068785Y0029666D01*
X0069267Y0030328D01*
X0069638Y0031057D01*
X0069891Y0031836D01*
X0070019Y0032644D01*
X0070019Y0032668D01*
X0065205Y0032668D01*
X0065205Y0033439D01*
X0070019Y0033439D01*
X0070019Y0033463D01*
X0069891Y0034271D01*
X0069638Y0035049D01*
X0069267Y0035779D01*
X0068785Y0036441D01*
X0068207Y0037020D01*
X0067545Y0037501D01*
X0066815Y0037872D01*
X0066037Y0038125D01*
X0065228Y0038253D01*
X0065205Y0038253D01*
X0065205Y0033439D01*
X0064433Y0033439D01*
X0064433Y0038253D01*
X0064410Y0038253D01*
X0063601Y0038125D01*
X0062823Y0037872D01*
X0064433Y0037977D02*
X0065205Y0037977D01*
X0065205Y0036979D02*
X0064433Y0036979D01*
X0064433Y0035980D02*
X0065205Y0035980D01*
X0065205Y0034982D02*
X0064433Y0034982D01*
X0064433Y0033983D02*
X0065205Y0033983D01*
X0065205Y0032985D02*
X0089419Y0032985D01*
X0089419Y0033983D02*
X0069937Y0033983D01*
X0069660Y0034982D02*
X0089773Y0034982D01*
X0090187Y0035980D02*
X0069120Y0035980D01*
X0068247Y0036979D02*
X0091108Y0036979D01*
X0092596Y0037977D02*
X0066492Y0037977D01*
X0064433Y0032985D02*
X0054387Y0032985D01*
X0055386Y0033983D02*
X0059702Y0033983D01*
X0059978Y0034982D02*
X0055806Y0034982D01*
X0056219Y0035980D02*
X0060518Y0035980D01*
X0061391Y0036979D02*
X0056219Y0036979D01*
X0059723Y0031986D02*
X0052697Y0031986D01*
X0054238Y0030988D02*
X0060035Y0030988D01*
X0060618Y0029989D02*
X0055114Y0029989D01*
X0055657Y0028991D02*
X0061564Y0028991D01*
X0063568Y0027992D02*
X0055935Y0027992D01*
X0055916Y0025995D02*
X0096819Y0025995D01*
X0096819Y0024997D02*
X0055607Y0024997D01*
X0055027Y0023998D02*
X0096819Y0023998D01*
X0096819Y0023000D02*
X0054087Y0023000D01*
X0052985Y0022001D02*
X0096819Y0022001D01*
X0096657Y0021003D02*
X0090414Y0021003D01*
X0089319Y0021003D02*
X0088319Y0021003D01*
X0088319Y0021239D02*
X0087601Y0021125D01*
X0086823Y0020872D01*
X0086094Y0020501D01*
X0085432Y0020020D01*
X0084853Y0019441D01*
X0084372Y0018779D01*
X0084000Y0018049D01*
X0083747Y0017271D01*
X0083633Y0016553D01*
X0088319Y0016553D01*
X0088319Y0021239D01*
X0087224Y0021003D02*
X0077981Y0021003D01*
X0078878Y0020631D02*
X0076893Y0021453D01*
X0074745Y0021453D01*
X0072760Y0020631D01*
X0071241Y0019112D01*
X0070710Y0017829D01*
X0070638Y0018049D01*
X0070267Y0018779D01*
X0069785Y0019441D01*
X0069207Y0020020D01*
X0068545Y0020501D01*
X0067815Y0020872D01*
X0067037Y0021125D01*
X0066319Y0021239D01*
X0066319Y0016553D01*
X0065319Y0016553D01*
X0065319Y0015553D01*
X0066319Y0015553D01*
X0066319Y0010868D01*
X0067037Y0010981D01*
X0067815Y0011234D01*
X0068545Y0011606D01*
X0069207Y0012087D01*
X0069785Y0012666D01*
X0070267Y0013328D01*
X0070638Y0014057D01*
X0070710Y0014278D01*
X0071241Y0012995D01*
X0072760Y0011475D01*
X0074745Y0010653D01*
X0076893Y0010653D01*
X0078878Y0011475D01*
X0080397Y0012995D01*
X0081219Y0014979D01*
X0081219Y0017127D01*
X0080397Y0019112D01*
X0078878Y0020631D01*
X0079505Y0020004D02*
X0085416Y0020004D01*
X0084537Y0019006D02*
X0080441Y0019006D01*
X0080855Y0018007D02*
X0083986Y0018007D01*
X0083706Y0017009D02*
X0081219Y0017009D01*
X0081219Y0016010D02*
X0088319Y0016010D01*
X0088319Y0015553D02*
X0083633Y0015553D01*
X0083747Y0014836D01*
X0084000Y0014057D01*
X0084372Y0013328D01*
X0084853Y0012666D01*
X0085432Y0012087D01*
X0086094Y0011606D01*
X0086823Y0011234D01*
X0087601Y0010981D01*
X0088319Y0010868D01*
X0088319Y0015553D01*
X0088319Y0015012D02*
X0089319Y0015012D01*
X0089319Y0014013D02*
X0088319Y0014013D01*
X0088319Y0013015D02*
X0089319Y0013015D01*
X0089319Y0012016D02*
X0088319Y0012016D01*
X0088319Y0011018D02*
X0089319Y0011018D01*
X0090148Y0011018D02*
X0096866Y0011018D01*
X0095220Y0012016D02*
X0092109Y0012016D01*
X0093039Y0013015D02*
X0094233Y0013015D01*
X0093819Y0014013D02*
X0093616Y0014013D01*
X0093652Y0018007D02*
X0093784Y0018007D01*
X0094197Y0019006D02*
X0093102Y0019006D01*
X0092222Y0020004D02*
X0095133Y0020004D01*
X0100981Y0021003D02*
X0107132Y0021003D01*
X0106196Y0020004D02*
X0102505Y0020004D01*
X0103441Y0019006D02*
X0105783Y0019006D01*
X0105419Y0018007D02*
X0103855Y0018007D01*
X0104219Y0017009D02*
X0105419Y0017009D01*
X0105419Y0016010D02*
X0104219Y0016010D01*
X0104219Y0015012D02*
X0105820Y0015012D01*
X0106233Y0014013D02*
X0103819Y0014013D01*
X0103405Y0013015D02*
X0107221Y0013015D01*
X0108869Y0012016D02*
X0102419Y0012016D01*
X0100773Y0011018D02*
X0109955Y0011018D01*
X0108956Y0010019D02*
X0046182Y0010019D01*
X0045183Y0011018D02*
X0064490Y0011018D01*
X0064601Y0010981D02*
X0063823Y0011234D01*
X0063094Y0011606D01*
X0062432Y0012087D01*
X0061853Y0012666D01*
X0061372Y0013328D01*
X0061000Y0014057D01*
X0060747Y0014836D01*
X0060633Y0015553D01*
X0065319Y0015553D01*
X0065319Y0010868D01*
X0064601Y0010981D01*
X0065319Y0011018D02*
X0066319Y0011018D01*
X0067148Y0011018D02*
X0073866Y0011018D01*
X0072220Y0012016D02*
X0069109Y0012016D01*
X0070039Y0013015D02*
X0071233Y0013015D01*
X0070819Y0014013D02*
X0070616Y0014013D01*
X0070652Y0018007D02*
X0070784Y0018007D01*
X0071197Y0019006D02*
X0070102Y0019006D01*
X0069222Y0020004D02*
X0072133Y0020004D01*
X0073657Y0021003D02*
X0067414Y0021003D01*
X0066319Y0021003D02*
X0065319Y0021003D01*
X0065319Y0021239D02*
X0064601Y0021125D01*
X0063823Y0020872D01*
X0063094Y0020501D01*
X0062432Y0020020D01*
X0061853Y0019441D01*
X0061372Y0018779D01*
X0061000Y0018049D01*
X0060747Y0017271D01*
X0060633Y0016553D01*
X0065319Y0016553D01*
X0065319Y0021239D01*
X0064224Y0021003D02*
X0054506Y0021003D01*
X0055442Y0020004D02*
X0062416Y0020004D01*
X0061537Y0019006D02*
X0055855Y0019006D01*
X0056219Y0018007D02*
X0060986Y0018007D01*
X0060706Y0017009D02*
X0056219Y0017009D01*
X0056219Y0016010D02*
X0065319Y0016010D01*
X0065319Y0015012D02*
X0066319Y0015012D01*
X0066319Y0014013D02*
X0065319Y0014013D01*
X0065319Y0013015D02*
X0066319Y0013015D01*
X0066319Y0012016D02*
X0065319Y0012016D01*
X0062529Y0012016D02*
X0052769Y0012016D01*
X0054417Y0013015D02*
X0061599Y0013015D01*
X0061023Y0014013D02*
X0055405Y0014013D01*
X0055818Y0015012D02*
X0060719Y0015012D01*
X0065319Y0017009D02*
X0066319Y0017009D01*
X0066319Y0018007D02*
X0065319Y0018007D01*
X0065319Y0019006D02*
X0066319Y0019006D01*
X0066319Y0020004D02*
X0065319Y0020004D01*
X0065205Y0027992D02*
X0064433Y0027992D01*
X0064433Y0028991D02*
X0065205Y0028991D01*
X0065205Y0029989D02*
X0064433Y0029989D01*
X0064433Y0030988D02*
X0065205Y0030988D01*
X0065205Y0031986D02*
X0064433Y0031986D01*
X0066070Y0027992D02*
X0092927Y0027992D01*
X0091245Y0028991D02*
X0068074Y0028991D01*
X0069021Y0029989D02*
X0090246Y0029989D01*
X0089830Y0030988D02*
X0069603Y0030988D01*
X0069915Y0031986D02*
X0089419Y0031986D01*
X0096712Y0027992D02*
X0096819Y0027992D01*
X0096819Y0026994D02*
X0051319Y0026994D01*
X0050319Y0026994D02*
X0041811Y0026994D01*
X0042219Y0027979D02*
X0042219Y0030127D01*
X0041397Y0032112D01*
X0039878Y0033631D01*
X0037893Y0034453D01*
X0035745Y0034453D01*
X0033760Y0033631D01*
X0032241Y0032112D01*
X0031803Y0031053D01*
X0031803Y0041041D01*
X0030807Y0042037D01*
X0015819Y0042037D01*
X0015819Y0049349D01*
X0017730Y0047438D01*
X0021032Y0046070D01*
X0024606Y0046070D01*
X0027908Y0047438D01*
X0028007Y0047537D01*
X0031819Y0043725D01*
X0032991Y0042553D01*
X0045491Y0042553D01*
X0046819Y0041225D01*
X0047087Y0040958D01*
X0046241Y0040112D01*
X0045419Y0038127D01*
X0045419Y0035979D01*
X0046241Y0033995D01*
X0047760Y0032475D01*
X0049043Y0031944D01*
X0048823Y0031872D01*
X0048094Y0031501D01*
X0047432Y0031020D01*
X0046853Y0030441D01*
X0046372Y0029779D01*
X0046000Y0029049D01*
X0045747Y0028271D01*
X0045633Y0027553D01*
X0050319Y0027553D01*
X0050319Y0026553D01*
X0045633Y0026553D01*
X0045747Y0025836D01*
X0046031Y0024997D02*
X0040399Y0024997D01*
X0041397Y0025995D02*
X0042219Y0027979D01*
X0042219Y0027992D02*
X0045703Y0027992D01*
X0045981Y0028991D02*
X0042219Y0028991D01*
X0042219Y0029989D02*
X0046525Y0029989D01*
X0047400Y0030988D02*
X0041863Y0030988D01*
X0041449Y0031986D02*
X0048941Y0031986D01*
X0047251Y0032985D02*
X0040524Y0032985D01*
X0039028Y0033983D02*
X0046252Y0033983D01*
X0045832Y0034982D02*
X0031803Y0034982D01*
X0031803Y0035980D02*
X0045419Y0035980D01*
X0045419Y0036979D02*
X0031803Y0036979D01*
X0031803Y0037977D02*
X0045419Y0037977D01*
X0045771Y0038976D02*
X0031803Y0038976D01*
X0031803Y0039974D02*
X0046184Y0039974D01*
X0047071Y0040973D02*
X0031803Y0040973D01*
X0030872Y0041971D02*
X0046073Y0041971D01*
X0034610Y0033983D02*
X0031803Y0033983D01*
X0031803Y0032985D02*
X0033114Y0032985D01*
X0032189Y0031986D02*
X0031803Y0031986D01*
X0031803Y0026994D02*
X0031827Y0026994D01*
X0031734Y0024997D02*
X0033239Y0024997D01*
X0032203Y0023998D02*
X0034912Y0023998D01*
X0033201Y0023000D02*
X0047552Y0023000D01*
X0046611Y0023998D02*
X0038726Y0023998D01*
X0035198Y0021003D02*
X0047132Y0021003D01*
X0046196Y0020004D02*
X0036197Y0020004D01*
X0037195Y0019006D02*
X0045783Y0019006D01*
X0045419Y0018007D02*
X0038194Y0018007D01*
X0039192Y0017009D02*
X0045419Y0017009D01*
X0045419Y0016010D02*
X0040191Y0016010D01*
X0041189Y0015012D02*
X0045820Y0015012D01*
X0046233Y0014013D02*
X0042188Y0014013D01*
X0043186Y0013015D02*
X0047221Y0013015D01*
X0048869Y0012016D02*
X0044185Y0012016D01*
X0048654Y0022001D02*
X0034200Y0022001D01*
X0032574Y0042970D02*
X0015819Y0042970D01*
X0015819Y0043969D02*
X0031576Y0043969D01*
X0030577Y0044967D02*
X0015819Y0044967D01*
X0015819Y0045966D02*
X0029579Y0045966D01*
X0028580Y0046964D02*
X0026765Y0046964D01*
X0018874Y0046964D02*
X0015819Y0046964D01*
X0015819Y0047963D02*
X0017205Y0047963D01*
X0016207Y0048961D02*
X0015819Y0048961D01*
X0077773Y0011018D02*
X0087490Y0011018D01*
X0085529Y0012016D02*
X0079419Y0012016D01*
X0080405Y0013015D02*
X0084599Y0013015D01*
X0084023Y0014013D02*
X0080819Y0014013D01*
X0081219Y0015012D02*
X0083719Y0015012D01*
X0088319Y0017009D02*
X0089319Y0017009D01*
X0089319Y0018007D02*
X0088319Y0018007D01*
X0088319Y0019006D02*
X0089319Y0019006D01*
X0089319Y0020004D02*
X0088319Y0020004D01*
X0098530Y0036979D02*
X0099319Y0036979D01*
X0099319Y0037977D02*
X0097042Y0037977D01*
X0103082Y0030988D02*
X0107117Y0030988D01*
X0106190Y0029989D02*
X0102084Y0029989D01*
X0101085Y0028991D02*
X0105777Y0028991D01*
X0105419Y0027992D02*
X0100819Y0027992D01*
X0100819Y0026994D02*
X0105419Y0026994D01*
X0105419Y0025995D02*
X0100819Y0025995D01*
X0100819Y0024997D02*
X0105826Y0024997D01*
X0106240Y0023998D02*
X0100819Y0023998D01*
X0100819Y0023000D02*
X0107236Y0023000D01*
X0108654Y0022001D02*
X0100819Y0022001D01*
X0103319Y0031986D02*
X0108618Y0031986D01*
X0107251Y0032985D02*
X0103319Y0032985D01*
X0103319Y0033983D02*
X0106252Y0033983D01*
X0105832Y0034982D02*
X0103319Y0034982D01*
X0103319Y0035980D02*
X0105419Y0035980D01*
X0105419Y0036979D02*
X0103319Y0036979D01*
X0103319Y0037977D02*
X0105419Y0037977D01*
X0105771Y0038976D02*
X0103319Y0038976D01*
X0103319Y0039974D02*
X0106184Y0039974D01*
X0107102Y0040973D02*
X0103319Y0040973D01*
X0103319Y0041971D02*
X0108582Y0041971D01*
X0107266Y0042970D02*
X0103319Y0042970D01*
X0103563Y0043969D02*
X0106267Y0043969D01*
X0105838Y0044967D02*
X0104561Y0044967D01*
X0014155Y0192747D02*
X0012819Y0192747D01*
X0012819Y0193745D02*
X0013836Y0193745D01*
X0013836Y0194744D02*
X0012819Y0194744D01*
X0012819Y0195742D02*
X0013836Y0195742D01*
X0013836Y0196741D02*
X0012819Y0196741D01*
X0012819Y0197739D02*
X0013836Y0197739D01*
X0013836Y0198738D02*
X0012819Y0198738D01*
X0012819Y0199736D02*
X0013836Y0199736D01*
X0013836Y0200735D02*
X0012819Y0200735D01*
X0012819Y0201733D02*
X0013836Y0201733D01*
X0013836Y0202732D02*
X0012819Y0202732D01*
X0012819Y0203730D02*
X0013836Y0203730D01*
X0013836Y0204729D02*
X0012819Y0204729D01*
X0012819Y0205727D02*
X0013836Y0205727D01*
X0013836Y0206726D02*
X0012819Y0206726D01*
X0012819Y0207724D02*
X0013836Y0207724D01*
X0013836Y0208723D02*
X0012819Y0208723D01*
X0012819Y0209721D02*
X0014516Y0209721D01*
X0133319Y0233686D02*
X0151520Y0233686D01*
X0151520Y0234684D02*
X0149421Y0234684D01*
X0149803Y0235683D02*
X0151520Y0235683D01*
X0151520Y0236681D02*
X0149803Y0236681D01*
X0149803Y0237680D02*
X0151520Y0237680D01*
X0151520Y0238678D02*
X0149803Y0238678D01*
X0149803Y0239677D02*
X0151520Y0239677D01*
X0151520Y0240675D02*
X0149803Y0240675D01*
X0149803Y0241674D02*
X0151520Y0241674D01*
X0151520Y0242672D02*
X0149803Y0242672D01*
X0149803Y0243671D02*
X0151520Y0243671D01*
X0151520Y0244669D02*
X0149803Y0244669D01*
X0149803Y0245668D02*
X0151520Y0245668D01*
X0151520Y0246666D02*
X0149803Y0246666D01*
X0149803Y0247665D02*
X0151520Y0247665D01*
X0151520Y0248663D02*
X0149803Y0248663D01*
X0149803Y0249662D02*
X0151520Y0249662D01*
D19*
X0113819Y0223053D03*
M02*
