G75*
%MOIN*%
%OFA0B0*%
%FSLAX25Y25*%
%IPPOS*%
%LPD*%
%AMOC8*
5,1,8,0,0,1.08239X$1,22.5*
%
%ADD10C,0.00300*%
%ADD11C,0.01000*%
%ADD12C,0.00800*%
%ADD13C,0.00400*%
%ADD14C,0.00500*%
%ADD15C,0.00600*%
D10*
X0042203Y0042203D02*
X0040969Y0043438D01*
X0042203Y0044672D01*
X0044672Y0044672D01*
X0043438Y0045887D02*
X0044672Y0047121D01*
X0040969Y0047121D01*
X0040969Y0045887D02*
X0040969Y0048355D01*
X0042203Y0042203D02*
X0044672Y0042203D01*
X0067586Y0068203D02*
X0066969Y0068821D01*
X0066969Y0070055D01*
X0067586Y0070672D01*
X0068821Y0070672D01*
X0068821Y0069438D01*
X0070055Y0070672D02*
X0070672Y0070055D01*
X0070672Y0068821D01*
X0070055Y0068203D01*
X0067586Y0068203D01*
X0066969Y0071887D02*
X0069438Y0074355D01*
X0070055Y0074355D01*
X0070672Y0073738D01*
X0070672Y0072504D01*
X0070055Y0071887D01*
X0066969Y0071887D02*
X0066969Y0074355D01*
X0084969Y0073405D02*
X0084969Y0070936D01*
X0088672Y0070936D01*
X0088672Y0073405D01*
X0086821Y0072170D02*
X0086821Y0070936D01*
X0086821Y0069722D02*
X0086203Y0069104D01*
X0086203Y0067253D01*
X0084969Y0067253D02*
X0088672Y0067253D01*
X0088672Y0069104D01*
X0088055Y0069722D01*
X0086821Y0069722D01*
X0086203Y0068487D02*
X0084969Y0069722D01*
X0086821Y0066038D02*
X0086821Y0063570D01*
X0088672Y0062355D02*
X0086203Y0059887D01*
X0086821Y0060504D02*
X0084969Y0062355D01*
X0084969Y0059887D02*
X0088672Y0059887D01*
X0088672Y0057438D02*
X0084969Y0057438D01*
X0084969Y0058672D02*
X0084969Y0056203D01*
X0087438Y0056203D02*
X0088672Y0057438D01*
X0101969Y0058154D02*
X0105672Y0058154D01*
X0104438Y0059388D01*
X0105672Y0060623D01*
X0101969Y0060623D01*
X0101969Y0061837D02*
X0104438Y0061837D01*
X0105672Y0063071D01*
X0104438Y0064306D01*
X0101969Y0064306D01*
X0101969Y0065520D02*
X0105672Y0067989D01*
X0105672Y0065520D02*
X0101969Y0067989D01*
X0103821Y0064306D02*
X0103821Y0061837D01*
X0088669Y0034907D02*
X0087435Y0033672D01*
X0086200Y0034907D01*
X0086200Y0031203D01*
X0084986Y0031203D02*
X0084986Y0033672D01*
X0083752Y0034907D01*
X0082517Y0033672D01*
X0082517Y0031203D01*
X0081303Y0031203D02*
X0078834Y0034907D01*
X0077620Y0034907D02*
X0077620Y0031203D01*
X0078834Y0031203D02*
X0081303Y0034907D01*
X0082517Y0033055D02*
X0084986Y0033055D01*
X0088669Y0031203D02*
X0088669Y0034907D01*
X0077620Y0034907D02*
X0075768Y0034907D01*
X0075151Y0034289D01*
X0075151Y0033055D01*
X0075768Y0032438D01*
X0077620Y0032438D01*
X0076385Y0032438D02*
X0075151Y0031203D01*
X0070052Y0009907D02*
X0070669Y0009289D01*
X0070669Y0006821D01*
X0070052Y0006203D01*
X0068818Y0006203D01*
X0068200Y0006821D01*
X0068200Y0008055D01*
X0069435Y0008055D01*
X0068200Y0009289D02*
X0068818Y0009907D01*
X0070052Y0009907D01*
X0066986Y0009907D02*
X0066986Y0006203D01*
X0064517Y0006203D02*
X0064517Y0009907D01*
X0063303Y0009907D02*
X0063303Y0006203D01*
X0061451Y0006203D01*
X0060834Y0006821D01*
X0060834Y0009289D01*
X0061451Y0009907D01*
X0063303Y0009907D01*
X0066986Y0009907D02*
X0064517Y0006203D01*
X0083834Y0006821D02*
X0083834Y0009289D01*
X0084451Y0009907D01*
X0086303Y0009907D01*
X0086303Y0006203D01*
X0084451Y0006203D01*
X0083834Y0006821D01*
X0087517Y0006203D02*
X0087517Y0009907D01*
X0089986Y0009907D02*
X0087517Y0006203D01*
X0089986Y0006203D02*
X0089986Y0009907D01*
X0091200Y0009289D02*
X0091818Y0009907D01*
X0093052Y0009907D01*
X0093669Y0009289D01*
X0093669Y0006821D01*
X0093052Y0006203D01*
X0091818Y0006203D01*
X0091200Y0006821D01*
X0091200Y0008055D01*
X0092435Y0008055D01*
X0129200Y0008055D02*
X0131669Y0008055D01*
X0130435Y0009289D02*
X0130435Y0006821D01*
X0131468Y0021203D02*
X0133937Y0021203D01*
X0132702Y0021203D02*
X0132702Y0024907D01*
X0133937Y0023672D01*
X0135151Y0023055D02*
X0137620Y0023055D01*
X0138834Y0024289D02*
X0139451Y0024907D01*
X0141303Y0024907D01*
X0141303Y0021203D01*
X0139451Y0021203D01*
X0138834Y0021821D01*
X0138834Y0024289D01*
X0142517Y0024907D02*
X0144986Y0024907D01*
X0144986Y0021203D01*
X0142517Y0021203D01*
X0143752Y0023055D02*
X0144986Y0023055D01*
X0146200Y0023055D02*
X0146818Y0022438D01*
X0148669Y0022438D01*
X0147435Y0022438D02*
X0146200Y0021203D01*
X0146200Y0023055D02*
X0146200Y0024289D01*
X0146818Y0024907D01*
X0148669Y0024907D01*
X0148669Y0021203D01*
X0130435Y0047821D02*
X0130435Y0050289D01*
X0131669Y0049055D02*
X0129200Y0049055D01*
X0131695Y0063203D02*
X0134164Y0063203D01*
X0132930Y0063203D02*
X0132930Y0066907D01*
X0134164Y0065672D01*
X0135379Y0065055D02*
X0137847Y0065055D01*
X0139068Y0066907D02*
X0140303Y0066907D01*
X0139686Y0066907D02*
X0139686Y0063203D01*
X0140303Y0063203D02*
X0139068Y0063203D01*
X0141517Y0063203D02*
X0142752Y0064438D01*
X0142134Y0064438D02*
X0143986Y0064438D01*
X0143986Y0063203D02*
X0143986Y0066907D01*
X0142134Y0066907D01*
X0141517Y0066289D01*
X0141517Y0065055D01*
X0142134Y0064438D01*
X0145200Y0063821D02*
X0145200Y0066289D01*
X0145818Y0066907D01*
X0147052Y0066907D01*
X0147669Y0066289D01*
X0147669Y0063821D01*
X0147052Y0063203D01*
X0145818Y0063203D01*
X0145200Y0063821D01*
X0129435Y0090821D02*
X0129435Y0093289D01*
X0130669Y0092055D02*
X0128200Y0092055D01*
X0130468Y0105203D02*
X0132937Y0105203D01*
X0131702Y0105203D02*
X0131702Y0108907D01*
X0132937Y0107672D01*
X0134151Y0107055D02*
X0136620Y0107055D01*
X0137834Y0105203D02*
X0140303Y0105203D01*
X0140303Y0108907D01*
X0141517Y0108907D02*
X0143986Y0108907D01*
X0143986Y0105203D01*
X0141517Y0105203D01*
X0142752Y0107055D02*
X0143986Y0107055D01*
X0145200Y0108289D02*
X0145200Y0108907D01*
X0145200Y0108289D02*
X0146435Y0107055D01*
X0146435Y0105203D01*
X0146435Y0107055D02*
X0147669Y0108289D01*
X0147669Y0108907D01*
X0129435Y0132821D02*
X0129435Y0135289D01*
X0130669Y0134055D02*
X0128200Y0134055D01*
X0131468Y0147203D02*
X0133937Y0147203D01*
X0131468Y0149672D01*
X0131468Y0150289D01*
X0132085Y0150907D01*
X0133319Y0150907D01*
X0133937Y0150289D01*
X0135151Y0149055D02*
X0137620Y0149055D01*
X0138834Y0147821D02*
X0138834Y0150907D01*
X0141303Y0150907D02*
X0141303Y0147821D01*
X0140686Y0147203D01*
X0139451Y0147203D01*
X0138834Y0147821D01*
X0142517Y0147203D02*
X0144986Y0147203D01*
X0144986Y0150907D01*
X0146200Y0150289D02*
X0146200Y0149672D01*
X0146818Y0149055D01*
X0148669Y0149055D01*
X0146818Y0149055D02*
X0146200Y0148438D01*
X0146200Y0147821D01*
X0146818Y0147203D01*
X0148669Y0147203D01*
X0148669Y0150907D01*
X0146818Y0150907D01*
X0146200Y0150289D01*
X0129435Y0175821D02*
X0129435Y0178289D01*
X0130669Y0177055D02*
X0128200Y0177055D01*
X0131468Y0189203D02*
X0133937Y0189203D01*
X0132702Y0189203D02*
X0132702Y0192907D01*
X0133937Y0191672D01*
X0135151Y0191055D02*
X0137620Y0191055D01*
X0138834Y0192907D02*
X0141303Y0192907D01*
X0141303Y0189203D01*
X0138834Y0189203D01*
X0140068Y0191055D02*
X0141303Y0191055D01*
X0142517Y0191055D02*
X0142517Y0192289D01*
X0143134Y0192907D01*
X0144986Y0192907D01*
X0144986Y0189203D01*
X0144986Y0190438D02*
X0143134Y0190438D01*
X0142517Y0191055D01*
X0143752Y0190438D02*
X0142517Y0189203D01*
X0146200Y0189821D02*
X0146200Y0191055D01*
X0147435Y0191055D01*
X0148669Y0192289D02*
X0148669Y0189821D01*
X0148052Y0189203D01*
X0146818Y0189203D01*
X0146200Y0189821D01*
X0146200Y0192289D02*
X0146818Y0192907D01*
X0148052Y0192907D01*
X0148669Y0192289D01*
X0131669Y0217055D02*
X0129200Y0217055D01*
X0130435Y0218289D02*
X0130435Y0215821D01*
X0134379Y0231203D02*
X0136847Y0231203D01*
X0134379Y0233672D01*
X0134379Y0234289D01*
X0134996Y0234907D01*
X0136230Y0234907D01*
X0136847Y0234289D01*
X0138062Y0233055D02*
X0140531Y0233055D01*
X0141752Y0234907D02*
X0142986Y0234907D01*
X0142369Y0234907D02*
X0142369Y0231203D01*
X0142986Y0231203D02*
X0141752Y0231203D01*
X0144200Y0232438D02*
X0144200Y0234907D01*
X0146669Y0234907D02*
X0146669Y0232438D01*
X0145435Y0231203D01*
X0144200Y0232438D01*
X0102669Y0171907D02*
X0102669Y0168203D01*
X0100200Y0168203D02*
X0100200Y0171907D01*
X0101435Y0170672D01*
X0102669Y0171907D01*
X0098986Y0171907D02*
X0098986Y0168203D01*
X0098986Y0169438D02*
X0096517Y0171907D01*
X0095303Y0170055D02*
X0092834Y0170055D01*
X0091620Y0171289D02*
X0091002Y0171907D01*
X0089768Y0171907D01*
X0089151Y0171289D01*
X0091620Y0168821D01*
X0091002Y0168203D01*
X0089768Y0168203D01*
X0089151Y0168821D01*
X0089151Y0171289D01*
X0091620Y0171289D02*
X0091620Y0168821D01*
X0087937Y0168821D02*
X0087937Y0168203D01*
X0087319Y0168203D01*
X0087319Y0168821D01*
X0087937Y0168821D01*
X0086095Y0168203D02*
X0083626Y0168203D01*
X0084861Y0168203D02*
X0084861Y0171907D01*
X0086095Y0170672D01*
X0085969Y0177203D02*
X0085969Y0179672D01*
X0085969Y0180887D02*
X0089672Y0180887D01*
X0087821Y0181504D02*
X0085969Y0183355D01*
X0087821Y0184570D02*
X0087821Y0187038D01*
X0089055Y0188253D02*
X0086586Y0188253D01*
X0085969Y0188870D01*
X0085969Y0190104D01*
X0086586Y0190722D01*
X0089055Y0190722D01*
X0089672Y0190104D01*
X0089672Y0188870D01*
X0089055Y0188253D01*
X0089672Y0191936D02*
X0085969Y0191936D01*
X0087203Y0191936D02*
X0087203Y0193788D01*
X0087821Y0194405D01*
X0089055Y0194405D01*
X0089672Y0193788D01*
X0089672Y0191936D01*
X0087203Y0193170D02*
X0085969Y0194405D01*
X0089672Y0183355D02*
X0087203Y0180887D01*
X0085969Y0178438D02*
X0089672Y0178438D01*
X0088438Y0177203D01*
X0096517Y0168203D02*
X0098369Y0170055D01*
X0078729Y0171289D02*
X0078111Y0171907D01*
X0076877Y0171907D01*
X0076260Y0171289D01*
X0076260Y0170672D01*
X0078729Y0168203D01*
X0076260Y0168203D01*
X0075046Y0168821D02*
X0072577Y0171289D01*
X0072577Y0168821D01*
X0073194Y0168203D01*
X0074428Y0168203D01*
X0075046Y0168821D01*
X0075046Y0171289D01*
X0074428Y0171907D01*
X0073194Y0171907D01*
X0072577Y0171289D01*
X0071362Y0170672D02*
X0070128Y0171907D01*
X0070128Y0168203D01*
X0071362Y0168203D02*
X0068894Y0168203D01*
X0067679Y0168821D02*
X0067062Y0168203D01*
X0065828Y0168203D01*
X0065210Y0168821D01*
X0065210Y0169438D01*
X0065828Y0170055D01*
X0067679Y0170055D01*
X0067679Y0168821D01*
X0067679Y0170055D02*
X0066445Y0171289D01*
X0065210Y0171907D01*
X0074821Y0155989D02*
X0074204Y0155372D01*
X0074204Y0153520D01*
X0072969Y0153520D02*
X0076672Y0153520D01*
X0076672Y0155372D01*
X0076055Y0155989D01*
X0074821Y0155989D01*
X0073586Y0152306D02*
X0076672Y0152306D01*
X0076672Y0149837D02*
X0073586Y0149837D01*
X0072969Y0150454D01*
X0072969Y0151689D01*
X0073586Y0152306D01*
X0072969Y0148623D02*
X0072969Y0146154D01*
X0076672Y0146154D01*
X0076672Y0142471D02*
X0072969Y0142471D01*
X0072969Y0144940D01*
X0073586Y0141256D02*
X0076672Y0141256D01*
X0076672Y0138788D02*
X0073586Y0138788D01*
X0072969Y0139405D01*
X0072969Y0140639D01*
X0073586Y0141256D01*
X0074821Y0137573D02*
X0074204Y0136956D01*
X0074204Y0135104D01*
X0072969Y0135104D02*
X0076672Y0135104D01*
X0076672Y0136956D01*
X0076055Y0137573D01*
X0074821Y0137573D01*
X0066969Y0126405D02*
X0066969Y0123936D01*
X0070672Y0123936D01*
X0070055Y0122722D02*
X0070672Y0122104D01*
X0070672Y0120253D01*
X0066969Y0120253D01*
X0066969Y0122104D01*
X0067586Y0122722D01*
X0068203Y0122722D01*
X0068821Y0122104D01*
X0068821Y0120253D01*
X0068821Y0119038D02*
X0068821Y0116570D01*
X0070672Y0115355D02*
X0068203Y0112887D01*
X0068821Y0113504D02*
X0066969Y0115355D01*
X0066969Y0112887D02*
X0070672Y0112887D01*
X0070672Y0110438D02*
X0066969Y0110438D01*
X0066969Y0111672D02*
X0066969Y0109203D01*
X0069438Y0109203D02*
X0070672Y0110438D01*
X0068821Y0122104D02*
X0069438Y0122722D01*
X0070055Y0122722D01*
X0084969Y0113405D02*
X0084969Y0110936D01*
X0088672Y0110936D01*
X0088672Y0109722D02*
X0088055Y0109722D01*
X0086821Y0108487D01*
X0084969Y0108487D01*
X0086821Y0108487D02*
X0088055Y0107253D01*
X0088672Y0107253D01*
X0086821Y0106038D02*
X0086821Y0103570D01*
X0088672Y0102355D02*
X0086203Y0099887D01*
X0086821Y0100504D02*
X0084969Y0102355D01*
X0084969Y0099887D02*
X0088672Y0099887D01*
X0088672Y0097438D02*
X0084969Y0097438D01*
X0084969Y0098672D02*
X0084969Y0096203D01*
X0087438Y0096203D02*
X0088672Y0097438D01*
X0095469Y0101703D02*
X0095469Y0103555D01*
X0096086Y0104172D01*
X0098555Y0104172D01*
X0099172Y0103555D01*
X0099172Y0101703D01*
X0095469Y0101703D01*
X0095469Y0105387D02*
X0095469Y0106621D01*
X0095469Y0106004D02*
X0099172Y0106004D01*
X0099172Y0105387D02*
X0099172Y0106621D01*
X0098555Y0107842D02*
X0096086Y0107842D01*
X0095469Y0108459D01*
X0095469Y0109694D01*
X0096086Y0110311D01*
X0098555Y0110311D01*
X0099172Y0109694D01*
X0099172Y0108459D01*
X0098555Y0107842D01*
X0099172Y0111525D02*
X0099172Y0113377D01*
X0098555Y0113994D01*
X0096086Y0113994D01*
X0095469Y0113377D01*
X0095469Y0111525D01*
X0099172Y0111525D01*
X0099172Y0115208D02*
X0095469Y0115208D01*
X0095469Y0117677D01*
X0097321Y0116443D02*
X0097321Y0115208D01*
X0099172Y0115208D02*
X0099172Y0117677D01*
X0044672Y0126203D02*
X0044672Y0128055D01*
X0044055Y0128672D01*
X0043438Y0128672D01*
X0042821Y0128055D01*
X0042821Y0126203D01*
X0044672Y0126203D02*
X0040969Y0126203D01*
X0040969Y0128055D01*
X0041586Y0128672D01*
X0042203Y0128672D01*
X0042821Y0128055D01*
X0043438Y0129887D02*
X0044672Y0131121D01*
X0040969Y0131121D01*
X0040969Y0129887D02*
X0040969Y0132355D01*
X0044055Y0167203D02*
X0042821Y0168438D01*
X0040969Y0168438D01*
X0042821Y0168438D02*
X0044055Y0169672D01*
X0044672Y0169672D01*
X0043438Y0170887D02*
X0044672Y0172121D01*
X0040969Y0172121D01*
X0040969Y0170887D02*
X0040969Y0173355D01*
X0044055Y0167203D02*
X0044672Y0167203D01*
X0044055Y0210203D02*
X0041586Y0210203D01*
X0040969Y0210821D01*
X0040969Y0212055D01*
X0041586Y0212672D01*
X0044055Y0212672D01*
X0044672Y0212055D01*
X0044672Y0210821D01*
X0044055Y0210203D01*
X0043438Y0213887D02*
X0044672Y0215121D01*
X0040969Y0215121D01*
X0040969Y0213887D02*
X0040969Y0216355D01*
X0085969Y0224837D02*
X0089672Y0224837D01*
X0089672Y0226689D01*
X0089055Y0227306D01*
X0087821Y0227306D01*
X0087203Y0226689D01*
X0087203Y0224837D01*
X0087203Y0226071D02*
X0085969Y0227306D01*
X0085969Y0228520D02*
X0085969Y0230989D01*
X0085969Y0229755D02*
X0089672Y0229755D01*
X0088438Y0228520D01*
X0040969Y0089355D02*
X0040969Y0086887D01*
X0040969Y0088121D02*
X0044672Y0088121D01*
X0043438Y0086887D01*
X0044055Y0085672D02*
X0044672Y0085055D01*
X0044672Y0083821D01*
X0044055Y0083203D01*
X0041586Y0083203D01*
X0040969Y0083821D01*
X0040969Y0085055D01*
X0041586Y0085672D01*
X0042821Y0085672D01*
X0042821Y0084438D01*
D11*
X0059131Y0046158D02*
X0060999Y0046158D01*
X0061933Y0045224D01*
X0061933Y0041487D01*
X0060999Y0040553D01*
X0059131Y0040553D01*
X0058197Y0041487D01*
X0058197Y0045224D02*
X0059131Y0046158D01*
X0064274Y0044290D02*
X0064274Y0040553D01*
X0064274Y0043356D02*
X0068010Y0043356D01*
X0068010Y0044290D02*
X0068010Y0040553D01*
X0070351Y0039619D02*
X0074088Y0039619D01*
X0076428Y0040553D02*
X0076428Y0043356D01*
X0077362Y0044290D01*
X0080165Y0044290D01*
X0080165Y0040553D01*
X0082505Y0040553D02*
X0085308Y0040553D01*
X0086242Y0041487D01*
X0085308Y0042422D01*
X0082505Y0042422D01*
X0082505Y0043356D02*
X0082505Y0040553D01*
X0082505Y0043356D02*
X0083440Y0044290D01*
X0085308Y0044290D01*
X0088583Y0045224D02*
X0088583Y0041487D01*
X0089517Y0040553D01*
X0092319Y0040553D01*
X0092319Y0046158D01*
X0089517Y0046158D01*
X0088583Y0045224D01*
X0068010Y0044290D02*
X0066142Y0046158D01*
X0064274Y0044290D01*
X0096819Y0097053D02*
X0096819Y0099553D01*
X0091819Y0099553D01*
X0091819Y0119553D01*
X0101819Y0119553D01*
X0101819Y0099553D01*
X0096819Y0099553D01*
X0091819Y0119553D02*
X0091819Y0124553D01*
X0096819Y0124553D01*
X0096819Y0127053D01*
X0096819Y0124553D02*
X0101819Y0124553D01*
X0101819Y0119553D01*
D12*
X0036819Y0034053D02*
X0033819Y0034053D01*
X0033819Y0054053D01*
X0036819Y0054053D01*
X0036819Y0055053D01*
X0036819Y0054053D02*
X0039819Y0054053D01*
X0039819Y0034053D01*
X0036819Y0034053D01*
X0036819Y0033053D01*
X0059819Y0061053D02*
X0062819Y0061053D01*
X0062819Y0060053D01*
X0062819Y0061053D02*
X0065819Y0061053D01*
X0065819Y0081053D01*
X0062819Y0081053D01*
X0062819Y0082053D01*
X0062819Y0081053D02*
X0059819Y0081053D01*
X0059819Y0061053D01*
X0069819Y0036053D02*
X0069819Y0033053D01*
X0068819Y0033053D01*
X0069819Y0033053D02*
X0069819Y0030053D01*
X0089819Y0030053D01*
X0089819Y0033053D01*
X0090819Y0033053D01*
X0089819Y0033053D02*
X0089819Y0036053D01*
X0069819Y0036053D01*
X0068319Y0021053D02*
X0063319Y0021053D01*
X0060819Y0018553D01*
X0060819Y0013553D01*
X0063319Y0011053D01*
X0068319Y0011053D01*
X0070819Y0013553D01*
X0073319Y0011053D01*
X0078319Y0011053D01*
X0080819Y0013553D01*
X0080819Y0018553D01*
X0078319Y0021053D01*
X0073319Y0021053D01*
X0070819Y0018553D01*
X0068319Y0021053D01*
X0083819Y0018553D02*
X0083819Y0013553D01*
X0086319Y0011053D01*
X0091319Y0011053D01*
X0093819Y0013553D01*
X0096319Y0011053D01*
X0101319Y0011053D01*
X0103819Y0013553D01*
X0103819Y0018553D01*
X0101319Y0021053D01*
X0096319Y0021053D01*
X0093819Y0018553D01*
X0091319Y0021053D01*
X0086319Y0021053D01*
X0083819Y0018553D01*
X0080819Y0053053D02*
X0080819Y0054053D01*
X0083819Y0054053D01*
X0083819Y0074053D01*
X0080819Y0074053D01*
X0080819Y0075053D01*
X0080819Y0074053D02*
X0077819Y0074053D01*
X0077819Y0054053D01*
X0080819Y0054053D01*
X0094819Y0053053D02*
X0097819Y0053053D01*
X0097819Y0052053D01*
X0097819Y0053053D02*
X0100819Y0053053D01*
X0100819Y0073053D01*
X0097819Y0073053D01*
X0097819Y0074053D01*
X0097819Y0073053D02*
X0094819Y0073053D01*
X0094819Y0053053D01*
X0080819Y0093053D02*
X0080819Y0094053D01*
X0083819Y0094053D01*
X0083819Y0114053D01*
X0080819Y0114053D01*
X0080819Y0115053D01*
X0080819Y0114053D02*
X0077819Y0114053D01*
X0077819Y0094053D01*
X0080819Y0094053D01*
X0065819Y0106053D02*
X0062819Y0106053D01*
X0062819Y0105053D01*
X0062819Y0106053D02*
X0059819Y0106053D01*
X0059819Y0126053D01*
X0062819Y0126053D01*
X0062819Y0127053D01*
X0062819Y0126053D02*
X0065819Y0126053D01*
X0065819Y0106053D01*
X0080819Y0135053D02*
X0080819Y0136053D01*
X0083819Y0136053D01*
X0083819Y0156053D01*
X0080819Y0156053D01*
X0080819Y0157053D01*
X0080819Y0156053D02*
X0077819Y0156053D01*
X0077819Y0136053D01*
X0080819Y0136053D01*
X0081819Y0177053D02*
X0081819Y0178053D01*
X0078819Y0178053D01*
X0078819Y0198053D01*
X0081819Y0198053D01*
X0081819Y0199053D01*
X0081819Y0198053D02*
X0084819Y0198053D01*
X0084819Y0178053D01*
X0081819Y0178053D01*
X0081819Y0217053D02*
X0081819Y0218053D01*
X0078819Y0218053D01*
X0078819Y0238053D01*
X0081819Y0238053D01*
X0081819Y0239053D01*
X0081819Y0238053D02*
X0084819Y0238053D01*
X0084819Y0218053D01*
X0081819Y0218053D01*
X0039819Y0223053D02*
X0039819Y0203053D01*
X0036819Y0203053D01*
X0036819Y0202053D01*
X0036819Y0203053D02*
X0033819Y0203053D01*
X0033819Y0223053D01*
X0036819Y0223053D01*
X0036819Y0224053D01*
X0036819Y0223053D02*
X0039819Y0223053D01*
X0036819Y0181053D02*
X0036819Y0180053D01*
X0033819Y0180053D01*
X0033819Y0160053D01*
X0036819Y0160053D01*
X0036819Y0159053D01*
X0036819Y0160053D02*
X0039819Y0160053D01*
X0039819Y0180053D01*
X0036819Y0180053D01*
X0036819Y0139053D02*
X0036819Y0138053D01*
X0033819Y0138053D01*
X0033819Y0118053D01*
X0036819Y0118053D01*
X0036819Y0117053D01*
X0036819Y0118053D02*
X0039819Y0118053D01*
X0039819Y0138053D01*
X0036819Y0138053D01*
X0036819Y0097053D02*
X0036819Y0096053D01*
X0033819Y0096053D01*
X0033819Y0076053D01*
X0036819Y0076053D01*
X0036819Y0075053D01*
X0036819Y0076053D02*
X0039819Y0076053D01*
X0039819Y0096053D01*
X0036819Y0096053D01*
X0132945Y0084738D02*
X0148693Y0084738D01*
X0149178Y0084540D01*
X0149658Y0084329D01*
X0150133Y0084107D01*
X0150602Y0083873D01*
X0151065Y0083628D01*
X0151522Y0083372D01*
X0151973Y0083105D01*
X0152417Y0082826D01*
X0152854Y0082537D01*
X0153284Y0082237D01*
X0153707Y0081927D01*
X0154121Y0081606D01*
X0154528Y0081276D01*
X0154927Y0080936D01*
X0155317Y0080586D01*
X0155698Y0080226D01*
X0156071Y0079857D01*
X0156434Y0079480D01*
X0156788Y0079093D01*
X0157133Y0078698D01*
X0157467Y0078295D01*
X0157792Y0077884D01*
X0158107Y0077464D01*
X0158411Y0077038D01*
X0158705Y0076604D01*
X0158988Y0076162D01*
X0159260Y0075714D01*
X0159521Y0075260D01*
X0159771Y0074799D01*
X0160009Y0074333D01*
X0160236Y0073860D01*
X0160452Y0073382D01*
X0160655Y0072899D01*
X0160847Y0072412D01*
X0161027Y0071919D01*
X0161195Y0071423D01*
X0161350Y0070922D01*
X0161493Y0070418D01*
X0161624Y0069911D01*
X0161742Y0069400D01*
X0161848Y0068887D01*
X0161941Y0068371D01*
X0162022Y0067853D01*
X0162090Y0067333D01*
X0162145Y0066812D01*
X0162187Y0066290D01*
X0162217Y0065766D01*
X0162234Y0065243D01*
X0162238Y0064718D01*
X0162229Y0064194D01*
X0162207Y0063671D01*
X0162173Y0063148D01*
X0162125Y0062626D01*
X0162065Y0062105D01*
X0161993Y0061586D01*
X0161907Y0061069D01*
X0161809Y0060554D01*
X0161698Y0060042D01*
X0161575Y0059532D01*
X0161440Y0059026D01*
X0161292Y0058523D01*
X0161132Y0058024D01*
X0160959Y0057529D01*
X0160775Y0057039D01*
X0160579Y0056553D01*
X0160370Y0056072D01*
X0160151Y0055596D01*
X0159919Y0055126D01*
X0159676Y0054661D01*
X0159422Y0054203D01*
X0159157Y0053751D01*
X0158880Y0053306D01*
X0158593Y0052867D01*
X0158295Y0052436D01*
X0157987Y0052012D01*
X0157669Y0051596D01*
X0157340Y0051187D01*
X0157002Y0050787D01*
X0156654Y0050395D01*
X0156296Y0050012D01*
X0155929Y0049638D01*
X0155553Y0049273D01*
X0155168Y0048917D01*
X0154775Y0048571D01*
X0154373Y0048234D01*
X0153963Y0047907D01*
X0153545Y0047591D01*
X0153120Y0047285D01*
X0152687Y0046989D01*
X0152248Y0046704D01*
X0151801Y0046430D01*
X0151348Y0046166D01*
X0150888Y0045914D01*
X0150423Y0045674D01*
X0149951Y0045444D01*
X0149474Y0045227D01*
X0148992Y0045021D01*
X0148506Y0044827D01*
X0148014Y0044645D01*
X0147518Y0044475D01*
X0147019Y0044317D01*
X0146515Y0044171D01*
X0146008Y0044038D01*
X0145498Y0043917D01*
X0144985Y0043809D01*
X0144470Y0043713D01*
X0143952Y0043630D01*
X0143433Y0043560D01*
X0142912Y0043503D01*
X0142390Y0043458D01*
X0141867Y0043426D01*
X0141343Y0043406D01*
X0140819Y0043400D01*
X0140295Y0043406D01*
X0139771Y0043426D01*
X0139248Y0043458D01*
X0138726Y0043503D01*
X0138205Y0043560D01*
X0137686Y0043630D01*
X0137168Y0043713D01*
X0136653Y0043809D01*
X0136140Y0043917D01*
X0135630Y0044038D01*
X0135123Y0044171D01*
X0134619Y0044317D01*
X0134120Y0044475D01*
X0133624Y0044645D01*
X0133132Y0044827D01*
X0132646Y0045021D01*
X0132164Y0045227D01*
X0131687Y0045444D01*
X0131215Y0045674D01*
X0130750Y0045914D01*
X0130290Y0046166D01*
X0129837Y0046430D01*
X0129390Y0046704D01*
X0128951Y0046989D01*
X0128518Y0047285D01*
X0128093Y0047591D01*
X0127675Y0047907D01*
X0127265Y0048234D01*
X0126863Y0048571D01*
X0126470Y0048917D01*
X0126085Y0049273D01*
X0125709Y0049638D01*
X0125342Y0050012D01*
X0124984Y0050395D01*
X0124636Y0050787D01*
X0124298Y0051187D01*
X0123969Y0051596D01*
X0123651Y0052012D01*
X0123343Y0052436D01*
X0123045Y0052867D01*
X0122758Y0053306D01*
X0122481Y0053751D01*
X0122216Y0054203D01*
X0121962Y0054661D01*
X0121719Y0055126D01*
X0121487Y0055596D01*
X0121268Y0056072D01*
X0121059Y0056553D01*
X0120863Y0057039D01*
X0120679Y0057529D01*
X0120506Y0058024D01*
X0120346Y0058523D01*
X0120198Y0059026D01*
X0120063Y0059532D01*
X0119940Y0060042D01*
X0119829Y0060554D01*
X0119731Y0061069D01*
X0119645Y0061586D01*
X0119573Y0062105D01*
X0119513Y0062626D01*
X0119465Y0063148D01*
X0119431Y0063671D01*
X0119409Y0064194D01*
X0119400Y0064718D01*
X0119404Y0065243D01*
X0119421Y0065766D01*
X0119451Y0066290D01*
X0119493Y0066812D01*
X0119548Y0067333D01*
X0119616Y0067853D01*
X0119697Y0068371D01*
X0119790Y0068887D01*
X0119896Y0069400D01*
X0120014Y0069911D01*
X0120145Y0070418D01*
X0120288Y0070922D01*
X0120443Y0071423D01*
X0120611Y0071919D01*
X0120791Y0072412D01*
X0120983Y0072899D01*
X0121186Y0073382D01*
X0121402Y0073860D01*
X0121629Y0074333D01*
X0121867Y0074799D01*
X0122117Y0075260D01*
X0122378Y0075714D01*
X0122650Y0076162D01*
X0122933Y0076604D01*
X0123227Y0077038D01*
X0123531Y0077464D01*
X0123846Y0077884D01*
X0124171Y0078295D01*
X0124505Y0078698D01*
X0124850Y0079093D01*
X0125204Y0079480D01*
X0125567Y0079857D01*
X0125940Y0080226D01*
X0126321Y0080586D01*
X0126711Y0080936D01*
X0127110Y0081276D01*
X0127517Y0081606D01*
X0127931Y0081927D01*
X0128354Y0082237D01*
X0128784Y0082537D01*
X0129221Y0082826D01*
X0129665Y0083105D01*
X0130116Y0083372D01*
X0130573Y0083628D01*
X0131036Y0083873D01*
X0131505Y0084107D01*
X0131980Y0084329D01*
X0132460Y0084540D01*
X0132945Y0084738D01*
X0132945Y0126738D02*
X0132460Y0126540D01*
X0131980Y0126329D01*
X0131505Y0126107D01*
X0131036Y0125873D01*
X0130573Y0125628D01*
X0130116Y0125372D01*
X0129665Y0125105D01*
X0129221Y0124826D01*
X0128784Y0124537D01*
X0128354Y0124237D01*
X0127931Y0123927D01*
X0127517Y0123606D01*
X0127110Y0123276D01*
X0126711Y0122936D01*
X0126321Y0122586D01*
X0125940Y0122226D01*
X0125567Y0121857D01*
X0125204Y0121480D01*
X0124850Y0121093D01*
X0124505Y0120698D01*
X0124171Y0120295D01*
X0123846Y0119884D01*
X0123531Y0119464D01*
X0123227Y0119038D01*
X0122933Y0118604D01*
X0122650Y0118162D01*
X0122378Y0117714D01*
X0122117Y0117260D01*
X0121867Y0116799D01*
X0121629Y0116333D01*
X0121402Y0115860D01*
X0121186Y0115382D01*
X0120983Y0114899D01*
X0120791Y0114412D01*
X0120611Y0113919D01*
X0120443Y0113423D01*
X0120288Y0112922D01*
X0120145Y0112418D01*
X0120014Y0111911D01*
X0119896Y0111400D01*
X0119790Y0110887D01*
X0119697Y0110371D01*
X0119616Y0109853D01*
X0119548Y0109333D01*
X0119493Y0108812D01*
X0119451Y0108290D01*
X0119421Y0107766D01*
X0119404Y0107243D01*
X0119400Y0106718D01*
X0119409Y0106194D01*
X0119431Y0105671D01*
X0119465Y0105148D01*
X0119513Y0104626D01*
X0119573Y0104105D01*
X0119645Y0103586D01*
X0119731Y0103069D01*
X0119829Y0102554D01*
X0119940Y0102042D01*
X0120063Y0101532D01*
X0120198Y0101026D01*
X0120346Y0100523D01*
X0120506Y0100024D01*
X0120679Y0099529D01*
X0120863Y0099039D01*
X0121059Y0098553D01*
X0121268Y0098072D01*
X0121487Y0097596D01*
X0121719Y0097126D01*
X0121962Y0096661D01*
X0122216Y0096203D01*
X0122481Y0095751D01*
X0122758Y0095306D01*
X0123045Y0094867D01*
X0123343Y0094436D01*
X0123651Y0094012D01*
X0123969Y0093596D01*
X0124298Y0093187D01*
X0124636Y0092787D01*
X0124984Y0092395D01*
X0125342Y0092012D01*
X0125709Y0091638D01*
X0126085Y0091273D01*
X0126470Y0090917D01*
X0126863Y0090571D01*
X0127265Y0090234D01*
X0127675Y0089907D01*
X0128093Y0089591D01*
X0128518Y0089285D01*
X0128951Y0088989D01*
X0129390Y0088704D01*
X0129837Y0088430D01*
X0130290Y0088166D01*
X0130750Y0087914D01*
X0131215Y0087674D01*
X0131687Y0087444D01*
X0132164Y0087227D01*
X0132646Y0087021D01*
X0133132Y0086827D01*
X0133624Y0086645D01*
X0134120Y0086475D01*
X0134619Y0086317D01*
X0135123Y0086171D01*
X0135630Y0086038D01*
X0136140Y0085917D01*
X0136653Y0085809D01*
X0137168Y0085713D01*
X0137686Y0085630D01*
X0138205Y0085560D01*
X0138726Y0085503D01*
X0139248Y0085458D01*
X0139771Y0085426D01*
X0140295Y0085406D01*
X0140819Y0085400D01*
X0141343Y0085406D01*
X0141867Y0085426D01*
X0142390Y0085458D01*
X0142912Y0085503D01*
X0143433Y0085560D01*
X0143952Y0085630D01*
X0144470Y0085713D01*
X0144985Y0085809D01*
X0145498Y0085917D01*
X0146008Y0086038D01*
X0146515Y0086171D01*
X0147019Y0086317D01*
X0147518Y0086475D01*
X0148014Y0086645D01*
X0148506Y0086827D01*
X0148992Y0087021D01*
X0149474Y0087227D01*
X0149951Y0087444D01*
X0150423Y0087674D01*
X0150888Y0087914D01*
X0151348Y0088166D01*
X0151801Y0088430D01*
X0152248Y0088704D01*
X0152687Y0088989D01*
X0153120Y0089285D01*
X0153545Y0089591D01*
X0153963Y0089907D01*
X0154373Y0090234D01*
X0154775Y0090571D01*
X0155168Y0090917D01*
X0155553Y0091273D01*
X0155929Y0091638D01*
X0156296Y0092012D01*
X0156654Y0092395D01*
X0157002Y0092787D01*
X0157340Y0093187D01*
X0157669Y0093596D01*
X0157987Y0094012D01*
X0158295Y0094436D01*
X0158593Y0094867D01*
X0158880Y0095306D01*
X0159157Y0095751D01*
X0159422Y0096203D01*
X0159676Y0096661D01*
X0159919Y0097126D01*
X0160151Y0097596D01*
X0160370Y0098072D01*
X0160579Y0098553D01*
X0160775Y0099039D01*
X0160959Y0099529D01*
X0161132Y0100024D01*
X0161292Y0100523D01*
X0161440Y0101026D01*
X0161575Y0101532D01*
X0161698Y0102042D01*
X0161809Y0102554D01*
X0161907Y0103069D01*
X0161993Y0103586D01*
X0162065Y0104105D01*
X0162125Y0104626D01*
X0162173Y0105148D01*
X0162207Y0105671D01*
X0162229Y0106194D01*
X0162238Y0106718D01*
X0162234Y0107243D01*
X0162217Y0107766D01*
X0162187Y0108290D01*
X0162145Y0108812D01*
X0162090Y0109333D01*
X0162022Y0109853D01*
X0161941Y0110371D01*
X0161848Y0110887D01*
X0161742Y0111400D01*
X0161624Y0111911D01*
X0161493Y0112418D01*
X0161350Y0112922D01*
X0161195Y0113423D01*
X0161027Y0113919D01*
X0160847Y0114412D01*
X0160655Y0114899D01*
X0160452Y0115382D01*
X0160236Y0115860D01*
X0160009Y0116333D01*
X0159771Y0116799D01*
X0159521Y0117260D01*
X0159260Y0117714D01*
X0158988Y0118162D01*
X0158705Y0118604D01*
X0158411Y0119038D01*
X0158107Y0119464D01*
X0157792Y0119884D01*
X0157467Y0120295D01*
X0157133Y0120698D01*
X0156788Y0121093D01*
X0156434Y0121480D01*
X0156071Y0121857D01*
X0155698Y0122226D01*
X0155317Y0122586D01*
X0154927Y0122936D01*
X0154528Y0123276D01*
X0154121Y0123606D01*
X0153707Y0123927D01*
X0153284Y0124237D01*
X0152854Y0124537D01*
X0152417Y0124826D01*
X0151973Y0125105D01*
X0151522Y0125372D01*
X0151065Y0125628D01*
X0150602Y0125873D01*
X0150133Y0126107D01*
X0149658Y0126329D01*
X0149178Y0126540D01*
X0148693Y0126738D01*
X0132945Y0126738D01*
X0132945Y0168738D02*
X0132460Y0168540D01*
X0131980Y0168329D01*
X0131505Y0168107D01*
X0131036Y0167873D01*
X0130573Y0167628D01*
X0130116Y0167372D01*
X0129665Y0167105D01*
X0129221Y0166826D01*
X0128784Y0166537D01*
X0128354Y0166237D01*
X0127931Y0165927D01*
X0127517Y0165606D01*
X0127110Y0165276D01*
X0126711Y0164936D01*
X0126321Y0164586D01*
X0125940Y0164226D01*
X0125567Y0163857D01*
X0125204Y0163480D01*
X0124850Y0163093D01*
X0124505Y0162698D01*
X0124171Y0162295D01*
X0123846Y0161884D01*
X0123531Y0161464D01*
X0123227Y0161038D01*
X0122933Y0160604D01*
X0122650Y0160162D01*
X0122378Y0159714D01*
X0122117Y0159260D01*
X0121867Y0158799D01*
X0121629Y0158333D01*
X0121402Y0157860D01*
X0121186Y0157382D01*
X0120983Y0156899D01*
X0120791Y0156412D01*
X0120611Y0155919D01*
X0120443Y0155423D01*
X0120288Y0154922D01*
X0120145Y0154418D01*
X0120014Y0153911D01*
X0119896Y0153400D01*
X0119790Y0152887D01*
X0119697Y0152371D01*
X0119616Y0151853D01*
X0119548Y0151333D01*
X0119493Y0150812D01*
X0119451Y0150290D01*
X0119421Y0149766D01*
X0119404Y0149243D01*
X0119400Y0148718D01*
X0119409Y0148194D01*
X0119431Y0147671D01*
X0119465Y0147148D01*
X0119513Y0146626D01*
X0119573Y0146105D01*
X0119645Y0145586D01*
X0119731Y0145069D01*
X0119829Y0144554D01*
X0119940Y0144042D01*
X0120063Y0143532D01*
X0120198Y0143026D01*
X0120346Y0142523D01*
X0120506Y0142024D01*
X0120679Y0141529D01*
X0120863Y0141039D01*
X0121059Y0140553D01*
X0121268Y0140072D01*
X0121487Y0139596D01*
X0121719Y0139126D01*
X0121962Y0138661D01*
X0122216Y0138203D01*
X0122481Y0137751D01*
X0122758Y0137306D01*
X0123045Y0136867D01*
X0123343Y0136436D01*
X0123651Y0136012D01*
X0123969Y0135596D01*
X0124298Y0135187D01*
X0124636Y0134787D01*
X0124984Y0134395D01*
X0125342Y0134012D01*
X0125709Y0133638D01*
X0126085Y0133273D01*
X0126470Y0132917D01*
X0126863Y0132571D01*
X0127265Y0132234D01*
X0127675Y0131907D01*
X0128093Y0131591D01*
X0128518Y0131285D01*
X0128951Y0130989D01*
X0129390Y0130704D01*
X0129837Y0130430D01*
X0130290Y0130166D01*
X0130750Y0129914D01*
X0131215Y0129674D01*
X0131687Y0129444D01*
X0132164Y0129227D01*
X0132646Y0129021D01*
X0133132Y0128827D01*
X0133624Y0128645D01*
X0134120Y0128475D01*
X0134619Y0128317D01*
X0135123Y0128171D01*
X0135630Y0128038D01*
X0136140Y0127917D01*
X0136653Y0127809D01*
X0137168Y0127713D01*
X0137686Y0127630D01*
X0138205Y0127560D01*
X0138726Y0127503D01*
X0139248Y0127458D01*
X0139771Y0127426D01*
X0140295Y0127406D01*
X0140819Y0127400D01*
X0141343Y0127406D01*
X0141867Y0127426D01*
X0142390Y0127458D01*
X0142912Y0127503D01*
X0143433Y0127560D01*
X0143952Y0127630D01*
X0144470Y0127713D01*
X0144985Y0127809D01*
X0145498Y0127917D01*
X0146008Y0128038D01*
X0146515Y0128171D01*
X0147019Y0128317D01*
X0147518Y0128475D01*
X0148014Y0128645D01*
X0148506Y0128827D01*
X0148992Y0129021D01*
X0149474Y0129227D01*
X0149951Y0129444D01*
X0150423Y0129674D01*
X0150888Y0129914D01*
X0151348Y0130166D01*
X0151801Y0130430D01*
X0152248Y0130704D01*
X0152687Y0130989D01*
X0153120Y0131285D01*
X0153545Y0131591D01*
X0153963Y0131907D01*
X0154373Y0132234D01*
X0154775Y0132571D01*
X0155168Y0132917D01*
X0155553Y0133273D01*
X0155929Y0133638D01*
X0156296Y0134012D01*
X0156654Y0134395D01*
X0157002Y0134787D01*
X0157340Y0135187D01*
X0157669Y0135596D01*
X0157987Y0136012D01*
X0158295Y0136436D01*
X0158593Y0136867D01*
X0158880Y0137306D01*
X0159157Y0137751D01*
X0159422Y0138203D01*
X0159676Y0138661D01*
X0159919Y0139126D01*
X0160151Y0139596D01*
X0160370Y0140072D01*
X0160579Y0140553D01*
X0160775Y0141039D01*
X0160959Y0141529D01*
X0161132Y0142024D01*
X0161292Y0142523D01*
X0161440Y0143026D01*
X0161575Y0143532D01*
X0161698Y0144042D01*
X0161809Y0144554D01*
X0161907Y0145069D01*
X0161993Y0145586D01*
X0162065Y0146105D01*
X0162125Y0146626D01*
X0162173Y0147148D01*
X0162207Y0147671D01*
X0162229Y0148194D01*
X0162238Y0148718D01*
X0162234Y0149243D01*
X0162217Y0149766D01*
X0162187Y0150290D01*
X0162145Y0150812D01*
X0162090Y0151333D01*
X0162022Y0151853D01*
X0161941Y0152371D01*
X0161848Y0152887D01*
X0161742Y0153400D01*
X0161624Y0153911D01*
X0161493Y0154418D01*
X0161350Y0154922D01*
X0161195Y0155423D01*
X0161027Y0155919D01*
X0160847Y0156412D01*
X0160655Y0156899D01*
X0160452Y0157382D01*
X0160236Y0157860D01*
X0160009Y0158333D01*
X0159771Y0158799D01*
X0159521Y0159260D01*
X0159260Y0159714D01*
X0158988Y0160162D01*
X0158705Y0160604D01*
X0158411Y0161038D01*
X0158107Y0161464D01*
X0157792Y0161884D01*
X0157467Y0162295D01*
X0157133Y0162698D01*
X0156788Y0163093D01*
X0156434Y0163480D01*
X0156071Y0163857D01*
X0155698Y0164226D01*
X0155317Y0164586D01*
X0154927Y0164936D01*
X0154528Y0165276D01*
X0154121Y0165606D01*
X0153707Y0165927D01*
X0153284Y0166237D01*
X0152854Y0166537D01*
X0152417Y0166826D01*
X0151973Y0167105D01*
X0151522Y0167372D01*
X0151065Y0167628D01*
X0150602Y0167873D01*
X0150133Y0168107D01*
X0149658Y0168329D01*
X0149178Y0168540D01*
X0148693Y0168738D01*
X0132945Y0168738D01*
X0132945Y0210738D02*
X0132460Y0210540D01*
X0131980Y0210329D01*
X0131505Y0210107D01*
X0131036Y0209873D01*
X0130573Y0209628D01*
X0130116Y0209372D01*
X0129665Y0209105D01*
X0129221Y0208826D01*
X0128784Y0208537D01*
X0128354Y0208237D01*
X0127931Y0207927D01*
X0127517Y0207606D01*
X0127110Y0207276D01*
X0126711Y0206936D01*
X0126321Y0206586D01*
X0125940Y0206226D01*
X0125567Y0205857D01*
X0125204Y0205480D01*
X0124850Y0205093D01*
X0124505Y0204698D01*
X0124171Y0204295D01*
X0123846Y0203884D01*
X0123531Y0203464D01*
X0123227Y0203038D01*
X0122933Y0202604D01*
X0122650Y0202162D01*
X0122378Y0201714D01*
X0122117Y0201260D01*
X0121867Y0200799D01*
X0121629Y0200333D01*
X0121402Y0199860D01*
X0121186Y0199382D01*
X0120983Y0198899D01*
X0120791Y0198412D01*
X0120611Y0197919D01*
X0120443Y0197423D01*
X0120288Y0196922D01*
X0120145Y0196418D01*
X0120014Y0195911D01*
X0119896Y0195400D01*
X0119790Y0194887D01*
X0119697Y0194371D01*
X0119616Y0193853D01*
X0119548Y0193333D01*
X0119493Y0192812D01*
X0119451Y0192290D01*
X0119421Y0191766D01*
X0119404Y0191243D01*
X0119400Y0190718D01*
X0119409Y0190194D01*
X0119431Y0189671D01*
X0119465Y0189148D01*
X0119513Y0188626D01*
X0119573Y0188105D01*
X0119645Y0187586D01*
X0119731Y0187069D01*
X0119829Y0186554D01*
X0119940Y0186042D01*
X0120063Y0185532D01*
X0120198Y0185026D01*
X0120346Y0184523D01*
X0120506Y0184024D01*
X0120679Y0183529D01*
X0120863Y0183039D01*
X0121059Y0182553D01*
X0121268Y0182072D01*
X0121487Y0181596D01*
X0121719Y0181126D01*
X0121962Y0180661D01*
X0122216Y0180203D01*
X0122481Y0179751D01*
X0122758Y0179306D01*
X0123045Y0178867D01*
X0123343Y0178436D01*
X0123651Y0178012D01*
X0123969Y0177596D01*
X0124298Y0177187D01*
X0124636Y0176787D01*
X0124984Y0176395D01*
X0125342Y0176012D01*
X0125709Y0175638D01*
X0126085Y0175273D01*
X0126470Y0174917D01*
X0126863Y0174571D01*
X0127265Y0174234D01*
X0127675Y0173907D01*
X0128093Y0173591D01*
X0128518Y0173285D01*
X0128951Y0172989D01*
X0129390Y0172704D01*
X0129837Y0172430D01*
X0130290Y0172166D01*
X0130750Y0171914D01*
X0131215Y0171674D01*
X0131687Y0171444D01*
X0132164Y0171227D01*
X0132646Y0171021D01*
X0133132Y0170827D01*
X0133624Y0170645D01*
X0134120Y0170475D01*
X0134619Y0170317D01*
X0135123Y0170171D01*
X0135630Y0170038D01*
X0136140Y0169917D01*
X0136653Y0169809D01*
X0137168Y0169713D01*
X0137686Y0169630D01*
X0138205Y0169560D01*
X0138726Y0169503D01*
X0139248Y0169458D01*
X0139771Y0169426D01*
X0140295Y0169406D01*
X0140819Y0169400D01*
X0141343Y0169406D01*
X0141867Y0169426D01*
X0142390Y0169458D01*
X0142912Y0169503D01*
X0143433Y0169560D01*
X0143952Y0169630D01*
X0144470Y0169713D01*
X0144985Y0169809D01*
X0145498Y0169917D01*
X0146008Y0170038D01*
X0146515Y0170171D01*
X0147019Y0170317D01*
X0147518Y0170475D01*
X0148014Y0170645D01*
X0148506Y0170827D01*
X0148992Y0171021D01*
X0149474Y0171227D01*
X0149951Y0171444D01*
X0150423Y0171674D01*
X0150888Y0171914D01*
X0151348Y0172166D01*
X0151801Y0172430D01*
X0152248Y0172704D01*
X0152687Y0172989D01*
X0153120Y0173285D01*
X0153545Y0173591D01*
X0153963Y0173907D01*
X0154373Y0174234D01*
X0154775Y0174571D01*
X0155168Y0174917D01*
X0155553Y0175273D01*
X0155929Y0175638D01*
X0156296Y0176012D01*
X0156654Y0176395D01*
X0157002Y0176787D01*
X0157340Y0177187D01*
X0157669Y0177596D01*
X0157987Y0178012D01*
X0158295Y0178436D01*
X0158593Y0178867D01*
X0158880Y0179306D01*
X0159157Y0179751D01*
X0159422Y0180203D01*
X0159676Y0180661D01*
X0159919Y0181126D01*
X0160151Y0181596D01*
X0160370Y0182072D01*
X0160579Y0182553D01*
X0160775Y0183039D01*
X0160959Y0183529D01*
X0161132Y0184024D01*
X0161292Y0184523D01*
X0161440Y0185026D01*
X0161575Y0185532D01*
X0161698Y0186042D01*
X0161809Y0186554D01*
X0161907Y0187069D01*
X0161993Y0187586D01*
X0162065Y0188105D01*
X0162125Y0188626D01*
X0162173Y0189148D01*
X0162207Y0189671D01*
X0162229Y0190194D01*
X0162238Y0190718D01*
X0162234Y0191243D01*
X0162217Y0191766D01*
X0162187Y0192290D01*
X0162145Y0192812D01*
X0162090Y0193333D01*
X0162022Y0193853D01*
X0161941Y0194371D01*
X0161848Y0194887D01*
X0161742Y0195400D01*
X0161624Y0195911D01*
X0161493Y0196418D01*
X0161350Y0196922D01*
X0161195Y0197423D01*
X0161027Y0197919D01*
X0160847Y0198412D01*
X0160655Y0198899D01*
X0160452Y0199382D01*
X0160236Y0199860D01*
X0160009Y0200333D01*
X0159771Y0200799D01*
X0159521Y0201260D01*
X0159260Y0201714D01*
X0158988Y0202162D01*
X0158705Y0202604D01*
X0158411Y0203038D01*
X0158107Y0203464D01*
X0157792Y0203884D01*
X0157467Y0204295D01*
X0157133Y0204698D01*
X0156788Y0205093D01*
X0156434Y0205480D01*
X0156071Y0205857D01*
X0155698Y0206226D01*
X0155317Y0206586D01*
X0154927Y0206936D01*
X0154528Y0207276D01*
X0154121Y0207606D01*
X0153707Y0207927D01*
X0153284Y0208237D01*
X0152854Y0208537D01*
X0152417Y0208826D01*
X0151973Y0209105D01*
X0151522Y0209372D01*
X0151065Y0209628D01*
X0150602Y0209873D01*
X0150133Y0210107D01*
X0149658Y0210329D01*
X0149178Y0210540D01*
X0148693Y0210738D01*
X0132945Y0210738D01*
X0132945Y0252738D02*
X0132460Y0252540D01*
X0131980Y0252329D01*
X0131505Y0252107D01*
X0131036Y0251873D01*
X0130573Y0251628D01*
X0130116Y0251372D01*
X0129665Y0251105D01*
X0129221Y0250826D01*
X0128784Y0250537D01*
X0128354Y0250237D01*
X0127931Y0249927D01*
X0127517Y0249606D01*
X0127110Y0249276D01*
X0126711Y0248936D01*
X0126321Y0248586D01*
X0125940Y0248226D01*
X0125567Y0247857D01*
X0125204Y0247480D01*
X0124850Y0247093D01*
X0124505Y0246698D01*
X0124171Y0246295D01*
X0123846Y0245884D01*
X0123531Y0245464D01*
X0123227Y0245038D01*
X0122933Y0244604D01*
X0122650Y0244162D01*
X0122378Y0243714D01*
X0122117Y0243260D01*
X0121867Y0242799D01*
X0121629Y0242333D01*
X0121402Y0241860D01*
X0121186Y0241382D01*
X0120983Y0240899D01*
X0120791Y0240412D01*
X0120611Y0239919D01*
X0120443Y0239423D01*
X0120288Y0238922D01*
X0120145Y0238418D01*
X0120014Y0237911D01*
X0119896Y0237400D01*
X0119790Y0236887D01*
X0119697Y0236371D01*
X0119616Y0235853D01*
X0119548Y0235333D01*
X0119493Y0234812D01*
X0119451Y0234290D01*
X0119421Y0233766D01*
X0119404Y0233243D01*
X0119400Y0232718D01*
X0119409Y0232194D01*
X0119431Y0231671D01*
X0119465Y0231148D01*
X0119513Y0230626D01*
X0119573Y0230105D01*
X0119645Y0229586D01*
X0119731Y0229069D01*
X0119829Y0228554D01*
X0119940Y0228042D01*
X0120063Y0227532D01*
X0120198Y0227026D01*
X0120346Y0226523D01*
X0120506Y0226024D01*
X0120679Y0225529D01*
X0120863Y0225039D01*
X0121059Y0224553D01*
X0121268Y0224072D01*
X0121487Y0223596D01*
X0121719Y0223126D01*
X0121962Y0222661D01*
X0122216Y0222203D01*
X0122481Y0221751D01*
X0122758Y0221306D01*
X0123045Y0220867D01*
X0123343Y0220436D01*
X0123651Y0220012D01*
X0123969Y0219596D01*
X0124298Y0219187D01*
X0124636Y0218787D01*
X0124984Y0218395D01*
X0125342Y0218012D01*
X0125709Y0217638D01*
X0126085Y0217273D01*
X0126470Y0216917D01*
X0126863Y0216571D01*
X0127265Y0216234D01*
X0127675Y0215907D01*
X0128093Y0215591D01*
X0128518Y0215285D01*
X0128951Y0214989D01*
X0129390Y0214704D01*
X0129837Y0214430D01*
X0130290Y0214166D01*
X0130750Y0213914D01*
X0131215Y0213674D01*
X0131687Y0213444D01*
X0132164Y0213227D01*
X0132646Y0213021D01*
X0133132Y0212827D01*
X0133624Y0212645D01*
X0134120Y0212475D01*
X0134619Y0212317D01*
X0135123Y0212171D01*
X0135630Y0212038D01*
X0136140Y0211917D01*
X0136653Y0211809D01*
X0137168Y0211713D01*
X0137686Y0211630D01*
X0138205Y0211560D01*
X0138726Y0211503D01*
X0139248Y0211458D01*
X0139771Y0211426D01*
X0140295Y0211406D01*
X0140819Y0211400D01*
X0141343Y0211406D01*
X0141867Y0211426D01*
X0142390Y0211458D01*
X0142912Y0211503D01*
X0143433Y0211560D01*
X0143952Y0211630D01*
X0144470Y0211713D01*
X0144985Y0211809D01*
X0145498Y0211917D01*
X0146008Y0212038D01*
X0146515Y0212171D01*
X0147019Y0212317D01*
X0147518Y0212475D01*
X0148014Y0212645D01*
X0148506Y0212827D01*
X0148992Y0213021D01*
X0149474Y0213227D01*
X0149951Y0213444D01*
X0150423Y0213674D01*
X0150888Y0213914D01*
X0151348Y0214166D01*
X0151801Y0214430D01*
X0152248Y0214704D01*
X0152687Y0214989D01*
X0153120Y0215285D01*
X0153545Y0215591D01*
X0153963Y0215907D01*
X0154373Y0216234D01*
X0154775Y0216571D01*
X0155168Y0216917D01*
X0155553Y0217273D01*
X0155929Y0217638D01*
X0156296Y0218012D01*
X0156654Y0218395D01*
X0157002Y0218787D01*
X0157340Y0219187D01*
X0157669Y0219596D01*
X0157987Y0220012D01*
X0158295Y0220436D01*
X0158593Y0220867D01*
X0158880Y0221306D01*
X0159157Y0221751D01*
X0159422Y0222203D01*
X0159676Y0222661D01*
X0159919Y0223126D01*
X0160151Y0223596D01*
X0160370Y0224072D01*
X0160579Y0224553D01*
X0160775Y0225039D01*
X0160959Y0225529D01*
X0161132Y0226024D01*
X0161292Y0226523D01*
X0161440Y0227026D01*
X0161575Y0227532D01*
X0161698Y0228042D01*
X0161809Y0228554D01*
X0161907Y0229069D01*
X0161993Y0229586D01*
X0162065Y0230105D01*
X0162125Y0230626D01*
X0162173Y0231148D01*
X0162207Y0231671D01*
X0162229Y0232194D01*
X0162238Y0232718D01*
X0162234Y0233243D01*
X0162217Y0233766D01*
X0162187Y0234290D01*
X0162145Y0234812D01*
X0162090Y0235333D01*
X0162022Y0235853D01*
X0161941Y0236371D01*
X0161848Y0236887D01*
X0161742Y0237400D01*
X0161624Y0237911D01*
X0161493Y0238418D01*
X0161350Y0238922D01*
X0161195Y0239423D01*
X0161027Y0239919D01*
X0160847Y0240412D01*
X0160655Y0240899D01*
X0160452Y0241382D01*
X0160236Y0241860D01*
X0160009Y0242333D01*
X0159771Y0242799D01*
X0159521Y0243260D01*
X0159260Y0243714D01*
X0158988Y0244162D01*
X0158705Y0244604D01*
X0158411Y0245038D01*
X0158107Y0245464D01*
X0157792Y0245884D01*
X0157467Y0246295D01*
X0157133Y0246698D01*
X0156788Y0247093D01*
X0156434Y0247480D01*
X0156071Y0247857D01*
X0155698Y0248226D01*
X0155317Y0248586D01*
X0154927Y0248936D01*
X0154528Y0249276D01*
X0154121Y0249606D01*
X0153707Y0249927D01*
X0153284Y0250237D01*
X0152854Y0250537D01*
X0152417Y0250826D01*
X0151973Y0251105D01*
X0151522Y0251372D01*
X0151065Y0251628D01*
X0150602Y0251873D01*
X0150133Y0252107D01*
X0149658Y0252329D01*
X0149178Y0252540D01*
X0148693Y0252738D01*
X0132945Y0252738D01*
X0132945Y0042738D02*
X0148693Y0042738D01*
X0149178Y0042540D01*
X0149658Y0042329D01*
X0150133Y0042107D01*
X0150602Y0041873D01*
X0151065Y0041628D01*
X0151522Y0041372D01*
X0151973Y0041105D01*
X0152417Y0040826D01*
X0152854Y0040537D01*
X0153284Y0040237D01*
X0153707Y0039927D01*
X0154121Y0039606D01*
X0154528Y0039276D01*
X0154927Y0038936D01*
X0155317Y0038586D01*
X0155698Y0038226D01*
X0156071Y0037857D01*
X0156434Y0037480D01*
X0156788Y0037093D01*
X0157133Y0036698D01*
X0157467Y0036295D01*
X0157792Y0035884D01*
X0158107Y0035464D01*
X0158411Y0035038D01*
X0158705Y0034604D01*
X0158988Y0034162D01*
X0159260Y0033714D01*
X0159521Y0033260D01*
X0159771Y0032799D01*
X0160009Y0032333D01*
X0160236Y0031860D01*
X0160452Y0031382D01*
X0160655Y0030899D01*
X0160847Y0030412D01*
X0161027Y0029919D01*
X0161195Y0029423D01*
X0161350Y0028922D01*
X0161493Y0028418D01*
X0161624Y0027911D01*
X0161742Y0027400D01*
X0161848Y0026887D01*
X0161941Y0026371D01*
X0162022Y0025853D01*
X0162090Y0025333D01*
X0162145Y0024812D01*
X0162187Y0024290D01*
X0162217Y0023766D01*
X0162234Y0023243D01*
X0162238Y0022718D01*
X0162229Y0022194D01*
X0162207Y0021671D01*
X0162173Y0021148D01*
X0162125Y0020626D01*
X0162065Y0020105D01*
X0161993Y0019586D01*
X0161907Y0019069D01*
X0161809Y0018554D01*
X0161698Y0018042D01*
X0161575Y0017532D01*
X0161440Y0017026D01*
X0161292Y0016523D01*
X0161132Y0016024D01*
X0160959Y0015529D01*
X0160775Y0015039D01*
X0160579Y0014553D01*
X0160370Y0014072D01*
X0160151Y0013596D01*
X0159919Y0013126D01*
X0159676Y0012661D01*
X0159422Y0012203D01*
X0159157Y0011751D01*
X0158880Y0011306D01*
X0158593Y0010867D01*
X0158295Y0010436D01*
X0157987Y0010012D01*
X0157669Y0009596D01*
X0157340Y0009187D01*
X0157002Y0008787D01*
X0156654Y0008395D01*
X0156296Y0008012D01*
X0155929Y0007638D01*
X0155553Y0007273D01*
X0155168Y0006917D01*
X0154775Y0006571D01*
X0154373Y0006234D01*
X0153963Y0005907D01*
X0153545Y0005591D01*
X0153120Y0005285D01*
X0152687Y0004989D01*
X0152248Y0004704D01*
X0151801Y0004430D01*
X0151348Y0004166D01*
X0150888Y0003914D01*
X0150423Y0003674D01*
X0149951Y0003444D01*
X0149474Y0003227D01*
X0148992Y0003021D01*
X0148506Y0002827D01*
X0148014Y0002645D01*
X0147518Y0002475D01*
X0147019Y0002317D01*
X0146515Y0002171D01*
X0146008Y0002038D01*
X0145498Y0001917D01*
X0144985Y0001809D01*
X0144470Y0001713D01*
X0143952Y0001630D01*
X0143433Y0001560D01*
X0142912Y0001503D01*
X0142390Y0001458D01*
X0141867Y0001426D01*
X0141343Y0001406D01*
X0140819Y0001400D01*
X0140295Y0001406D01*
X0139771Y0001426D01*
X0139248Y0001458D01*
X0138726Y0001503D01*
X0138205Y0001560D01*
X0137686Y0001630D01*
X0137168Y0001713D01*
X0136653Y0001809D01*
X0136140Y0001917D01*
X0135630Y0002038D01*
X0135123Y0002171D01*
X0134619Y0002317D01*
X0134120Y0002475D01*
X0133624Y0002645D01*
X0133132Y0002827D01*
X0132646Y0003021D01*
X0132164Y0003227D01*
X0131687Y0003444D01*
X0131215Y0003674D01*
X0130750Y0003914D01*
X0130290Y0004166D01*
X0129837Y0004430D01*
X0129390Y0004704D01*
X0128951Y0004989D01*
X0128518Y0005285D01*
X0128093Y0005591D01*
X0127675Y0005907D01*
X0127265Y0006234D01*
X0126863Y0006571D01*
X0126470Y0006917D01*
X0126085Y0007273D01*
X0125709Y0007638D01*
X0125342Y0008012D01*
X0124984Y0008395D01*
X0124636Y0008787D01*
X0124298Y0009187D01*
X0123969Y0009596D01*
X0123651Y0010012D01*
X0123343Y0010436D01*
X0123045Y0010867D01*
X0122758Y0011306D01*
X0122481Y0011751D01*
X0122216Y0012203D01*
X0121962Y0012661D01*
X0121719Y0013126D01*
X0121487Y0013596D01*
X0121268Y0014072D01*
X0121059Y0014553D01*
X0120863Y0015039D01*
X0120679Y0015529D01*
X0120506Y0016024D01*
X0120346Y0016523D01*
X0120198Y0017026D01*
X0120063Y0017532D01*
X0119940Y0018042D01*
X0119829Y0018554D01*
X0119731Y0019069D01*
X0119645Y0019586D01*
X0119573Y0020105D01*
X0119513Y0020626D01*
X0119465Y0021148D01*
X0119431Y0021671D01*
X0119409Y0022194D01*
X0119400Y0022718D01*
X0119404Y0023243D01*
X0119421Y0023766D01*
X0119451Y0024290D01*
X0119493Y0024812D01*
X0119548Y0025333D01*
X0119616Y0025853D01*
X0119697Y0026371D01*
X0119790Y0026887D01*
X0119896Y0027400D01*
X0120014Y0027911D01*
X0120145Y0028418D01*
X0120288Y0028922D01*
X0120443Y0029423D01*
X0120611Y0029919D01*
X0120791Y0030412D01*
X0120983Y0030899D01*
X0121186Y0031382D01*
X0121402Y0031860D01*
X0121629Y0032333D01*
X0121867Y0032799D01*
X0122117Y0033260D01*
X0122378Y0033714D01*
X0122650Y0034162D01*
X0122933Y0034604D01*
X0123227Y0035038D01*
X0123531Y0035464D01*
X0123846Y0035884D01*
X0124171Y0036295D01*
X0124505Y0036698D01*
X0124850Y0037093D01*
X0125204Y0037480D01*
X0125567Y0037857D01*
X0125940Y0038226D01*
X0126321Y0038586D01*
X0126711Y0038936D01*
X0127110Y0039276D01*
X0127517Y0039606D01*
X0127931Y0039927D01*
X0128354Y0040237D01*
X0128784Y0040537D01*
X0129221Y0040826D01*
X0129665Y0041105D01*
X0130116Y0041372D01*
X0130573Y0041628D01*
X0131036Y0041873D01*
X0131505Y0042107D01*
X0131980Y0042329D01*
X0132460Y0042540D01*
X0132945Y0042738D01*
D13*
X0103852Y0009357D02*
X0104619Y0008590D01*
X0104619Y0007823D01*
X0103852Y0007055D01*
X0101550Y0007055D01*
X0101550Y0005521D02*
X0101550Y0008590D01*
X0102317Y0009357D01*
X0103852Y0009357D01*
X0104619Y0005521D02*
X0103852Y0004753D01*
X0102317Y0004753D01*
X0101550Y0005521D01*
X0100015Y0006288D02*
X0100015Y0009357D01*
X0100015Y0006288D02*
X0098481Y0004753D01*
X0096946Y0006288D01*
X0096946Y0009357D01*
X0082619Y0026753D02*
X0080217Y0026753D01*
X0081418Y0026753D02*
X0081418Y0030356D01*
X0082619Y0029155D01*
X0078936Y0029155D02*
X0078936Y0026753D01*
X0077735Y0026753D02*
X0077735Y0028555D01*
X0077134Y0029155D01*
X0076534Y0028555D01*
X0076534Y0026753D01*
X0077735Y0028555D02*
X0078335Y0029155D01*
X0078936Y0029155D01*
X0077550Y0009357D02*
X0079084Y0008590D01*
X0080619Y0007055D01*
X0078317Y0007055D01*
X0077550Y0006288D01*
X0077550Y0005521D01*
X0078317Y0004753D01*
X0079852Y0004753D01*
X0080619Y0005521D01*
X0080619Y0007055D01*
X0076015Y0006288D02*
X0074481Y0004753D01*
X0072946Y0006288D01*
X0072946Y0009357D01*
X0076015Y0009357D02*
X0076015Y0006288D01*
X0079519Y0057253D02*
X0079519Y0059655D01*
X0079519Y0058454D02*
X0083122Y0058454D01*
X0081921Y0057253D01*
X0082522Y0060937D02*
X0083122Y0061537D01*
X0083122Y0062738D01*
X0082522Y0063339D01*
X0080120Y0060937D01*
X0079519Y0061537D01*
X0079519Y0062738D01*
X0080120Y0063339D01*
X0082522Y0063339D01*
X0082522Y0064620D02*
X0083122Y0065220D01*
X0083122Y0066421D01*
X0082522Y0067022D01*
X0080120Y0064620D01*
X0079519Y0065220D01*
X0079519Y0066421D01*
X0080120Y0067022D01*
X0082522Y0067022D01*
X0082522Y0068303D02*
X0083122Y0068903D01*
X0083122Y0070104D01*
X0082522Y0070705D01*
X0080120Y0068303D01*
X0079519Y0068903D01*
X0079519Y0070104D01*
X0080120Y0070705D01*
X0082522Y0070705D01*
X0082522Y0068303D02*
X0080120Y0068303D01*
X0080120Y0064620D02*
X0082522Y0064620D01*
X0082522Y0060937D02*
X0080120Y0060937D01*
X0065122Y0069454D02*
X0063921Y0068253D01*
X0065122Y0069454D02*
X0061519Y0069454D01*
X0061519Y0068253D02*
X0061519Y0070655D01*
X0062120Y0071937D02*
X0064522Y0074339D01*
X0062120Y0074339D01*
X0061519Y0073738D01*
X0061519Y0072537D01*
X0062120Y0071937D01*
X0064522Y0071937D01*
X0065122Y0072537D01*
X0065122Y0073738D01*
X0064522Y0074339D01*
X0063921Y0109253D02*
X0065122Y0110454D01*
X0061519Y0110454D01*
X0061519Y0109253D02*
X0061519Y0111655D01*
X0062120Y0112937D02*
X0064522Y0115339D01*
X0062120Y0115339D01*
X0061519Y0114738D01*
X0061519Y0113537D01*
X0062120Y0112937D01*
X0064522Y0112937D01*
X0065122Y0113537D01*
X0065122Y0114738D01*
X0064522Y0115339D01*
X0064522Y0116620D02*
X0065122Y0117220D01*
X0065122Y0118421D01*
X0064522Y0119022D01*
X0062120Y0116620D01*
X0061519Y0117220D01*
X0061519Y0118421D01*
X0062120Y0119022D01*
X0064522Y0119022D01*
X0064522Y0120303D02*
X0065122Y0120903D01*
X0065122Y0122104D01*
X0064522Y0122705D01*
X0062120Y0120303D01*
X0061519Y0120903D01*
X0061519Y0122104D01*
X0062120Y0122705D01*
X0064522Y0122705D01*
X0064522Y0120303D02*
X0062120Y0120303D01*
X0062120Y0116620D02*
X0064522Y0116620D01*
X0080321Y0141818D02*
X0080321Y0144220D01*
X0079720Y0145501D02*
X0080921Y0147302D01*
X0082122Y0148570D02*
X0082122Y0150972D01*
X0081522Y0150972D01*
X0079120Y0148570D01*
X0078519Y0148570D01*
X0078519Y0147302D02*
X0079720Y0145501D01*
X0078519Y0145501D02*
X0082122Y0145501D01*
X0082122Y0143619D02*
X0080321Y0141818D01*
X0082122Y0143619D02*
X0078519Y0143619D01*
X0080519Y0180253D02*
X0080519Y0182655D01*
X0080519Y0181454D02*
X0084122Y0181454D01*
X0082921Y0180253D01*
X0083522Y0183937D02*
X0081120Y0183937D01*
X0083522Y0186339D01*
X0081120Y0186339D01*
X0080519Y0185738D01*
X0080519Y0184537D01*
X0081120Y0183937D01*
X0083522Y0183937D02*
X0084122Y0184537D01*
X0084122Y0185738D01*
X0083522Y0186339D01*
X0083522Y0187620D02*
X0084122Y0188220D01*
X0084122Y0189421D01*
X0083522Y0190022D01*
X0081120Y0187620D01*
X0080519Y0188220D01*
X0080519Y0189421D01*
X0081120Y0190022D01*
X0083522Y0190022D01*
X0083522Y0191303D02*
X0084122Y0191903D01*
X0084122Y0193104D01*
X0083522Y0193705D01*
X0081120Y0191303D01*
X0080519Y0191903D01*
X0080519Y0193104D01*
X0081120Y0193705D01*
X0083522Y0193705D01*
X0083522Y0191303D02*
X0081120Y0191303D01*
X0081120Y0187620D02*
X0083522Y0187620D01*
X0081921Y0222204D02*
X0083122Y0223405D01*
X0079519Y0223405D01*
X0079519Y0222204D02*
X0079519Y0224606D01*
X0080120Y0225887D02*
X0082522Y0228289D01*
X0080120Y0228289D01*
X0079519Y0227689D01*
X0079519Y0226488D01*
X0080120Y0225887D01*
X0082522Y0225887D01*
X0083122Y0226488D01*
X0083122Y0227689D01*
X0082522Y0228289D01*
X0082522Y0229570D02*
X0083122Y0230171D01*
X0083122Y0231372D01*
X0082522Y0231972D01*
X0080120Y0229570D01*
X0079519Y0230171D01*
X0079519Y0231372D01*
X0080120Y0231972D01*
X0082522Y0231972D01*
X0082522Y0229570D02*
X0080120Y0229570D01*
X0039122Y0217421D02*
X0039122Y0216220D01*
X0038522Y0215620D01*
X0036120Y0215620D01*
X0038522Y0218022D01*
X0036120Y0218022D01*
X0035519Y0217421D01*
X0035519Y0216220D01*
X0036120Y0215620D01*
X0036120Y0214339D02*
X0035519Y0213738D01*
X0035519Y0212537D01*
X0036120Y0211937D01*
X0038522Y0214339D01*
X0036120Y0214339D01*
X0038522Y0214339D02*
X0039122Y0213738D01*
X0039122Y0212537D01*
X0038522Y0211937D01*
X0036120Y0211937D01*
X0035519Y0210655D02*
X0035519Y0208253D01*
X0035519Y0209454D02*
X0039122Y0209454D01*
X0037921Y0208253D01*
X0039122Y0217421D02*
X0038522Y0218022D01*
X0038522Y0175022D02*
X0036120Y0175022D01*
X0035519Y0174421D01*
X0035519Y0173220D01*
X0036120Y0172620D01*
X0038522Y0175022D01*
X0039122Y0174421D01*
X0039122Y0173220D01*
X0038522Y0172620D01*
X0036120Y0172620D01*
X0036120Y0171339D02*
X0035519Y0170738D01*
X0035519Y0169537D01*
X0036120Y0168937D01*
X0038522Y0171339D01*
X0036120Y0171339D01*
X0038522Y0171339D02*
X0039122Y0170738D01*
X0039122Y0169537D01*
X0038522Y0168937D01*
X0036120Y0168937D01*
X0035519Y0167655D02*
X0035519Y0165253D01*
X0035519Y0166454D02*
X0039122Y0166454D01*
X0037921Y0165253D01*
X0038522Y0133022D02*
X0036120Y0133022D01*
X0035519Y0132421D01*
X0035519Y0131220D01*
X0036120Y0130620D01*
X0038522Y0133022D01*
X0039122Y0132421D01*
X0039122Y0131220D01*
X0038522Y0130620D01*
X0036120Y0130620D01*
X0036120Y0129339D02*
X0035519Y0128738D01*
X0035519Y0127537D01*
X0036120Y0126937D01*
X0037321Y0126937D02*
X0037921Y0128138D01*
X0037921Y0128738D01*
X0037321Y0129339D01*
X0036120Y0129339D01*
X0037321Y0126937D02*
X0039122Y0126937D01*
X0039122Y0129339D01*
X0039122Y0124454D02*
X0035519Y0124454D01*
X0035519Y0123253D02*
X0035519Y0125655D01*
X0037921Y0123253D02*
X0039122Y0124454D01*
X0037522Y0089339D02*
X0035120Y0086937D01*
X0034519Y0087537D01*
X0034519Y0088738D01*
X0035120Y0089339D01*
X0037522Y0089339D01*
X0038122Y0088738D01*
X0038122Y0087537D01*
X0037522Y0086937D01*
X0035120Y0086937D01*
X0037522Y0085655D02*
X0035120Y0083253D01*
X0034519Y0083253D01*
X0037522Y0085655D02*
X0038122Y0085655D01*
X0038122Y0083253D01*
X0038522Y0049022D02*
X0036120Y0049022D01*
X0035519Y0048421D01*
X0035519Y0047220D01*
X0036120Y0046620D01*
X0038522Y0049022D01*
X0039122Y0048421D01*
X0039122Y0047220D01*
X0038522Y0046620D01*
X0036120Y0046620D01*
X0036120Y0045339D02*
X0035519Y0044738D01*
X0035519Y0043537D01*
X0036120Y0042937D01*
X0037321Y0042937D02*
X0037921Y0044138D01*
X0037921Y0044738D01*
X0037321Y0045339D01*
X0036120Y0045339D01*
X0037321Y0042937D02*
X0039122Y0042937D01*
X0039122Y0045339D01*
X0039122Y0040454D02*
X0035519Y0040454D01*
X0035519Y0039253D02*
X0035519Y0041655D01*
X0037921Y0039253D02*
X0039122Y0040454D01*
X0096519Y0059887D02*
X0096519Y0062289D01*
X0096519Y0061088D02*
X0100122Y0061088D01*
X0098921Y0059887D01*
X0098921Y0063570D02*
X0098921Y0064171D01*
X0098321Y0064771D01*
X0098921Y0065372D01*
X0098321Y0065972D01*
X0096519Y0065972D01*
X0096519Y0064771D02*
X0098321Y0064771D01*
X0098921Y0063570D02*
X0096519Y0063570D01*
D14*
X0097013Y0027007D02*
X0096263Y0026257D01*
X0096263Y0023254D01*
X0097013Y0022503D01*
X0098515Y0022503D01*
X0099265Y0023254D01*
X0099265Y0026257D01*
X0098515Y0027007D01*
X0097013Y0027007D01*
X0094661Y0027007D02*
X0094661Y0022503D01*
X0091659Y0022503D01*
X0090057Y0022503D02*
X0087055Y0022503D01*
X0085453Y0022503D02*
X0085453Y0027007D01*
X0083201Y0027007D01*
X0082451Y0026257D01*
X0082451Y0024755D01*
X0083201Y0024005D01*
X0085453Y0024005D01*
X0083952Y0024005D02*
X0082451Y0022503D01*
X0087055Y0027007D02*
X0090057Y0027007D01*
X0090057Y0022503D01*
X0090057Y0024755D02*
X0088556Y0024755D01*
X0100867Y0024005D02*
X0100867Y0023254D01*
X0101617Y0022503D01*
X0103118Y0022503D01*
X0103869Y0023254D01*
X0103118Y0024755D02*
X0101617Y0024755D01*
X0100867Y0024005D01*
X0100867Y0026257D02*
X0101617Y0027007D01*
X0103118Y0027007D01*
X0103869Y0026257D01*
X0103869Y0025506D01*
X0103118Y0024755D01*
X0075869Y0024755D02*
X0073617Y0024755D01*
X0072867Y0024005D01*
X0072867Y0023254D01*
X0073617Y0022503D01*
X0075869Y0022503D01*
X0075869Y0027007D01*
X0073617Y0027007D01*
X0072867Y0026257D01*
X0072867Y0025506D01*
X0073617Y0024755D01*
X0071265Y0024755D02*
X0068263Y0024755D01*
X0068263Y0025506D02*
X0068263Y0022503D01*
X0068263Y0025506D02*
X0069764Y0027007D01*
X0071265Y0025506D01*
X0071265Y0022503D01*
X0066661Y0027007D02*
X0063659Y0027007D01*
X0065160Y0027007D02*
X0065160Y0022503D01*
X0103069Y0104803D02*
X0103069Y0107139D01*
X0103069Y0105971D02*
X0106572Y0105971D01*
X0105404Y0104803D01*
X0105404Y0108487D02*
X0106572Y0109654D01*
X0105404Y0110822D01*
X0103069Y0110822D01*
X0103069Y0108487D02*
X0105404Y0108487D01*
X0104821Y0108487D02*
X0104821Y0110822D01*
X0104821Y0115853D02*
X0105404Y0117020D01*
X0105404Y0117604D01*
X0104821Y0118188D01*
X0103653Y0118188D01*
X0103069Y0117604D01*
X0103069Y0116437D01*
X0103653Y0115853D01*
X0104821Y0115853D02*
X0106572Y0115853D01*
X0106572Y0118188D01*
X0105988Y0119536D02*
X0106572Y0120120D01*
X0106572Y0121287D01*
X0105988Y0121871D01*
X0103653Y0119536D01*
X0103069Y0120120D01*
X0103069Y0121287D01*
X0103653Y0121871D01*
X0105988Y0121871D01*
X0106572Y0123219D02*
X0104237Y0123219D01*
X0103069Y0124387D01*
X0104237Y0125554D01*
X0106572Y0125554D01*
X0105988Y0119536D02*
X0103653Y0119536D01*
D15*
X0083022Y0110104D02*
X0083022Y0108970D01*
X0082455Y0108403D01*
X0080186Y0108403D01*
X0082455Y0110671D01*
X0080186Y0110671D01*
X0079619Y0110104D01*
X0079619Y0108970D01*
X0080186Y0108403D01*
X0080186Y0106988D02*
X0079619Y0106421D01*
X0079619Y0105287D01*
X0080186Y0104720D01*
X0082455Y0106988D01*
X0080186Y0106988D01*
X0080186Y0104720D02*
X0082455Y0104720D01*
X0083022Y0105287D01*
X0083022Y0106421D01*
X0082455Y0106988D01*
X0082455Y0103305D02*
X0080186Y0103305D01*
X0079619Y0102738D01*
X0079619Y0101604D01*
X0080186Y0101037D01*
X0082455Y0103305D01*
X0083022Y0102738D01*
X0083022Y0101604D01*
X0082455Y0101037D01*
X0080186Y0101037D01*
X0079619Y0099622D02*
X0079619Y0097353D01*
X0079619Y0098488D02*
X0083022Y0098488D01*
X0081888Y0097353D01*
X0083022Y0110104D02*
X0082455Y0110671D01*
M02*
