%
M48
M72
T01C0.01969
T02C0.02362
T03C0.03150
T04C0.03200
T05C0.03543
T06C0.03937
T07C0.04000
T08C0.09449
%
T01
X113819Y223053
T02
X121319Y207053
X96319Y219553
X101319Y167053
X92819Y160053
X78819Y152053
X55819Y169053
X46319Y179553
X91319Y107053
X103819Y103553
X111319Y134553
X120319Y136053
X86319Y72053
X81319Y57053
T03
X94945Y239053
X110693Y239053
T04
X108819Y212053
X103819Y204553
X98819Y212053
X98819Y183053
X103819Y175553
X108819Y183053
X108819Y151053
X103819Y143553
X98819Y151053
X65819Y184053
X60819Y176553
X55819Y184053
X60819Y204553
X55819Y212053
X65819Y212053
X60819Y239053
X50819Y239053
X70819Y239053
X64819Y152053
X59819Y144553
X54819Y152053
T05
X62819Y131053
X80819Y131053
X80819Y119053
X62819Y101053
X62819Y86053
X80819Y89053
X80819Y79053
X97819Y78053
X80819Y49053
X94819Y33053
X97819Y48053
X123512Y44996
X126126Y58110
X123512Y87996
X126126Y99110
X123512Y128996
X125126Y142110
X122512Y171996
X125126Y185110
X122512Y214996
X81819Y213053
X81819Y203053
X81819Y173053
X80819Y161053
X36819Y155053
X36819Y143053
X36819Y113053
X36819Y101053
X36819Y71053
X36819Y59053
X36819Y29053
X62819Y56053
X64819Y33053
X126126Y15110
X36819Y185053
X36819Y198053
X36819Y228053
X81819Y243053
T06
X96819Y132053
X96819Y92053
T07
X110819Y87053
X110819Y97053
X110819Y107053
X110819Y117053
X110819Y127053
X110819Y77053
X110819Y67053
X110819Y57053
X110819Y47053
X110819Y37053
X110819Y27053
X110819Y17053
X98819Y16053
X88819Y16053
X75819Y16053
X65819Y16053
X50819Y17053
X50819Y27053
X50819Y37053
X50819Y47053
X50819Y57053
X50819Y67053
X50819Y77053
X50819Y87053
X50819Y97053
X50819Y107053
X50819Y117053
X50819Y127053
T08
X22819Y13053
X22819Y33053
X22819Y55053
X22819Y75053
X22819Y97053
X22819Y117053
X22819Y139053
X22819Y159053
X22819Y181053
X22819Y201053
X22819Y223053
X22819Y243053
X140819Y243053
X140819Y223053
X140819Y201053
X140819Y181053
X140819Y159053
X140819Y139053
X140819Y117053
X140819Y97053
X140819Y75053
X140819Y55053
X140819Y33053
X140819Y13053
M30
